<?xml version="1.0" encoding="utf-8" standalone="no"?>
<!DOCTYPE svg PUBLIC "-//W3C//DTD SVG 1.1//EN"
  "http://www.w3.org/Graphics/SVG/1.1/DTD/svg11.dtd">
<svg xmlns:xlink="http://www.w3.org/1999/xlink" width="497.38125pt" height="377.39625pt" viewBox="0 0 497.38125 377.39625" xmlns="http://www.w3.org/2000/svg" version="1.1">
 <metadata>
  <rdf:RDF xmlns:dc="http://purl.org/dc/elements/1.1/" xmlns:cc="http://creativecommons.org/ns#" xmlns:rdf="http://www.w3.org/1999/02/22-rdf-syntax-ns#">
   <cc:Work>
    <dc:type rdf:resource="http://purl.org/dc/dcmitype/StillImage"/>
    <dc:date>2025-03-28T19:42:46.708724</dc:date>
    <dc:format>image/svg+xml</dc:format>
    <dc:creator>
     <cc:Agent>
      <dc:title>Matplotlib v3.8.4, https://matplotlib.org/</dc:title>
     </cc:Agent>
    </dc:creator>
   </cc:Work>
  </rdf:RDF>
 </metadata>
 <defs>
  <style type="text/css">*{stroke-linejoin: round; stroke-linecap: butt}</style>
 </defs>
 <g id="figure_1">
  <g id="patch_1">
   <path d="M 0 377.39625 
L 497.38125 377.39625 
L 497.38125 0 
L 0 0 
z
" style="fill: #ffffff"/>
  </g>
  <g id="axes_1">
   <g id="patch_2">
    <path d="M 43.78125 339.84 
L 490.18125 339.84 
L 490.18125 7.2 
L 43.78125 7.2 
z
" style="fill: #ffffff"/>
   </g>
   <g id="patch_3">
    <path d="M 55.679487 339.84 
L 123.160907 339.84 
L 123.160907 273.309304 
L 55.679487 273.309304 
L 55.679487 339.84 
z
" clip-path="url(#p6d1dc37efc)" style="fill: none; stroke-dasharray: 3.7,1.6; stroke-dashoffset: 0; stroke: #000000; stroke-linejoin: miter"/>
   </g>
   <g id="matplotlib.axis_1">
    <g id="xtick_1">
     <g id="line2d_1">
      <path d="M 123.160907 339.84 
L 123.160907 7.2 
" clip-path="url(#p6d1dc37efc)" style="fill: none; stroke: #b0b0b0; stroke-width: 0.8; stroke-linecap: square"/>
     </g>
     <g id="line2d_2">
      <defs>
       <path id="mfede30be33" d="M 0 0 
L 0 3.5 
" style="stroke: #000000; stroke-width: 0.8"/>
      </defs>
      <g>
       <use xlink:href="#mfede30be33" x="123.160907" y="339.84" style="stroke: #000000; stroke-width: 0.8"/>
      </g>
     </g>
     <g id="text_1">
      <!-- 0.0002 -->
      <g transform="translate(105.665594 354.438437) scale(0.1 -0.1)">
       <defs>
        <path id="DejaVuSans-30" d="M 2034 4250 
Q 1547 4250 1301 3770 
Q 1056 3291 1056 2328 
Q 1056 1369 1301 889 
Q 1547 409 2034 409 
Q 2525 409 2770 889 
Q 3016 1369 3016 2328 
Q 3016 3291 2770 3770 
Q 2525 4250 2034 4250 
z
M 2034 4750 
Q 2819 4750 3233 4129 
Q 3647 3509 3647 2328 
Q 3647 1150 3233 529 
Q 2819 -91 2034 -91 
Q 1250 -91 836 529 
Q 422 1150 422 2328 
Q 422 3509 836 4129 
Q 1250 4750 2034 4750 
z
" transform="scale(0.015625)"/>
        <path id="DejaVuSans-2e" d="M 684 794 
L 1344 794 
L 1344 0 
L 684 0 
L 684 794 
z
" transform="scale(0.015625)"/>
        <path id="DejaVuSans-32" d="M 1228 531 
L 3431 531 
L 3431 0 
L 469 0 
L 469 531 
Q 828 903 1448 1529 
Q 2069 2156 2228 2338 
Q 2531 2678 2651 2914 
Q 2772 3150 2772 3378 
Q 2772 3750 2511 3984 
Q 2250 4219 1831 4219 
Q 1534 4219 1204 4116 
Q 875 4013 500 3803 
L 500 4441 
Q 881 4594 1212 4672 
Q 1544 4750 1819 4750 
Q 2544 4750 2975 4387 
Q 3406 4025 3406 3419 
Q 3406 3131 3298 2873 
Q 3191 2616 2906 2266 
Q 2828 2175 2409 1742 
Q 1991 1309 1228 531 
z
" transform="scale(0.015625)"/>
       </defs>
       <use xlink:href="#DejaVuSans-30"/>
       <use xlink:href="#DejaVuSans-2e" x="63.623047"/>
       <use xlink:href="#DejaVuSans-30" x="95.410156"/>
       <use xlink:href="#DejaVuSans-30" x="159.033203"/>
       <use xlink:href="#DejaVuSans-30" x="222.65625"/>
       <use xlink:href="#DejaVuSans-32" x="286.279297"/>
      </g>
     </g>
    </g>
    <g id="xtick_2">
     <g id="line2d_3">
      <path d="M 202.550812 339.84 
L 202.550812 7.2 
" clip-path="url(#p6d1dc37efc)" style="fill: none; stroke: #b0b0b0; stroke-width: 0.8; stroke-linecap: square"/>
     </g>
     <g id="line2d_4">
      <g>
       <use xlink:href="#mfede30be33" x="202.550812" y="339.84" style="stroke: #000000; stroke-width: 0.8"/>
      </g>
     </g>
     <g id="text_2">
      <!-- 0.0004 -->
      <g transform="translate(185.0555 354.438437) scale(0.1 -0.1)">
       <defs>
        <path id="DejaVuSans-34" d="M 2419 4116 
L 825 1625 
L 2419 1625 
L 2419 4116 
z
M 2253 4666 
L 3047 4666 
L 3047 1625 
L 3713 1625 
L 3713 1100 
L 3047 1100 
L 3047 0 
L 2419 0 
L 2419 1100 
L 313 1100 
L 313 1709 
L 2253 4666 
z
" transform="scale(0.015625)"/>
       </defs>
       <use xlink:href="#DejaVuSans-30"/>
       <use xlink:href="#DejaVuSans-2e" x="63.623047"/>
       <use xlink:href="#DejaVuSans-30" x="95.410156"/>
       <use xlink:href="#DejaVuSans-30" x="159.033203"/>
       <use xlink:href="#DejaVuSans-30" x="222.65625"/>
       <use xlink:href="#DejaVuSans-34" x="286.279297"/>
      </g>
     </g>
    </g>
    <g id="xtick_3">
     <g id="line2d_5">
      <path d="M 281.940717 339.84 
L 281.940717 7.2 
" clip-path="url(#p6d1dc37efc)" style="fill: none; stroke: #b0b0b0; stroke-width: 0.8; stroke-linecap: square"/>
     </g>
     <g id="line2d_6">
      <g>
       <use xlink:href="#mfede30be33" x="281.940717" y="339.84" style="stroke: #000000; stroke-width: 0.8"/>
      </g>
     </g>
     <g id="text_3">
      <!-- 0.0006 -->
      <g transform="translate(264.445405 354.438437) scale(0.1 -0.1)">
       <defs>
        <path id="DejaVuSans-36" d="M 2113 2584 
Q 1688 2584 1439 2293 
Q 1191 2003 1191 1497 
Q 1191 994 1439 701 
Q 1688 409 2113 409 
Q 2538 409 2786 701 
Q 3034 994 3034 1497 
Q 3034 2003 2786 2293 
Q 2538 2584 2113 2584 
z
M 3366 4563 
L 3366 3988 
Q 3128 4100 2886 4159 
Q 2644 4219 2406 4219 
Q 1781 4219 1451 3797 
Q 1122 3375 1075 2522 
Q 1259 2794 1537 2939 
Q 1816 3084 2150 3084 
Q 2853 3084 3261 2657 
Q 3669 2231 3669 1497 
Q 3669 778 3244 343 
Q 2819 -91 2113 -91 
Q 1303 -91 875 529 
Q 447 1150 447 2328 
Q 447 3434 972 4092 
Q 1497 4750 2381 4750 
Q 2619 4750 2861 4703 
Q 3103 4656 3366 4563 
z
" transform="scale(0.015625)"/>
       </defs>
       <use xlink:href="#DejaVuSans-30"/>
       <use xlink:href="#DejaVuSans-2e" x="63.623047"/>
       <use xlink:href="#DejaVuSans-30" x="95.410156"/>
       <use xlink:href="#DejaVuSans-30" x="159.033203"/>
       <use xlink:href="#DejaVuSans-30" x="222.65625"/>
       <use xlink:href="#DejaVuSans-36" x="286.279297"/>
      </g>
     </g>
    </g>
    <g id="xtick_4">
     <g id="line2d_7">
      <path d="M 361.330622 339.84 
L 361.330622 7.2 
" clip-path="url(#p6d1dc37efc)" style="fill: none; stroke: #b0b0b0; stroke-width: 0.8; stroke-linecap: square"/>
     </g>
     <g id="line2d_8">
      <g>
       <use xlink:href="#mfede30be33" x="361.330622" y="339.84" style="stroke: #000000; stroke-width: 0.8"/>
      </g>
     </g>
     <g id="text_4">
      <!-- 0.0008 -->
      <g transform="translate(343.83531 354.438437) scale(0.1 -0.1)">
       <defs>
        <path id="DejaVuSans-38" d="M 2034 2216 
Q 1584 2216 1326 1975 
Q 1069 1734 1069 1313 
Q 1069 891 1326 650 
Q 1584 409 2034 409 
Q 2484 409 2743 651 
Q 3003 894 3003 1313 
Q 3003 1734 2745 1975 
Q 2488 2216 2034 2216 
z
M 1403 2484 
Q 997 2584 770 2862 
Q 544 3141 544 3541 
Q 544 4100 942 4425 
Q 1341 4750 2034 4750 
Q 2731 4750 3128 4425 
Q 3525 4100 3525 3541 
Q 3525 3141 3298 2862 
Q 3072 2584 2669 2484 
Q 3125 2378 3379 2068 
Q 3634 1759 3634 1313 
Q 3634 634 3220 271 
Q 2806 -91 2034 -91 
Q 1263 -91 848 271 
Q 434 634 434 1313 
Q 434 1759 690 2068 
Q 947 2378 1403 2484 
z
M 1172 3481 
Q 1172 3119 1398 2916 
Q 1625 2713 2034 2713 
Q 2441 2713 2670 2916 
Q 2900 3119 2900 3481 
Q 2900 3844 2670 4047 
Q 2441 4250 2034 4250 
Q 1625 4250 1398 4047 
Q 1172 3844 1172 3481 
z
" transform="scale(0.015625)"/>
       </defs>
       <use xlink:href="#DejaVuSans-30"/>
       <use xlink:href="#DejaVuSans-2e" x="63.623047"/>
       <use xlink:href="#DejaVuSans-30" x="95.410156"/>
       <use xlink:href="#DejaVuSans-30" x="159.033203"/>
       <use xlink:href="#DejaVuSans-30" x="222.65625"/>
       <use xlink:href="#DejaVuSans-38" x="286.279297"/>
      </g>
     </g>
    </g>
    <g id="xtick_5">
     <g id="line2d_9">
      <path d="M 440.720528 339.84 
L 440.720528 7.2 
" clip-path="url(#p6d1dc37efc)" style="fill: none; stroke: #b0b0b0; stroke-width: 0.8; stroke-linecap: square"/>
     </g>
     <g id="line2d_10">
      <g>
       <use xlink:href="#mfede30be33" x="440.720528" y="339.84" style="stroke: #000000; stroke-width: 0.8"/>
      </g>
     </g>
     <g id="text_5">
      <!-- 0.0010 -->
      <g transform="translate(423.225215 354.438437) scale(0.1 -0.1)">
       <defs>
        <path id="DejaVuSans-31" d="M 794 531 
L 1825 531 
L 1825 4091 
L 703 3866 
L 703 4441 
L 1819 4666 
L 2450 4666 
L 2450 531 
L 3481 531 
L 3481 0 
L 794 0 
L 794 531 
z
" transform="scale(0.015625)"/>
       </defs>
       <use xlink:href="#DejaVuSans-30"/>
       <use xlink:href="#DejaVuSans-2e" x="63.623047"/>
       <use xlink:href="#DejaVuSans-30" x="95.410156"/>
       <use xlink:href="#DejaVuSans-30" x="159.033203"/>
       <use xlink:href="#DejaVuSans-31" x="222.65625"/>
       <use xlink:href="#DejaVuSans-30" x="286.279297"/>
      </g>
     </g>
    </g>
    <g id="text_6">
     <!-- P_pos -->
     <g transform="translate(252.628125 367.838437) scale(0.1 -0.1)">
      <defs>
       <path id="DejaVuSans-50" d="M 1259 4147 
L 1259 2394 
L 2053 2394 
Q 2494 2394 2734 2622 
Q 2975 2850 2975 3272 
Q 2975 3691 2734 3919 
Q 2494 4147 2053 4147 
L 1259 4147 
z
M 628 4666 
L 2053 4666 
Q 2838 4666 3239 4311 
Q 3641 3956 3641 3272 
Q 3641 2581 3239 2228 
Q 2838 1875 2053 1875 
L 1259 1875 
L 1259 0 
L 628 0 
L 628 4666 
z
" transform="scale(0.015625)"/>
       <path id="DejaVuSans-5f" d="M 3263 -1063 
L 3263 -1509 
L -63 -1509 
L -63 -1063 
L 3263 -1063 
z
" transform="scale(0.015625)"/>
       <path id="DejaVuSans-70" d="M 1159 525 
L 1159 -1331 
L 581 -1331 
L 581 3500 
L 1159 3500 
L 1159 2969 
Q 1341 3281 1617 3432 
Q 1894 3584 2278 3584 
Q 2916 3584 3314 3078 
Q 3713 2572 3713 1747 
Q 3713 922 3314 415 
Q 2916 -91 2278 -91 
Q 1894 -91 1617 61 
Q 1341 213 1159 525 
z
M 3116 1747 
Q 3116 2381 2855 2742 
Q 2594 3103 2138 3103 
Q 1681 3103 1420 2742 
Q 1159 2381 1159 1747 
Q 1159 1113 1420 752 
Q 1681 391 2138 391 
Q 2594 391 2855 752 
Q 3116 1113 3116 1747 
z
" transform="scale(0.015625)"/>
       <path id="DejaVuSans-6f" d="M 1959 3097 
Q 1497 3097 1228 2736 
Q 959 2375 959 1747 
Q 959 1119 1226 758 
Q 1494 397 1959 397 
Q 2419 397 2687 759 
Q 2956 1122 2956 1747 
Q 2956 2369 2687 2733 
Q 2419 3097 1959 3097 
z
M 1959 3584 
Q 2709 3584 3137 3096 
Q 3566 2609 3566 1747 
Q 3566 888 3137 398 
Q 2709 -91 1959 -91 
Q 1206 -91 779 398 
Q 353 888 353 1747 
Q 353 2609 779 3096 
Q 1206 3584 1959 3584 
z
" transform="scale(0.015625)"/>
       <path id="DejaVuSans-73" d="M 2834 3397 
L 2834 2853 
Q 2591 2978 2328 3040 
Q 2066 3103 1784 3103 
Q 1356 3103 1142 2972 
Q 928 2841 928 2578 
Q 928 2378 1081 2264 
Q 1234 2150 1697 2047 
L 1894 2003 
Q 2506 1872 2764 1633 
Q 3022 1394 3022 966 
Q 3022 478 2636 193 
Q 2250 -91 1575 -91 
Q 1294 -91 989 -36 
Q 684 19 347 128 
L 347 722 
Q 666 556 975 473 
Q 1284 391 1588 391 
Q 1994 391 2212 530 
Q 2431 669 2431 922 
Q 2431 1156 2273 1281 
Q 2116 1406 1581 1522 
L 1381 1569 
Q 847 1681 609 1914 
Q 372 2147 372 2553 
Q 372 3047 722 3315 
Q 1072 3584 1716 3584 
Q 2034 3584 2315 3537 
Q 2597 3491 2834 3397 
z
" transform="scale(0.015625)"/>
      </defs>
      <use xlink:href="#DejaVuSans-50"/>
      <use xlink:href="#DejaVuSans-5f" x="60.302734"/>
      <use xlink:href="#DejaVuSans-70" x="110.302734"/>
      <use xlink:href="#DejaVuSans-6f" x="173.779297"/>
      <use xlink:href="#DejaVuSans-73" x="234.960938"/>
     </g>
    </g>
   </g>
   <g id="matplotlib.axis_2">
    <g id="ytick_1">
     <g id="line2d_11">
      <path d="M 43.78125 339.84 
L 490.18125 339.84 
" clip-path="url(#p6d1dc37efc)" style="fill: none; stroke: #b0b0b0; stroke-width: 0.8; stroke-linecap: square"/>
     </g>
     <g id="line2d_12">
      <defs>
       <path id="me2183f84cf" d="M 0 0 
L -3.5 0 
" style="stroke: #000000; stroke-width: 0.8"/>
      </defs>
      <g>
       <use xlink:href="#me2183f84cf" x="43.78125" y="339.84" style="stroke: #000000; stroke-width: 0.8"/>
      </g>
     </g>
     <g id="text_7">
      <!-- 0.0 -->
      <g transform="translate(20.878125 343.639219) scale(0.1 -0.1)">
       <use xlink:href="#DejaVuSans-30"/>
       <use xlink:href="#DejaVuSans-2e" x="63.623047"/>
       <use xlink:href="#DejaVuSans-30" x="95.410156"/>
      </g>
     </g>
    </g>
    <g id="ytick_2">
     <g id="line2d_13">
      <path d="M 43.78125 273.309304 
L 490.18125 273.309304 
" clip-path="url(#p6d1dc37efc)" style="fill: none; stroke: #b0b0b0; stroke-width: 0.8; stroke-linecap: square"/>
     </g>
     <g id="line2d_14">
      <g>
       <use xlink:href="#me2183f84cf" x="43.78125" y="273.309304" style="stroke: #000000; stroke-width: 0.8"/>
      </g>
     </g>
     <g id="text_8">
      <!-- 0.2 -->
      <g transform="translate(20.878125 277.108523) scale(0.1 -0.1)">
       <use xlink:href="#DejaVuSans-30"/>
       <use xlink:href="#DejaVuSans-2e" x="63.623047"/>
       <use xlink:href="#DejaVuSans-32" x="95.410156"/>
      </g>
     </g>
    </g>
    <g id="ytick_3">
     <g id="line2d_15">
      <path d="M 43.78125 206.778609 
L 490.18125 206.778609 
" clip-path="url(#p6d1dc37efc)" style="fill: none; stroke: #b0b0b0; stroke-width: 0.8; stroke-linecap: square"/>
     </g>
     <g id="line2d_16">
      <g>
       <use xlink:href="#me2183f84cf" x="43.78125" y="206.778609" style="stroke: #000000; stroke-width: 0.8"/>
      </g>
     </g>
     <g id="text_9">
      <!-- 0.4 -->
      <g transform="translate(20.878125 210.577828) scale(0.1 -0.1)">
       <use xlink:href="#DejaVuSans-30"/>
       <use xlink:href="#DejaVuSans-2e" x="63.623047"/>
       <use xlink:href="#DejaVuSans-34" x="95.410156"/>
      </g>
     </g>
    </g>
    <g id="ytick_4">
     <g id="line2d_17">
      <path d="M 43.78125 140.247913 
L 490.18125 140.247913 
" clip-path="url(#p6d1dc37efc)" style="fill: none; stroke: #b0b0b0; stroke-width: 0.8; stroke-linecap: square"/>
     </g>
     <g id="line2d_18">
      <g>
       <use xlink:href="#me2183f84cf" x="43.78125" y="140.247913" style="stroke: #000000; stroke-width: 0.8"/>
      </g>
     </g>
     <g id="text_10">
      <!-- 0.6 -->
      <g transform="translate(20.878125 144.047132) scale(0.1 -0.1)">
       <use xlink:href="#DejaVuSans-30"/>
       <use xlink:href="#DejaVuSans-2e" x="63.623047"/>
       <use xlink:href="#DejaVuSans-36" x="95.410156"/>
      </g>
     </g>
    </g>
    <g id="ytick_5">
     <g id="line2d_19">
      <path d="M 43.78125 73.717218 
L 490.18125 73.717218 
" clip-path="url(#p6d1dc37efc)" style="fill: none; stroke: #b0b0b0; stroke-width: 0.8; stroke-linecap: square"/>
     </g>
     <g id="line2d_20">
      <g>
       <use xlink:href="#me2183f84cf" x="43.78125" y="73.717218" style="stroke: #000000; stroke-width: 0.8"/>
      </g>
     </g>
     <g id="text_11">
      <!-- 0.8 -->
      <g transform="translate(20.878125 77.516436) scale(0.1 -0.1)">
       <use xlink:href="#DejaVuSans-30"/>
       <use xlink:href="#DejaVuSans-2e" x="63.623047"/>
       <use xlink:href="#DejaVuSans-38" x="95.410156"/>
      </g>
     </g>
    </g>
    <g id="text_12">
     <!-- CCDF -->
     <g transform="translate(14.798438 187.228594) rotate(-90) scale(0.1 -0.1)">
      <defs>
       <path id="DejaVuSans-43" d="M 4122 4306 
L 4122 3641 
Q 3803 3938 3442 4084 
Q 3081 4231 2675 4231 
Q 1875 4231 1450 3742 
Q 1025 3253 1025 2328 
Q 1025 1406 1450 917 
Q 1875 428 2675 428 
Q 3081 428 3442 575 
Q 3803 722 4122 1019 
L 4122 359 
Q 3791 134 3420 21 
Q 3050 -91 2638 -91 
Q 1578 -91 968 557 
Q 359 1206 359 2328 
Q 359 3453 968 4101 
Q 1578 4750 2638 4750 
Q 3056 4750 3426 4639 
Q 3797 4528 4122 4306 
z
" transform="scale(0.015625)"/>
       <path id="DejaVuSans-44" d="M 1259 4147 
L 1259 519 
L 2022 519 
Q 2988 519 3436 956 
Q 3884 1394 3884 2338 
Q 3884 3275 3436 3711 
Q 2988 4147 2022 4147 
L 1259 4147 
z
M 628 4666 
L 1925 4666 
Q 3281 4666 3915 4102 
Q 4550 3538 4550 2338 
Q 4550 1131 3912 565 
Q 3275 0 1925 0 
L 628 0 
L 628 4666 
z
" transform="scale(0.015625)"/>
       <path id="DejaVuSans-46" d="M 628 4666 
L 3309 4666 
L 3309 4134 
L 1259 4134 
L 1259 2759 
L 3109 2759 
L 3109 2228 
L 1259 2228 
L 1259 0 
L 628 0 
L 628 4666 
z
" transform="scale(0.015625)"/>
      </defs>
      <use xlink:href="#DejaVuSans-43"/>
      <use xlink:href="#DejaVuSans-43" x="69.824219"/>
      <use xlink:href="#DejaVuSans-44" x="139.648438"/>
      <use xlink:href="#DejaVuSans-46" x="216.650391"/>
     </g>
    </g>
   </g>
   <g id="line2d_21">
    <path d="M 46.47306 7.2 
L 47.446853 7.348259 
L 47.882367 7.6313 
L 48.290658 8.210859 
L 48.685905 9.181284 
L 49.134118 10.946917 
L 49.614205 13.736888 
L 50.202886 18.508143 
L 50.866635 25.948065 
L 51.667297 37.647073 
L 52.339974 51.057802 
L 53.150684 72.4341 
L 54.253778 101.277277 
L 56.00176 140.094263 
L 57.838812 195.448901 
L 58.669897 208.994412 
L 59.86696 225.235546 
L 61.010556 237.797154 
L 62.568483 251.962658 
L 65.570856 277.058917 
L 66.95547 286.331864 
L 68.620407 295.577854 
L 69.854172 301.225186 
L 71.387135 307.182515 
L 72.948559 311.967248 
L 74.373891 315.592862 
L 76.199761 319.40717 
L 77.54511 321.711929 
L 79.647523 324.798418 
L 81.403123 326.901005 
L 83.864567 329.461848 
L 86.841482 331.820519 
L 88.847014 333.087462 
L 91.869442 334.597011 
L 96.508175 336.564817 
L 98.749652 337.306113 
L 102.232333 338.182191 
L 107.209616 339.287397 
L 110.294669 339.84 
L 110.294669 339.84 
" clip-path="url(#p6d1dc37efc)" style="fill: none; stroke: #1f77b4; stroke-width: 1.5; stroke-linecap: square"/>
   </g>
   <g id="line2d_22">
    <path d="M 44.867765 7.2 
L 45.341069 7.361737 
L 45.627243 7.69869 
L 45.925441 8.426509 
L 46.259475 9.895624 
L 46.680205 12.779942 
L 47.268833 18.45423 
L 48.047963 28.468473 
L 48.969855 43.563968 
L 49.82642 61.718995 
L 51.155983 96.60037 
L 52.821123 137.169511 
L 55.044292 191.324596 
L 55.969494 206.972694 
L 56.976675 220.140817 
L 58.076929 231.678088 
L 59.25458 241.678853 
L 60.562269 250.924843 
L 62.072251 260.170833 
L 63.806552 269.497692 
L 65.539775 277.557608 
L 67.091691 283.730587 
L 68.719259 289.283572 
L 70.496944 294.445692 
L 72.335492 299.028253 
L 73.791327 302.222567 
L 75.42157 305.376447 
L 77.625818 309.042496 
L 79.425555 311.603339 
L 81.592807 314.272006 
L 84.024289 316.846327 
L 86.11184 318.773699 
L 88.617643 320.795417 
L 92.116264 323.181044 
L 96.149532 325.472324 
L 98.902974 326.79318 
L 103.131067 328.558814 
L 106.820185 329.866191 
L 110.814999 331.065744 
L 116.683525 332.548337 
L 121.946641 333.640065 
L 130.204259 335.055267 
L 138.856254 336.25482 
L 147.835 337.279157 
L 157.858341 338.209147 
L 170.903189 339.19305 
L 181.394681 339.84 
L 181.394681 339.84 
" clip-path="url(#p6d1dc37efc)" style="fill: none; stroke: #ff7f0e; stroke-width: 1.5; stroke-linecap: square"/>
   </g>
   <g id="line2d_23">
    <path d="M 44.370792 7.2 
L 44.715664 7.375216 
L 44.959255 7.793037 
L 45.236088 8.77694 
L 45.587694 10.987352 
L 46.028966 15.219481 
L 46.683199 23.926347 
L 47.55636 38.806191 
L 48.50738 58.834677 
L 49.419516 82.9066 
L 51.980993 152.736739 
L 53.540851 187.901154 
L 54.470316 204.236635 
L 55.496509 218.388661 
L 56.618157 230.58636 
L 57.764769 240.627559 
L 58.987709 249.469206 
L 60.399848 257.960421 
L 61.854065 265.386865 
L 63.265343 271.667669 
L 64.857737 277.840648 
L 66.212378 282.450165 
L 67.733828 287.00577 
L 69.418408 291.399637 
L 71.154356 295.348726 
L 72.590141 298.246522 
L 74.679514 301.953005 
L 76.7566 305.160797 
L 78.792392 307.910334 
L 81.223272 310.754217 
L 83.36575 312.951151 
L 85.800545 315.148084 
L 88.041903 316.927196 
L 90.653677 318.76022 
L 94.040456 320.835851 
L 97.943639 322.884525 
L 102.465236 324.879287 
L 107.190294 326.631442 
L 111.433695 327.979254 
L 117.615665 329.637063 
L 122.645987 330.782703 
L 129.095438 332.036169 
L 136.62484 333.262677 
L 145.859734 334.502665 
L 153.788538 335.39222 
L 164.617047 336.416558 
L 176.756725 337.373504 
L 194.342243 338.492188 
L 213.793761 339.462613 
L 222.787498 339.84 
L 222.787498 339.84 
" clip-path="url(#p6d1dc37efc)" style="fill: none; stroke: #2ca02c; stroke-width: 1.5; stroke-linecap: square"/>
   </g>
   <g id="line2d_24">
    <path d="M 43.9141 7.2 
L 44.05931 7.388694 
L 44.230978 8.089556 
L 44.492417 10.313446 
L 44.858293 15.623825 
L 45.441731 27.578917 
L 46.518089 55.114716 
L 47.569058 87.286989 
L 49.497716 147.817225 
L 50.642913 175.851715 
L 51.686209 196.540629 
L 52.695777 212.242639 
L 53.816834 225.801627 
L 55.018744 237.204117 
L 56.216806 246.342282 
L 57.636207 255.156972 
L 58.882857 261.599514 
L 60.383807 268.163358 
L 61.800152 273.446781 
L 63.321335 278.366295 
L 64.786413 282.504078 
L 66.984035 287.827935 
L 68.731828 291.467028 
L 70.971167 295.510464 
L 72.849893 298.462172 
L 75.186792 301.683442 
L 77.25591 304.190373 
L 79.513327 306.616434 
L 82.465517 309.392927 
L 85.252352 311.670729 
L 88.104233 313.719404 
L 91.584338 315.902859 
L 95.630651 318.086314 
L 99.253692 319.784558 
L 102.597429 321.172804 
L 106.901406 322.749744 
L 112.967132 324.650159 
L 118.929525 326.227099 
L 125.0631 327.615345 
L 133.962664 329.30011 
L 143.12715 330.728791 
L 152.80444 331.982256 
L 162.81535 333.073984 
L 172.845645 334.003974 
L 186.899949 335.095702 
L 201.499727 336.025692 
L 218.888848 336.942204 
L 238.053003 337.76437 
L 263.204337 338.640447 
L 298.081309 339.570438 
L 310.089563 339.84 
L 310.089563 339.84 
" clip-path="url(#p6d1dc37efc)" style="fill: none; stroke: #d62728; stroke-width: 1.5; stroke-linecap: square"/>
   </g>
   <g id="line2d_25">
    <path d="M 43.78125 7.2 
L 43.82621 7.833472 
L 43.986918 13.912104 
L 45.840953 107.558081 
L 46.843664 151.793271 
L 47.659906 178.196908 
L 48.70049 202.444045 
L 49.531951 216.528681 
L 50.517666 229.265504 
L 51.593009 239.926697 
L 52.779515 249.159209 
L 53.882884 256.113919 
L 55.267283 263.284279 
L 56.703486 269.389867 
L 58.081548 274.322859 
L 59.510463 278.703248 
L 61.432357 283.690152 
L 63.380341 287.93576 
L 65.378626 291.642243 
L 67.185886 294.553517 
L 69.489801 297.788266 
L 71.639124 300.403021 
L 73.99432 302.923429 
L 76.071378 304.891235 
L 78.935897 307.29034 
L 81.666196 309.29858 
L 84.51129 311.145083 
L 87.764773 313.018541 
L 91.99533 315.134606 
L 95.774662 316.778937 
L 100.312132 318.504136 
L 104.563245 319.919339 
L 110.881387 321.738885 
L 115.866607 322.978872 
L 123.200086 324.555812 
L 130.685229 325.93058 
L 139.295154 327.278392 
L 148.38832 328.491423 
L 159.872217 329.785323 
L 172.989049 331.011831 
L 188.140483 332.184428 
L 203.399265 333.168331 
L 222.580414 334.192668 
L 247.242871 335.257439 
L 274.491445 336.187429 
L 304.78745 337.023073 
L 346.477149 337.926107 
L 396.329768 338.748272 
L 444.780599 339.368266 
L 490.18125 339.84 
L 490.18125 339.84 
" clip-path="url(#p6d1dc37efc)" style="fill: none; stroke: #9467bd; stroke-width: 1.5; stroke-linecap: square"/>
   </g>
   <g id="patch_4">
    <path d="M 43.78125 339.84 
L 43.78125 7.2 
" style="fill: none; stroke: #000000; stroke-width: 0.8; stroke-linejoin: miter; stroke-linecap: square"/>
   </g>
   <g id="patch_5">
    <path d="M 490.18125 339.84 
L 490.18125 7.2 
" style="fill: none; stroke: #000000; stroke-width: 0.8; stroke-linejoin: miter; stroke-linecap: square"/>
   </g>
   <g id="patch_6">
    <path d="M 43.78125 339.84 
L 490.18125 339.84 
" style="fill: none; stroke: #000000; stroke-width: 0.8; stroke-linejoin: miter; stroke-linecap: square"/>
   </g>
   <g id="patch_7">
    <path d="M 43.78125 7.2 
L 490.18125 7.2 
" style="fill: none; stroke: #000000; stroke-width: 0.8; stroke-linejoin: miter; stroke-linecap: square"/>
   </g>
   <g id="legend_1">
    <g id="patch_8">
     <path d="M 398.459375 88.590625 
L 483.18125 88.590625 
Q 485.18125 88.590625 485.18125 86.590625 
L 485.18125 14.2 
Q 485.18125 12.2 483.18125 12.2 
L 398.459375 12.2 
Q 396.459375 12.2 396.459375 14.2 
L 396.459375 86.590625 
Q 396.459375 88.590625 398.459375 88.590625 
z
" style="fill: #ffffff; opacity: 0.8; stroke: #cccccc; stroke-linejoin: miter"/>
    </g>
    <g id="line2d_26">
     <path d="M 400.459375 20.298437 
L 410.459375 20.298437 
L 420.459375 20.298437 
" style="fill: none; stroke: #1f77b4; stroke-width: 1.5; stroke-linecap: square"/>
    </g>
    <g id="text_13">
     <!-- epoch 10 -->
     <g transform="translate(428.459375 23.798437) scale(0.1 -0.1)">
      <defs>
       <path id="DejaVuSans-65" d="M 3597 1894 
L 3597 1613 
L 953 1613 
Q 991 1019 1311 708 
Q 1631 397 2203 397 
Q 2534 397 2845 478 
Q 3156 559 3463 722 
L 3463 178 
Q 3153 47 2828 -22 
Q 2503 -91 2169 -91 
Q 1331 -91 842 396 
Q 353 884 353 1716 
Q 353 2575 817 3079 
Q 1281 3584 2069 3584 
Q 2775 3584 3186 3129 
Q 3597 2675 3597 1894 
z
M 3022 2063 
Q 3016 2534 2758 2815 
Q 2500 3097 2075 3097 
Q 1594 3097 1305 2825 
Q 1016 2553 972 2059 
L 3022 2063 
z
" transform="scale(0.015625)"/>
       <path id="DejaVuSans-63" d="M 3122 3366 
L 3122 2828 
Q 2878 2963 2633 3030 
Q 2388 3097 2138 3097 
Q 1578 3097 1268 2742 
Q 959 2388 959 1747 
Q 959 1106 1268 751 
Q 1578 397 2138 397 
Q 2388 397 2633 464 
Q 2878 531 3122 666 
L 3122 134 
Q 2881 22 2623 -34 
Q 2366 -91 2075 -91 
Q 1284 -91 818 406 
Q 353 903 353 1747 
Q 353 2603 823 3093 
Q 1294 3584 2113 3584 
Q 2378 3584 2631 3529 
Q 2884 3475 3122 3366 
z
" transform="scale(0.015625)"/>
       <path id="DejaVuSans-68" d="M 3513 2113 
L 3513 0 
L 2938 0 
L 2938 2094 
Q 2938 2591 2744 2837 
Q 2550 3084 2163 3084 
Q 1697 3084 1428 2787 
Q 1159 2491 1159 1978 
L 1159 0 
L 581 0 
L 581 4863 
L 1159 4863 
L 1159 2956 
Q 1366 3272 1645 3428 
Q 1925 3584 2291 3584 
Q 2894 3584 3203 3211 
Q 3513 2838 3513 2113 
z
" transform="scale(0.015625)"/>
       <path id="DejaVuSans-20" transform="scale(0.015625)"/>
      </defs>
      <use xlink:href="#DejaVuSans-65"/>
      <use xlink:href="#DejaVuSans-70" x="61.523438"/>
      <use xlink:href="#DejaVuSans-6f" x="125"/>
      <use xlink:href="#DejaVuSans-63" x="186.181641"/>
      <use xlink:href="#DejaVuSans-68" x="241.162109"/>
      <use xlink:href="#DejaVuSans-20" x="304.541016"/>
      <use xlink:href="#DejaVuSans-31" x="336.328125"/>
      <use xlink:href="#DejaVuSans-30" x="399.951172"/>
     </g>
    </g>
    <g id="line2d_27">
     <path d="M 400.459375 34.976562 
L 410.459375 34.976562 
L 420.459375 34.976562 
" style="fill: none; stroke: #ff7f0e; stroke-width: 1.5; stroke-linecap: square"/>
    </g>
    <g id="text_14">
     <!-- epoch 30 -->
     <g transform="translate(428.459375 38.476562) scale(0.1 -0.1)">
      <defs>
       <path id="DejaVuSans-33" d="M 2597 2516 
Q 3050 2419 3304 2112 
Q 3559 1806 3559 1356 
Q 3559 666 3084 287 
Q 2609 -91 1734 -91 
Q 1441 -91 1130 -33 
Q 819 25 488 141 
L 488 750 
Q 750 597 1062 519 
Q 1375 441 1716 441 
Q 2309 441 2620 675 
Q 2931 909 2931 1356 
Q 2931 1769 2642 2001 
Q 2353 2234 1838 2234 
L 1294 2234 
L 1294 2753 
L 1863 2753 
Q 2328 2753 2575 2939 
Q 2822 3125 2822 3475 
Q 2822 3834 2567 4026 
Q 2313 4219 1838 4219 
Q 1578 4219 1281 4162 
Q 984 4106 628 3988 
L 628 4550 
Q 988 4650 1302 4700 
Q 1616 4750 1894 4750 
Q 2613 4750 3031 4423 
Q 3450 4097 3450 3541 
Q 3450 3153 3228 2886 
Q 3006 2619 2597 2516 
z
" transform="scale(0.015625)"/>
      </defs>
      <use xlink:href="#DejaVuSans-65"/>
      <use xlink:href="#DejaVuSans-70" x="61.523438"/>
      <use xlink:href="#DejaVuSans-6f" x="125"/>
      <use xlink:href="#DejaVuSans-63" x="186.181641"/>
      <use xlink:href="#DejaVuSans-68" x="241.162109"/>
      <use xlink:href="#DejaVuSans-20" x="304.541016"/>
      <use xlink:href="#DejaVuSans-33" x="336.328125"/>
      <use xlink:href="#DejaVuSans-30" x="399.951172"/>
     </g>
    </g>
    <g id="line2d_28">
     <path d="M 400.459375 49.654687 
L 410.459375 49.654687 
L 420.459375 49.654687 
" style="fill: none; stroke: #2ca02c; stroke-width: 1.5; stroke-linecap: square"/>
    </g>
    <g id="text_15">
     <!-- epoch 50 -->
     <g transform="translate(428.459375 53.154687) scale(0.1 -0.1)">
      <defs>
       <path id="DejaVuSans-35" d="M 691 4666 
L 3169 4666 
L 3169 4134 
L 1269 4134 
L 1269 2991 
Q 1406 3038 1543 3061 
Q 1681 3084 1819 3084 
Q 2600 3084 3056 2656 
Q 3513 2228 3513 1497 
Q 3513 744 3044 326 
Q 2575 -91 1722 -91 
Q 1428 -91 1123 -41 
Q 819 9 494 109 
L 494 744 
Q 775 591 1075 516 
Q 1375 441 1709 441 
Q 2250 441 2565 725 
Q 2881 1009 2881 1497 
Q 2881 1984 2565 2268 
Q 2250 2553 1709 2553 
Q 1456 2553 1204 2497 
Q 953 2441 691 2322 
L 691 4666 
z
" transform="scale(0.015625)"/>
      </defs>
      <use xlink:href="#DejaVuSans-65"/>
      <use xlink:href="#DejaVuSans-70" x="61.523438"/>
      <use xlink:href="#DejaVuSans-6f" x="125"/>
      <use xlink:href="#DejaVuSans-63" x="186.181641"/>
      <use xlink:href="#DejaVuSans-68" x="241.162109"/>
      <use xlink:href="#DejaVuSans-20" x="304.541016"/>
      <use xlink:href="#DejaVuSans-35" x="336.328125"/>
      <use xlink:href="#DejaVuSans-30" x="399.951172"/>
     </g>
    </g>
    <g id="line2d_29">
     <path d="M 400.459375 64.332812 
L 410.459375 64.332812 
L 420.459375 64.332812 
" style="fill: none; stroke: #d62728; stroke-width: 1.5; stroke-linecap: square"/>
    </g>
    <g id="text_16">
     <!-- epoch 100 -->
     <g transform="translate(428.459375 67.832812) scale(0.1 -0.1)">
      <use xlink:href="#DejaVuSans-65"/>
      <use xlink:href="#DejaVuSans-70" x="61.523438"/>
      <use xlink:href="#DejaVuSans-6f" x="125"/>
      <use xlink:href="#DejaVuSans-63" x="186.181641"/>
      <use xlink:href="#DejaVuSans-68" x="241.162109"/>
      <use xlink:href="#DejaVuSans-20" x="304.541016"/>
      <use xlink:href="#DejaVuSans-31" x="336.328125"/>
      <use xlink:href="#DejaVuSans-30" x="399.951172"/>
      <use xlink:href="#DejaVuSans-30" x="463.574219"/>
     </g>
    </g>
    <g id="line2d_30">
     <path d="M 400.459375 79.010938 
L 410.459375 79.010938 
L 420.459375 79.010938 
" style="fill: none; stroke: #9467bd; stroke-width: 1.5; stroke-linecap: square"/>
    </g>
    <g id="text_17">
     <!-- epoch 200 -->
     <g transform="translate(428.459375 82.510938) scale(0.1 -0.1)">
      <use xlink:href="#DejaVuSans-65"/>
      <use xlink:href="#DejaVuSans-70" x="61.523438"/>
      <use xlink:href="#DejaVuSans-6f" x="125"/>
      <use xlink:href="#DejaVuSans-63" x="186.181641"/>
      <use xlink:href="#DejaVuSans-68" x="241.162109"/>
      <use xlink:href="#DejaVuSans-20" x="304.541016"/>
      <use xlink:href="#DejaVuSans-32" x="336.328125"/>
      <use xlink:href="#DejaVuSans-30" x="399.951172"/>
      <use xlink:href="#DejaVuSans-30" x="463.574219"/>
     </g>
    </g>
   </g>
  </g>
  <g id="axes_2">
   <g id="patch_9">
    <path d="M 328.94125 223.416 
L 485.18125 223.416 
L 485.18125 123.624 
L 328.94125 123.624 
z
" style="fill: #ffffff"/>
   </g>
   <g id="patch_10">
    <path d="M 328.94125 123.624 
L 55.679487 273.309304 
" style="fill: none; stroke-dasharray: 3.7,1.6; stroke-dashoffset: 0; stroke: #000000; stroke-linejoin: miter"/>
   </g>
   <g id="patch_11">
    <path d="M 485.18125 223.416 
L 123.160907 339.84 
" style="fill: none; stroke-dasharray: 3.7,1.6; stroke-dashoffset: 0; stroke: #000000; stroke-linejoin: miter"/>
   </g>
   <g id="matplotlib.axis_3"/>
   <g id="matplotlib.axis_4"/>
   <g id="line2d_31">
    <path d="M 333.316972 -1 
L 334.300131 10.982481 
L 335.781295 26.346915 
L 337.878074 45.370511 
L 339.69126 59.501747 
L 341.726004 73.14779 
L 343.391603 83.013374 
L 349.452927 117.138591 
L 352.195611 130.905933 
L 354.496692 140.973681 
L 357.141528 151.000996 
L 359.615616 159.269487 
L 361.402786 164.525741 
L 364.27716 172.026011 
L 365.87381 175.664956 
L 368.41204 180.69883 
L 370.7389 184.721885 
L 374.029008 189.614245 
L 376.75067 193.131892 
L 378.712519 195.355691 
L 383.177317 199.783074 
L 388.222924 203.80613 
L 393.361448 207.343993 
L 395.238879 208.41546 
L 400.039914 210.902073 
L 403.568227 212.438516 
L 406.886594 213.69193 
L 413.507933 215.774216 
L 422.700337 218.321477 
L 429.216904 219.716406 
L 435.479618 220.727224 
L 447.522055 222.506264 
L 452.687882 223.132971 
L 455.391998 223.416 
L 455.391998 223.416 
" clip-path="url(#p4a575641ca)" style="fill: none; stroke: #1f77b4; stroke-width: 1.5; stroke-linecap: square"/>
   </g>
   <g id="line2d_32">
    <path d="M 328.939867 17.4315 
L 330.26892 30.167807 
L 331.596229 41.20594 
L 333.351565 53.881599 
L 334.920895 63.747183 
L 336.391393 71.934809 
L 338.426886 81.98234 
L 340.581746 91.463813 
L 343.240239 102.03697 
L 346.178996 112.630343 
L 349.447417 123.243932 
L 351.807204 130.097279 
L 354.434319 136.991058 
L 357.057237 143.157048 
L 359.717868 148.75698 
L 362.077307 153.245012 
L 364.866475 158.056506 
L 368.089906 163.070163 
L 370.18948 166.062185 
L 372.899681 169.600048 
L 376.425894 173.744402 
L 379.919849 177.383347 
L 382.563728 179.869959 
L 386.527801 183.225875 
L 390.113963 185.914651 
L 395.048118 189.230134 
L 399.802017 192.040208 
L 404.538683 194.52682 
L 409.151351 196.669755 
L 414.887836 199.055285 
L 421.440085 201.461032 
L 426.110122 202.977259 
L 432.790267 204.91803 
L 438.483179 206.414041 
L 446.585496 208.294162 
L 455.822897 210.113635 
L 467.237301 212.034189 
L 475.956711 213.287603 
L 485.236815 214.460152 
L 485.236815 214.460152 
" clip-path="url(#p4a575641ca)" style="fill: none; stroke: #ff7f0e; stroke-width: 1.5; stroke-linecap: square"/>
   </g>
   <g id="line2d_33">
    <path d="M 328.939487 44.521424 
L 330.539982 55.842586 
L 332.328402 66.799853 
L 334.281741 77.191063 
L 336.323597 86.672536 
L 337.909721 93.242853 
L 340.445671 102.623244 
L 342.749615 110.224596 
L 345.347668 117.967462 
L 347.545689 123.911072 
L 350.114288 130.238793 
L 352.220968 134.989638 
L 354.948378 140.58957 
L 357.859728 145.967122 
L 360.406184 150.212558 
L 364.073092 155.711408 
L 367.351958 160.098358 
L 370.524561 163.91925 
L 373.617762 167.315599 
L 377.719688 171.379087 
L 380.932747 174.249811 
L 385.282087 177.747241 
L 389.390681 180.69883 
L 393.596109 183.428038 
L 397.226138 185.570973 
L 402.68035 188.461912 
L 408.792786 191.312419 
L 416.4564 194.425739 
L 421.626413 196.285644 
L 428.967304 198.650958 
L 435.889707 200.611945 
L 442.00635 202.168605 
L 450.160879 204.02851 
L 459.859056 205.969281 
L 468.476194 207.485508 
L 478.293133 209.021951 
L 485.326742 210.012553 
L 485.326742 210.012553 
" clip-path="url(#p4a575641ca)" style="fill: none; stroke: #2ca02c; stroke-width: 1.5; stroke-linecap: square"/>
   </g>
   <g id="line2d_34">
    <path d="M 328.938824 77.352793 
L 330.832857 86.005396 
L 332.376512 92.292684 
L 334.279829 99.267329 
L 336.720539 107.171926 
L 339.35507 114.651979 
L 341.462164 119.989098 
L 344.056535 125.912492 
L 346.853099 131.633722 
L 349.722378 136.889976 
L 351.979763 140.650219 
L 354.199862 144.066784 
L 357.968025 149.323038 
L 360.265054 152.234194 
L 363.259273 155.731624 
L 367.554381 160.239873 
L 371.020799 163.514923 
L 374.794218 166.749541 
L 378.408553 169.579831 
L 382.313921 172.369689 
L 385.823135 174.674354 
L 389.929682 177.160967 
L 395.8806 180.395584 
L 401.348814 183.043928 
L 406.614973 185.348593 
L 413.588559 188.077801 
L 421.753346 190.887876 
L 429.329006 193.192541 
L 437.413562 195.375908 
L 444.671065 197.134731 
L 453.119998 198.97442 
L 462.782747 200.854541 
L 475.638354 203.037908 
L 485.208622 204.47327 
L 485.208622 204.47327 
" clip-path="url(#p4a575641ca)" style="fill: none; stroke: #d62728; stroke-width: 1.5; stroke-linecap: square"/>
   </g>
   <g id="line2d_35">
    <path d="M 328.934734 111.376929 
L 330.898022 116.693832 
L 333.353828 122.617225 
L 335.798354 127.833046 
L 338.076047 132.19978 
L 340.36 136.162187 
L 343.611309 141.216277 
L 346.169487 144.774357 
L 349.645945 149.120874 
L 353.015728 152.881117 
L 356.670092 156.540279 
L 360.417345 159.916411 
L 365.645922 164.080981 
L 369.995075 167.153868 
L 373.619942 169.478749 
L 378.10547 172.106876 
L 382.588524 174.492407 
L 387.641333 176.938587 
L 392.132531 178.91979 
L 397.606777 181.123373 
L 404.164149 183.508904 
L 409.674852 185.328376 
L 416.688507 187.430878 
L 425.559271 189.796192 
L 434.160253 191.838044 
L 442.424557 193.596868 
L 452.256394 195.476989 
L 461.603663 197.074082 
L 471.14967 198.549876 
L 485.271962 200.490647 
L 485.271962 200.490647 
" clip-path="url(#p4a575641ca)" style="fill: none; stroke: #9467bd; stroke-width: 1.5; stroke-linecap: square"/>
   </g>
   <g id="patch_12">
    <path d="M 328.94125 223.416 
L 328.94125 123.624 
" style="fill: none; stroke: #000000; stroke-width: 0.8; stroke-linejoin: miter; stroke-linecap: square"/>
   </g>
   <g id="patch_13">
    <path d="M 485.18125 223.416 
L 485.18125 123.624 
" style="fill: none; stroke: #000000; stroke-width: 0.8; stroke-linejoin: miter; stroke-linecap: square"/>
   </g>
   <g id="patch_14">
    <path d="M 328.94125 223.416 
L 485.18125 223.416 
" style="fill: none; stroke: #000000; stroke-width: 0.8; stroke-linejoin: miter; stroke-linecap: square"/>
   </g>
   <g id="patch_15">
    <path d="M 328.94125 123.624 
L 485.18125 123.624 
" style="fill: none; stroke: #000000; stroke-width: 0.8; stroke-linejoin: miter; stroke-linecap: square"/>
   </g>
  </g>
 </g>
 <defs>
  <clipPath id="p6d1dc37efc">
   <rect x="43.78125" y="7.2" width="446.4" height="332.64"/>
  </clipPath>
  <clipPath id="p4a575641ca">
   <rect x="328.94125" y="123.624" width="156.24" height="99.792"/>
  </clipPath>
 </defs>
</svg>
