<?xml version="1.0" encoding="utf-8" standalone="no"?>
<!DOCTYPE svg PUBLIC "-//W3C//DTD SVG 1.1//EN"
  "http://www.w3.org/Graphics/SVG/1.1/DTD/svg11.dtd">
<svg xmlns:xlink="http://www.w3.org/1999/xlink" width="497.38125pt" height="377.39625pt" viewBox="0 0 497.38125 377.39625" xmlns="http://www.w3.org/2000/svg" version="1.1">
 <metadata>
  <rdf:RDF xmlns:dc="http://purl.org/dc/elements/1.1/" xmlns:cc="http://creativecommons.org/ns#" xmlns:rdf="http://www.w3.org/1999/02/22-rdf-syntax-ns#">
   <cc:Work>
    <dc:type rdf:resource="http://purl.org/dc/dcmitype/StillImage"/>
    <dc:date>2025-03-28T21:07:39.042808</dc:date>
    <dc:format>image/svg+xml</dc:format>
    <dc:creator>
     <cc:Agent>
      <dc:title>Matplotlib v3.8.4, https://matplotlib.org/</dc:title>
     </cc:Agent>
    </dc:creator>
   </cc:Work>
  </rdf:RDF>
 </metadata>
 <defs>
  <style type="text/css">*{stroke-linejoin: round; stroke-linecap: butt}</style>
 </defs>
 <g id="figure_1">
  <g id="patch_1">
   <path d="M 0 377.39625 
L 497.38125 377.39625 
L 497.38125 0 
L 0 0 
z
" style="fill: #ffffff"/>
  </g>
  <g id="axes_1">
   <g id="patch_2">
    <path d="M 43.78125 339.84 
L 490.18125 339.84 
L 490.18125 7.2 
L 43.78125 7.2 
z
" style="fill: #ffffff"/>
   </g>
   <g id="patch_3">
    <path d="M 54.417683 339.84 
L 114.706215 339.84 
L 114.706215 273.309304 
L 54.417683 273.309304 
L 54.417683 339.84 
z
" clip-path="url(#p96ab63aebe)" style="fill: none; stroke-dasharray: 3.7,1.6; stroke-dashoffset: 0; stroke: #000000; stroke-linejoin: miter"/>
   </g>
   <g id="matplotlib.axis_1">
    <g id="xtick_1">
     <g id="line2d_1">
      <path d="M 114.706215 339.84 
L 114.706215 7.2 
" clip-path="url(#p96ab63aebe)" style="fill: none; stroke: #b0b0b0; stroke-width: 0.8; stroke-linecap: square"/>
     </g>
     <g id="line2d_2">
      <defs>
       <path id="mcc707ec249" d="M 0 0 
L 0 3.5 
" style="stroke: #000000; stroke-width: 0.8"/>
      </defs>
      <g>
       <use xlink:href="#mcc707ec249" x="114.706215" y="339.84" style="stroke: #000000; stroke-width: 0.8"/>
      </g>
     </g>
     <g id="text_1">
      <!-- 0.0002 -->
      <g transform="translate(97.210902 354.438437) scale(0.1 -0.1)">
       <defs>
        <path id="DejaVuSans-30" d="M 2034 4250 
Q 1547 4250 1301 3770 
Q 1056 3291 1056 2328 
Q 1056 1369 1301 889 
Q 1547 409 2034 409 
Q 2525 409 2770 889 
Q 3016 1369 3016 2328 
Q 3016 3291 2770 3770 
Q 2525 4250 2034 4250 
z
M 2034 4750 
Q 2819 4750 3233 4129 
Q 3647 3509 3647 2328 
Q 3647 1150 3233 529 
Q 2819 -91 2034 -91 
Q 1250 -91 836 529 
Q 422 1150 422 2328 
Q 422 3509 836 4129 
Q 1250 4750 2034 4750 
z
" transform="scale(0.015625)"/>
        <path id="DejaVuSans-2e" d="M 684 794 
L 1344 794 
L 1344 0 
L 684 0 
L 684 794 
z
" transform="scale(0.015625)"/>
        <path id="DejaVuSans-32" d="M 1228 531 
L 3431 531 
L 3431 0 
L 469 0 
L 469 531 
Q 828 903 1448 1529 
Q 2069 2156 2228 2338 
Q 2531 2678 2651 2914 
Q 2772 3150 2772 3378 
Q 2772 3750 2511 3984 
Q 2250 4219 1831 4219 
Q 1534 4219 1204 4116 
Q 875 4013 500 3803 
L 500 4441 
Q 881 4594 1212 4672 
Q 1544 4750 1819 4750 
Q 2544 4750 2975 4387 
Q 3406 4025 3406 3419 
Q 3406 3131 3298 2873 
Q 3191 2616 2906 2266 
Q 2828 2175 2409 1742 
Q 1991 1309 1228 531 
z
" transform="scale(0.015625)"/>
       </defs>
       <use xlink:href="#DejaVuSans-30"/>
       <use xlink:href="#DejaVuSans-2e" x="63.623047"/>
       <use xlink:href="#DejaVuSans-30" x="95.410156"/>
       <use xlink:href="#DejaVuSans-30" x="159.033203"/>
       <use xlink:href="#DejaVuSans-30" x="222.65625"/>
       <use xlink:href="#DejaVuSans-32" x="286.279297"/>
      </g>
     </g>
    </g>
    <g id="xtick_2">
     <g id="line2d_3">
      <path d="M 185.6339 339.84 
L 185.6339 7.2 
" clip-path="url(#p96ab63aebe)" style="fill: none; stroke: #b0b0b0; stroke-width: 0.8; stroke-linecap: square"/>
     </g>
     <g id="line2d_4">
      <g>
       <use xlink:href="#mcc707ec249" x="185.6339" y="339.84" style="stroke: #000000; stroke-width: 0.8"/>
      </g>
     </g>
     <g id="text_2">
      <!-- 0.0004 -->
      <g transform="translate(168.138587 354.438437) scale(0.1 -0.1)">
       <defs>
        <path id="DejaVuSans-34" d="M 2419 4116 
L 825 1625 
L 2419 1625 
L 2419 4116 
z
M 2253 4666 
L 3047 4666 
L 3047 1625 
L 3713 1625 
L 3713 1100 
L 3047 1100 
L 3047 0 
L 2419 0 
L 2419 1100 
L 313 1100 
L 313 1709 
L 2253 4666 
z
" transform="scale(0.015625)"/>
       </defs>
       <use xlink:href="#DejaVuSans-30"/>
       <use xlink:href="#DejaVuSans-2e" x="63.623047"/>
       <use xlink:href="#DejaVuSans-30" x="95.410156"/>
       <use xlink:href="#DejaVuSans-30" x="159.033203"/>
       <use xlink:href="#DejaVuSans-30" x="222.65625"/>
       <use xlink:href="#DejaVuSans-34" x="286.279297"/>
      </g>
     </g>
    </g>
    <g id="xtick_3">
     <g id="line2d_5">
      <path d="M 256.561585 339.84 
L 256.561585 7.2 
" clip-path="url(#p96ab63aebe)" style="fill: none; stroke: #b0b0b0; stroke-width: 0.8; stroke-linecap: square"/>
     </g>
     <g id="line2d_6">
      <g>
       <use xlink:href="#mcc707ec249" x="256.561585" y="339.84" style="stroke: #000000; stroke-width: 0.8"/>
      </g>
     </g>
     <g id="text_3">
      <!-- 0.0006 -->
      <g transform="translate(239.066272 354.438437) scale(0.1 -0.1)">
       <defs>
        <path id="DejaVuSans-36" d="M 2113 2584 
Q 1688 2584 1439 2293 
Q 1191 2003 1191 1497 
Q 1191 994 1439 701 
Q 1688 409 2113 409 
Q 2538 409 2786 701 
Q 3034 994 3034 1497 
Q 3034 2003 2786 2293 
Q 2538 2584 2113 2584 
z
M 3366 4563 
L 3366 3988 
Q 3128 4100 2886 4159 
Q 2644 4219 2406 4219 
Q 1781 4219 1451 3797 
Q 1122 3375 1075 2522 
Q 1259 2794 1537 2939 
Q 1816 3084 2150 3084 
Q 2853 3084 3261 2657 
Q 3669 2231 3669 1497 
Q 3669 778 3244 343 
Q 2819 -91 2113 -91 
Q 1303 -91 875 529 
Q 447 1150 447 2328 
Q 447 3434 972 4092 
Q 1497 4750 2381 4750 
Q 2619 4750 2861 4703 
Q 3103 4656 3366 4563 
z
" transform="scale(0.015625)"/>
       </defs>
       <use xlink:href="#DejaVuSans-30"/>
       <use xlink:href="#DejaVuSans-2e" x="63.623047"/>
       <use xlink:href="#DejaVuSans-30" x="95.410156"/>
       <use xlink:href="#DejaVuSans-30" x="159.033203"/>
       <use xlink:href="#DejaVuSans-30" x="222.65625"/>
       <use xlink:href="#DejaVuSans-36" x="286.279297"/>
      </g>
     </g>
    </g>
    <g id="xtick_4">
     <g id="line2d_7">
      <path d="M 327.48927 339.84 
L 327.48927 7.2 
" clip-path="url(#p96ab63aebe)" style="fill: none; stroke: #b0b0b0; stroke-width: 0.8; stroke-linecap: square"/>
     </g>
     <g id="line2d_8">
      <g>
       <use xlink:href="#mcc707ec249" x="327.48927" y="339.84" style="stroke: #000000; stroke-width: 0.8"/>
      </g>
     </g>
     <g id="text_4">
      <!-- 0.0008 -->
      <g transform="translate(309.993957 354.438437) scale(0.1 -0.1)">
       <defs>
        <path id="DejaVuSans-38" d="M 2034 2216 
Q 1584 2216 1326 1975 
Q 1069 1734 1069 1313 
Q 1069 891 1326 650 
Q 1584 409 2034 409 
Q 2484 409 2743 651 
Q 3003 894 3003 1313 
Q 3003 1734 2745 1975 
Q 2488 2216 2034 2216 
z
M 1403 2484 
Q 997 2584 770 2862 
Q 544 3141 544 3541 
Q 544 4100 942 4425 
Q 1341 4750 2034 4750 
Q 2731 4750 3128 4425 
Q 3525 4100 3525 3541 
Q 3525 3141 3298 2862 
Q 3072 2584 2669 2484 
Q 3125 2378 3379 2068 
Q 3634 1759 3634 1313 
Q 3634 634 3220 271 
Q 2806 -91 2034 -91 
Q 1263 -91 848 271 
Q 434 634 434 1313 
Q 434 1759 690 2068 
Q 947 2378 1403 2484 
z
M 1172 3481 
Q 1172 3119 1398 2916 
Q 1625 2713 2034 2713 
Q 2441 2713 2670 2916 
Q 2900 3119 2900 3481 
Q 2900 3844 2670 4047 
Q 2441 4250 2034 4250 
Q 1625 4250 1398 4047 
Q 1172 3844 1172 3481 
z
" transform="scale(0.015625)"/>
       </defs>
       <use xlink:href="#DejaVuSans-30"/>
       <use xlink:href="#DejaVuSans-2e" x="63.623047"/>
       <use xlink:href="#DejaVuSans-30" x="95.410156"/>
       <use xlink:href="#DejaVuSans-30" x="159.033203"/>
       <use xlink:href="#DejaVuSans-30" x="222.65625"/>
       <use xlink:href="#DejaVuSans-38" x="286.279297"/>
      </g>
     </g>
    </g>
    <g id="xtick_5">
     <g id="line2d_9">
      <path d="M 398.416954 339.84 
L 398.416954 7.2 
" clip-path="url(#p96ab63aebe)" style="fill: none; stroke: #b0b0b0; stroke-width: 0.8; stroke-linecap: square"/>
     </g>
     <g id="line2d_10">
      <g>
       <use xlink:href="#mcc707ec249" x="398.416954" y="339.84" style="stroke: #000000; stroke-width: 0.8"/>
      </g>
     </g>
     <g id="text_5">
      <!-- 0.0010 -->
      <g transform="translate(380.921642 354.438437) scale(0.1 -0.1)">
       <defs>
        <path id="DejaVuSans-31" d="M 794 531 
L 1825 531 
L 1825 4091 
L 703 3866 
L 703 4441 
L 1819 4666 
L 2450 4666 
L 2450 531 
L 3481 531 
L 3481 0 
L 794 0 
L 794 531 
z
" transform="scale(0.015625)"/>
       </defs>
       <use xlink:href="#DejaVuSans-30"/>
       <use xlink:href="#DejaVuSans-2e" x="63.623047"/>
       <use xlink:href="#DejaVuSans-30" x="95.410156"/>
       <use xlink:href="#DejaVuSans-30" x="159.033203"/>
       <use xlink:href="#DejaVuSans-31" x="222.65625"/>
       <use xlink:href="#DejaVuSans-30" x="286.279297"/>
      </g>
     </g>
    </g>
    <g id="xtick_6">
     <g id="line2d_11">
      <path d="M 469.344639 339.84 
L 469.344639 7.2 
" clip-path="url(#p96ab63aebe)" style="fill: none; stroke: #b0b0b0; stroke-width: 0.8; stroke-linecap: square"/>
     </g>
     <g id="line2d_12">
      <g>
       <use xlink:href="#mcc707ec249" x="469.344639" y="339.84" style="stroke: #000000; stroke-width: 0.8"/>
      </g>
     </g>
     <g id="text_6">
      <!-- 0.0012 -->
      <g transform="translate(451.849327 354.438437) scale(0.1 -0.1)">
       <use xlink:href="#DejaVuSans-30"/>
       <use xlink:href="#DejaVuSans-2e" x="63.623047"/>
       <use xlink:href="#DejaVuSans-30" x="95.410156"/>
       <use xlink:href="#DejaVuSans-30" x="159.033203"/>
       <use xlink:href="#DejaVuSans-31" x="222.65625"/>
       <use xlink:href="#DejaVuSans-32" x="286.279297"/>
      </g>
     </g>
    </g>
    <g id="text_7">
     <!-- P_pos -->
     <g transform="translate(252.628125 367.838437) scale(0.1 -0.1)">
      <defs>
       <path id="DejaVuSans-50" d="M 1259 4147 
L 1259 2394 
L 2053 2394 
Q 2494 2394 2734 2622 
Q 2975 2850 2975 3272 
Q 2975 3691 2734 3919 
Q 2494 4147 2053 4147 
L 1259 4147 
z
M 628 4666 
L 2053 4666 
Q 2838 4666 3239 4311 
Q 3641 3956 3641 3272 
Q 3641 2581 3239 2228 
Q 2838 1875 2053 1875 
L 1259 1875 
L 1259 0 
L 628 0 
L 628 4666 
z
" transform="scale(0.015625)"/>
       <path id="DejaVuSans-5f" d="M 3263 -1063 
L 3263 -1509 
L -63 -1509 
L -63 -1063 
L 3263 -1063 
z
" transform="scale(0.015625)"/>
       <path id="DejaVuSans-70" d="M 1159 525 
L 1159 -1331 
L 581 -1331 
L 581 3500 
L 1159 3500 
L 1159 2969 
Q 1341 3281 1617 3432 
Q 1894 3584 2278 3584 
Q 2916 3584 3314 3078 
Q 3713 2572 3713 1747 
Q 3713 922 3314 415 
Q 2916 -91 2278 -91 
Q 1894 -91 1617 61 
Q 1341 213 1159 525 
z
M 3116 1747 
Q 3116 2381 2855 2742 
Q 2594 3103 2138 3103 
Q 1681 3103 1420 2742 
Q 1159 2381 1159 1747 
Q 1159 1113 1420 752 
Q 1681 391 2138 391 
Q 2594 391 2855 752 
Q 3116 1113 3116 1747 
z
" transform="scale(0.015625)"/>
       <path id="DejaVuSans-6f" d="M 1959 3097 
Q 1497 3097 1228 2736 
Q 959 2375 959 1747 
Q 959 1119 1226 758 
Q 1494 397 1959 397 
Q 2419 397 2687 759 
Q 2956 1122 2956 1747 
Q 2956 2369 2687 2733 
Q 2419 3097 1959 3097 
z
M 1959 3584 
Q 2709 3584 3137 3096 
Q 3566 2609 3566 1747 
Q 3566 888 3137 398 
Q 2709 -91 1959 -91 
Q 1206 -91 779 398 
Q 353 888 353 1747 
Q 353 2609 779 3096 
Q 1206 3584 1959 3584 
z
" transform="scale(0.015625)"/>
       <path id="DejaVuSans-73" d="M 2834 3397 
L 2834 2853 
Q 2591 2978 2328 3040 
Q 2066 3103 1784 3103 
Q 1356 3103 1142 2972 
Q 928 2841 928 2578 
Q 928 2378 1081 2264 
Q 1234 2150 1697 2047 
L 1894 2003 
Q 2506 1872 2764 1633 
Q 3022 1394 3022 966 
Q 3022 478 2636 193 
Q 2250 -91 1575 -91 
Q 1294 -91 989 -36 
Q 684 19 347 128 
L 347 722 
Q 666 556 975 473 
Q 1284 391 1588 391 
Q 1994 391 2212 530 
Q 2431 669 2431 922 
Q 2431 1156 2273 1281 
Q 2116 1406 1581 1522 
L 1381 1569 
Q 847 1681 609 1914 
Q 372 2147 372 2553 
Q 372 3047 722 3315 
Q 1072 3584 1716 3584 
Q 2034 3584 2315 3537 
Q 2597 3491 2834 3397 
z
" transform="scale(0.015625)"/>
      </defs>
      <use xlink:href="#DejaVuSans-50"/>
      <use xlink:href="#DejaVuSans-5f" x="60.302734"/>
      <use xlink:href="#DejaVuSans-70" x="110.302734"/>
      <use xlink:href="#DejaVuSans-6f" x="173.779297"/>
      <use xlink:href="#DejaVuSans-73" x="234.960938"/>
     </g>
    </g>
   </g>
   <g id="matplotlib.axis_2">
    <g id="ytick_1">
     <g id="line2d_13">
      <path d="M 43.78125 339.84 
L 490.18125 339.84 
" clip-path="url(#p96ab63aebe)" style="fill: none; stroke: #b0b0b0; stroke-width: 0.8; stroke-linecap: square"/>
     </g>
     <g id="line2d_14">
      <defs>
       <path id="mf88f8350bf" d="M 0 0 
L -3.5 0 
" style="stroke: #000000; stroke-width: 0.8"/>
      </defs>
      <g>
       <use xlink:href="#mf88f8350bf" x="43.78125" y="339.84" style="stroke: #000000; stroke-width: 0.8"/>
      </g>
     </g>
     <g id="text_8">
      <!-- 0.0 -->
      <g transform="translate(20.878125 343.639219) scale(0.1 -0.1)">
       <use xlink:href="#DejaVuSans-30"/>
       <use xlink:href="#DejaVuSans-2e" x="63.623047"/>
       <use xlink:href="#DejaVuSans-30" x="95.410156"/>
      </g>
     </g>
    </g>
    <g id="ytick_2">
     <g id="line2d_15">
      <path d="M 43.78125 273.309304 
L 490.18125 273.309304 
" clip-path="url(#p96ab63aebe)" style="fill: none; stroke: #b0b0b0; stroke-width: 0.8; stroke-linecap: square"/>
     </g>
     <g id="line2d_16">
      <g>
       <use xlink:href="#mf88f8350bf" x="43.78125" y="273.309304" style="stroke: #000000; stroke-width: 0.8"/>
      </g>
     </g>
     <g id="text_9">
      <!-- 0.2 -->
      <g transform="translate(20.878125 277.108523) scale(0.1 -0.1)">
       <use xlink:href="#DejaVuSans-30"/>
       <use xlink:href="#DejaVuSans-2e" x="63.623047"/>
       <use xlink:href="#DejaVuSans-32" x="95.410156"/>
      </g>
     </g>
    </g>
    <g id="ytick_3">
     <g id="line2d_17">
      <path d="M 43.78125 206.778609 
L 490.18125 206.778609 
" clip-path="url(#p96ab63aebe)" style="fill: none; stroke: #b0b0b0; stroke-width: 0.8; stroke-linecap: square"/>
     </g>
     <g id="line2d_18">
      <g>
       <use xlink:href="#mf88f8350bf" x="43.78125" y="206.778609" style="stroke: #000000; stroke-width: 0.8"/>
      </g>
     </g>
     <g id="text_10">
      <!-- 0.4 -->
      <g transform="translate(20.878125 210.577828) scale(0.1 -0.1)">
       <use xlink:href="#DejaVuSans-30"/>
       <use xlink:href="#DejaVuSans-2e" x="63.623047"/>
       <use xlink:href="#DejaVuSans-34" x="95.410156"/>
      </g>
     </g>
    </g>
    <g id="ytick_4">
     <g id="line2d_19">
      <path d="M 43.78125 140.247913 
L 490.18125 140.247913 
" clip-path="url(#p96ab63aebe)" style="fill: none; stroke: #b0b0b0; stroke-width: 0.8; stroke-linecap: square"/>
     </g>
     <g id="line2d_20">
      <g>
       <use xlink:href="#mf88f8350bf" x="43.78125" y="140.247913" style="stroke: #000000; stroke-width: 0.8"/>
      </g>
     </g>
     <g id="text_11">
      <!-- 0.6 -->
      <g transform="translate(20.878125 144.047132) scale(0.1 -0.1)">
       <use xlink:href="#DejaVuSans-30"/>
       <use xlink:href="#DejaVuSans-2e" x="63.623047"/>
       <use xlink:href="#DejaVuSans-36" x="95.410156"/>
      </g>
     </g>
    </g>
    <g id="ytick_5">
     <g id="line2d_21">
      <path d="M 43.78125 73.717218 
L 490.18125 73.717218 
" clip-path="url(#p96ab63aebe)" style="fill: none; stroke: #b0b0b0; stroke-width: 0.8; stroke-linecap: square"/>
     </g>
     <g id="line2d_22">
      <g>
       <use xlink:href="#mf88f8350bf" x="43.78125" y="73.717218" style="stroke: #000000; stroke-width: 0.8"/>
      </g>
     </g>
     <g id="text_12">
      <!-- 0.8 -->
      <g transform="translate(20.878125 77.516436) scale(0.1 -0.1)">
       <use xlink:href="#DejaVuSans-30"/>
       <use xlink:href="#DejaVuSans-2e" x="63.623047"/>
       <use xlink:href="#DejaVuSans-38" x="95.410156"/>
      </g>
     </g>
    </g>
    <g id="text_13">
     <!-- CCDF -->
     <g transform="translate(14.798438 187.228594) rotate(-90) scale(0.1 -0.1)">
      <defs>
       <path id="DejaVuSans-43" d="M 4122 4306 
L 4122 3641 
Q 3803 3938 3442 4084 
Q 3081 4231 2675 4231 
Q 1875 4231 1450 3742 
Q 1025 3253 1025 2328 
Q 1025 1406 1450 917 
Q 1875 428 2675 428 
Q 3081 428 3442 575 
Q 3803 722 4122 1019 
L 4122 359 
Q 3791 134 3420 21 
Q 3050 -91 2638 -91 
Q 1578 -91 968 557 
Q 359 1206 359 2328 
Q 359 3453 968 4101 
Q 1578 4750 2638 4750 
Q 3056 4750 3426 4639 
Q 3797 4528 4122 4306 
z
" transform="scale(0.015625)"/>
       <path id="DejaVuSans-44" d="M 1259 4147 
L 1259 519 
L 2022 519 
Q 2988 519 3436 956 
Q 3884 1394 3884 2338 
Q 3884 3275 3436 3711 
Q 2988 4147 2022 4147 
L 1259 4147 
z
M 628 4666 
L 1925 4666 
Q 3281 4666 3915 4102 
Q 4550 3538 4550 2338 
Q 4550 1131 3912 565 
Q 3275 0 1925 0 
L 628 0 
L 628 4666 
z
" transform="scale(0.015625)"/>
       <path id="DejaVuSans-46" d="M 628 4666 
L 3309 4666 
L 3309 4134 
L 1259 4134 
L 1259 2759 
L 3109 2759 
L 3109 2228 
L 1259 2228 
L 1259 0 
L 628 0 
L 628 4666 
z
" transform="scale(0.015625)"/>
      </defs>
      <use xlink:href="#DejaVuSans-43"/>
      <use xlink:href="#DejaVuSans-43" x="69.824219"/>
      <use xlink:href="#DejaVuSans-44" x="139.648438"/>
      <use xlink:href="#DejaVuSans-46" x="216.650391"/>
     </g>
    </g>
   </g>
   <g id="line2d_23">
    <path d="M 51.81279 7.2 
L 52.672189 7.348259 
L 53.097311 7.671734 
L 53.431207 8.210859 
L 53.746159 9.194762 
L 54.083289 11.06822 
L 54.427148 14.424272 
L 54.774238 20.165951 
L 55.18246 31.083229 
L 55.59553 48.631741 
L 56.212287 88.028285 
L 56.95817 150.634152 
L 57.685454 206.608784 
L 58.206135 230.923313 
L 58.972704 254.45611 
L 59.861649 275.185459 
L 60.533363 287.113595 
L 61.355078 298.26 
L 62.054393 305.565141 
L 62.894093 312.627676 
L 64.059359 319.878904 
L 65.160333 324.744506 
L 66.195193 328.167948 
L 67.373319 331.173569 
L 68.936372 334.313971 
L 70.195684 336.25482 
L 71.499883 337.83176 
L 73.062252 339.34131 
L 73.742869 339.84 
L 73.742869 339.84 
" clip-path="url(#p96ab63aebe)" style="fill: none; stroke: #1f77b4; stroke-width: 1.5; stroke-linecap: square"/>
   </g>
   <g id="line2d_24">
    <path d="M 45.523647 7.2 
L 46.151399 7.361737 
L 46.524657 7.712169 
L 46.883251 8.386075 
L 47.262588 9.653018 
L 47.670827 11.863429 
L 48.135914 15.745128 
L 48.645416 22.012454 
L 49.237807 32.431041 
L 49.865422 47.607404 
L 50.760371 75.412765 
L 52.510574 131.279572 
L 54.572724 188.372888 
L 55.408572 205.597925 
L 56.190651 218.294314 
L 57.274524 232.041997 
L 58.667736 246.301848 
L 60.080522 258.162593 
L 61.271412 266.532506 
L 62.885842 276.142405 
L 64.265364 283.20494 
L 65.8711 290.173128 
L 67.310473 295.38916 
L 68.937097 300.362587 
L 70.653992 304.796888 
L 72.159179 308.139462 
L 73.585242 310.902476 
L 75.573601 314.231572 
L 77.60203 317.11589 
L 79.71144 319.676733 
L 82.070085 322.12975 
L 84.355048 324.178425 
L 86.555903 325.903624 
L 89.314213 327.777083 
L 91.801836 329.219241 
L 96.083534 331.281394 
L 99.450472 332.629206 
L 103.066816 333.869193 
L 106.570296 334.89353 
L 112.04001 336.241342 
L 117.568583 337.373504 
L 123.879719 338.438276 
L 131.214061 339.435656 
L 134.692836 339.84 
L 134.692836 339.84 
" clip-path="url(#p96ab63aebe)" style="fill: none; stroke: #ff7f0e; stroke-width: 1.5; stroke-linecap: square"/>
   </g>
   <g id="line2d_25">
    <path d="M 44.378141 7.2 
L 44.710205 7.361737 
L 44.949444 7.806515 
L 45.213139 8.844331 
L 45.524242 11.054742 
L 45.91004 15.462088 
L 46.394088 23.548959 
L 46.997914 37.269686 
L 47.716045 59.077284 
L 49.755715 125.901802 
L 51.367256 168.438749 
L 52.397043 190.475475 
L 53.336985 206.420091 
L 54.335419 219.642126 
L 55.462785 231.395047 
L 56.720307 242.015806 
L 58.167297 252.043527 
L 59.501904 259.83388 
L 61.148472 267.93423 
L 62.604417 274.080253 
L 64.255409 280.131929 
L 66.009417 285.725348 
L 67.508679 289.917044 
L 69.551488 294.89047 
L 71.37365 298.6913 
L 73.221765 302.06083 
L 75.542655 305.740357 
L 77.689346 308.692065 
L 79.885017 311.347254 
L 81.926347 313.544188 
L 84.370004 315.875903 
L 87.122972 318.167183 
L 89.707342 320.05412 
L 92.803274 322.035404 
L 96.838127 324.259293 
L 101.010677 326.213621 
L 105.055278 327.830995 
L 109.296073 329.286632 
L 113.631019 330.580532 
L 119.095883 331.982256 
L 125.598779 333.383981 
L 131.473425 334.46223 
L 138.702644 335.580914 
L 148.988321 336.874814 
L 159.009781 337.899151 
L 172.107929 338.9774 
L 185.096681 339.84 
L 185.096681 339.84 
" clip-path="url(#p96ab63aebe)" style="fill: none; stroke: #2ca02c; stroke-width: 1.5; stroke-linecap: square"/>
   </g>
   <g id="line2d_26">
    <path d="M 43.849106 7.2 
L 43.932377 7.388694 
L 44.054278 8.507378 
L 44.255005 12.874288 
L 44.64103 26.945446 
L 45.468061 66.166775 
L 46.870778 131.117835 
L 47.702188 159.866665 
L 48.577959 183.642068 
L 49.414467 201.042321 
L 50.347325 215.895209 
L 51.38599 228.470295 
L 52.398014 238.03976 
L 53.455896 246.099676 
L 54.717985 253.903507 
L 56.237395 261.518645 
L 57.538734 266.936849 
L 58.743665 271.290282 
L 60.704188 277.368914 
L 62.71031 282.598425 
L 64.607196 286.844032 
L 66.850719 291.170509 
L 69.531516 295.564376 
L 71.443172 298.286956 
L 73.732145 301.171274 
L 76.196326 303.907332 
L 78.370533 306.063831 
L 81.039897 308.422502 
L 84.395632 311.02378 
L 88.11828 313.517232 
L 92.114711 315.835468 
L 95.754247 317.681971 
L 100.052789 319.595864 
L 104.68002 321.388454 
L 109.761359 323.100175 
L 114.750352 324.56929 
L 121.521056 326.294489 
L 127.623459 327.628823 
L 135.793256 329.165329 
L 144.60198 330.567053 
L 155.509919 332.02269 
L 166.823931 333.276156 
L 181.584361 334.623968 
L 194.9559 335.634827 
L 212.958159 336.753511 
L 233.646555 337.791326 
L 257.899756 338.76175 
L 288.940804 339.745653 
L 292.372607 339.84 
L 292.372607 339.84 
" clip-path="url(#p96ab63aebe)" style="fill: none; stroke: #d62728; stroke-width: 1.5; stroke-linecap: square"/>
   </g>
   <g id="line2d_27">
    <path d="M 43.78125 7.2 
L 43.806733 8.938677 
L 44.174029 59.333368 
L 44.931686 139.474269 
L 45.455867 173.223481 
L 46.014162 195.947592 
L 46.601685 212.121335 
L 47.305046 225.85554 
L 48.063166 236.718904 
L 48.85557 245.398814 
L 49.918274 254.361763 
L 50.937213 261.060389 
L 52.16211 267.50293 
L 53.399446 272.759397 
L 54.717453 277.39587 
L 56.17163 281.681912 
L 57.666328 285.401874 
L 59.169886 288.623144 
L 61.049497 292.073543 
L 62.850529 294.917426 
L 65.13322 298.017394 
L 67.619396 300.901712 
L 69.633204 302.936908 
L 72.775203 305.699922 
L 75.813536 307.991203 
L 79.502848 310.37683 
L 82.46405 312.048117 
L 86.292982 313.948532 
L 89.976368 315.552428 
L 93.893645 317.061977 
L 99.067587 318.800655 
L 104.986032 320.512376 
L 111.275117 322.075838 
L 118.262393 323.571909 
L 126.534315 325.081459 
L 134.43792 326.321446 
L 146.132861 327.871429 
L 155.714148 328.949679 
L 167.134459 330.054885 
L 183.375835 331.375741 
L 202.462495 332.642684 
L 221.361399 333.680499 
L 243.310072 334.67788 
L 273.737186 335.796564 
L 306.289691 336.753511 
L 347.208547 337.710457 
L 391.028504 338.519144 
L 449.789938 339.368266 
L 490.18125 339.84 
L 490.18125 339.84 
" clip-path="url(#p96ab63aebe)" style="fill: none; stroke: #9467bd; stroke-width: 1.5; stroke-linecap: square"/>
   </g>
   <g id="patch_4">
    <path d="M 43.78125 339.84 
L 43.78125 7.2 
" style="fill: none; stroke: #000000; stroke-width: 0.8; stroke-linejoin: miter; stroke-linecap: square"/>
   </g>
   <g id="patch_5">
    <path d="M 490.18125 339.84 
L 490.18125 7.2 
" style="fill: none; stroke: #000000; stroke-width: 0.8; stroke-linejoin: miter; stroke-linecap: square"/>
   </g>
   <g id="patch_6">
    <path d="M 43.78125 339.84 
L 490.18125 339.84 
" style="fill: none; stroke: #000000; stroke-width: 0.8; stroke-linejoin: miter; stroke-linecap: square"/>
   </g>
   <g id="patch_7">
    <path d="M 43.78125 7.2 
L 490.18125 7.2 
" style="fill: none; stroke: #000000; stroke-width: 0.8; stroke-linejoin: miter; stroke-linecap: square"/>
   </g>
   <g id="legend_1">
    <g id="patch_8">
     <path d="M 398.459375 88.590625 
L 483.18125 88.590625 
Q 485.18125 88.590625 485.18125 86.590625 
L 485.18125 14.2 
Q 485.18125 12.2 483.18125 12.2 
L 398.459375 12.2 
Q 396.459375 12.2 396.459375 14.2 
L 396.459375 86.590625 
Q 396.459375 88.590625 398.459375 88.590625 
z
" style="fill: #ffffff; opacity: 0.8; stroke: #cccccc; stroke-linejoin: miter"/>
    </g>
    <g id="line2d_28">
     <path d="M 400.459375 20.298437 
L 410.459375 20.298437 
L 420.459375 20.298437 
" style="fill: none; stroke: #1f77b4; stroke-width: 1.5; stroke-linecap: square"/>
    </g>
    <g id="text_14">
     <!-- epoch 10 -->
     <g transform="translate(428.459375 23.798437) scale(0.1 -0.1)">
      <defs>
       <path id="DejaVuSans-65" d="M 3597 1894 
L 3597 1613 
L 953 1613 
Q 991 1019 1311 708 
Q 1631 397 2203 397 
Q 2534 397 2845 478 
Q 3156 559 3463 722 
L 3463 178 
Q 3153 47 2828 -22 
Q 2503 -91 2169 -91 
Q 1331 -91 842 396 
Q 353 884 353 1716 
Q 353 2575 817 3079 
Q 1281 3584 2069 3584 
Q 2775 3584 3186 3129 
Q 3597 2675 3597 1894 
z
M 3022 2063 
Q 3016 2534 2758 2815 
Q 2500 3097 2075 3097 
Q 1594 3097 1305 2825 
Q 1016 2553 972 2059 
L 3022 2063 
z
" transform="scale(0.015625)"/>
       <path id="DejaVuSans-63" d="M 3122 3366 
L 3122 2828 
Q 2878 2963 2633 3030 
Q 2388 3097 2138 3097 
Q 1578 3097 1268 2742 
Q 959 2388 959 1747 
Q 959 1106 1268 751 
Q 1578 397 2138 397 
Q 2388 397 2633 464 
Q 2878 531 3122 666 
L 3122 134 
Q 2881 22 2623 -34 
Q 2366 -91 2075 -91 
Q 1284 -91 818 406 
Q 353 903 353 1747 
Q 353 2603 823 3093 
Q 1294 3584 2113 3584 
Q 2378 3584 2631 3529 
Q 2884 3475 3122 3366 
z
" transform="scale(0.015625)"/>
       <path id="DejaVuSans-68" d="M 3513 2113 
L 3513 0 
L 2938 0 
L 2938 2094 
Q 2938 2591 2744 2837 
Q 2550 3084 2163 3084 
Q 1697 3084 1428 2787 
Q 1159 2491 1159 1978 
L 1159 0 
L 581 0 
L 581 4863 
L 1159 4863 
L 1159 2956 
Q 1366 3272 1645 3428 
Q 1925 3584 2291 3584 
Q 2894 3584 3203 3211 
Q 3513 2838 3513 2113 
z
" transform="scale(0.015625)"/>
       <path id="DejaVuSans-20" transform="scale(0.015625)"/>
      </defs>
      <use xlink:href="#DejaVuSans-65"/>
      <use xlink:href="#DejaVuSans-70" x="61.523438"/>
      <use xlink:href="#DejaVuSans-6f" x="125"/>
      <use xlink:href="#DejaVuSans-63" x="186.181641"/>
      <use xlink:href="#DejaVuSans-68" x="241.162109"/>
      <use xlink:href="#DejaVuSans-20" x="304.541016"/>
      <use xlink:href="#DejaVuSans-31" x="336.328125"/>
      <use xlink:href="#DejaVuSans-30" x="399.951172"/>
     </g>
    </g>
    <g id="line2d_29">
     <path d="M 400.459375 34.976562 
L 410.459375 34.976562 
L 420.459375 34.976562 
" style="fill: none; stroke: #ff7f0e; stroke-width: 1.5; stroke-linecap: square"/>
    </g>
    <g id="text_15">
     <!-- epoch 30 -->
     <g transform="translate(428.459375 38.476562) scale(0.1 -0.1)">
      <defs>
       <path id="DejaVuSans-33" d="M 2597 2516 
Q 3050 2419 3304 2112 
Q 3559 1806 3559 1356 
Q 3559 666 3084 287 
Q 2609 -91 1734 -91 
Q 1441 -91 1130 -33 
Q 819 25 488 141 
L 488 750 
Q 750 597 1062 519 
Q 1375 441 1716 441 
Q 2309 441 2620 675 
Q 2931 909 2931 1356 
Q 2931 1769 2642 2001 
Q 2353 2234 1838 2234 
L 1294 2234 
L 1294 2753 
L 1863 2753 
Q 2328 2753 2575 2939 
Q 2822 3125 2822 3475 
Q 2822 3834 2567 4026 
Q 2313 4219 1838 4219 
Q 1578 4219 1281 4162 
Q 984 4106 628 3988 
L 628 4550 
Q 988 4650 1302 4700 
Q 1616 4750 1894 4750 
Q 2613 4750 3031 4423 
Q 3450 4097 3450 3541 
Q 3450 3153 3228 2886 
Q 3006 2619 2597 2516 
z
" transform="scale(0.015625)"/>
      </defs>
      <use xlink:href="#DejaVuSans-65"/>
      <use xlink:href="#DejaVuSans-70" x="61.523438"/>
      <use xlink:href="#DejaVuSans-6f" x="125"/>
      <use xlink:href="#DejaVuSans-63" x="186.181641"/>
      <use xlink:href="#DejaVuSans-68" x="241.162109"/>
      <use xlink:href="#DejaVuSans-20" x="304.541016"/>
      <use xlink:href="#DejaVuSans-33" x="336.328125"/>
      <use xlink:href="#DejaVuSans-30" x="399.951172"/>
     </g>
    </g>
    <g id="line2d_30">
     <path d="M 400.459375 49.654687 
L 410.459375 49.654687 
L 420.459375 49.654687 
" style="fill: none; stroke: #2ca02c; stroke-width: 1.5; stroke-linecap: square"/>
    </g>
    <g id="text_16">
     <!-- epoch 50 -->
     <g transform="translate(428.459375 53.154687) scale(0.1 -0.1)">
      <defs>
       <path id="DejaVuSans-35" d="M 691 4666 
L 3169 4666 
L 3169 4134 
L 1269 4134 
L 1269 2991 
Q 1406 3038 1543 3061 
Q 1681 3084 1819 3084 
Q 2600 3084 3056 2656 
Q 3513 2228 3513 1497 
Q 3513 744 3044 326 
Q 2575 -91 1722 -91 
Q 1428 -91 1123 -41 
Q 819 9 494 109 
L 494 744 
Q 775 591 1075 516 
Q 1375 441 1709 441 
Q 2250 441 2565 725 
Q 2881 1009 2881 1497 
Q 2881 1984 2565 2268 
Q 2250 2553 1709 2553 
Q 1456 2553 1204 2497 
Q 953 2441 691 2322 
L 691 4666 
z
" transform="scale(0.015625)"/>
      </defs>
      <use xlink:href="#DejaVuSans-65"/>
      <use xlink:href="#DejaVuSans-70" x="61.523438"/>
      <use xlink:href="#DejaVuSans-6f" x="125"/>
      <use xlink:href="#DejaVuSans-63" x="186.181641"/>
      <use xlink:href="#DejaVuSans-68" x="241.162109"/>
      <use xlink:href="#DejaVuSans-20" x="304.541016"/>
      <use xlink:href="#DejaVuSans-35" x="336.328125"/>
      <use xlink:href="#DejaVuSans-30" x="399.951172"/>
     </g>
    </g>
    <g id="line2d_31">
     <path d="M 400.459375 64.332812 
L 410.459375 64.332812 
L 420.459375 64.332812 
" style="fill: none; stroke: #d62728; stroke-width: 1.5; stroke-linecap: square"/>
    </g>
    <g id="text_17">
     <!-- epoch 100 -->
     <g transform="translate(428.459375 67.832812) scale(0.1 -0.1)">
      <use xlink:href="#DejaVuSans-65"/>
      <use xlink:href="#DejaVuSans-70" x="61.523438"/>
      <use xlink:href="#DejaVuSans-6f" x="125"/>
      <use xlink:href="#DejaVuSans-63" x="186.181641"/>
      <use xlink:href="#DejaVuSans-68" x="241.162109"/>
      <use xlink:href="#DejaVuSans-20" x="304.541016"/>
      <use xlink:href="#DejaVuSans-31" x="336.328125"/>
      <use xlink:href="#DejaVuSans-30" x="399.951172"/>
      <use xlink:href="#DejaVuSans-30" x="463.574219"/>
     </g>
    </g>
    <g id="line2d_32">
     <path d="M 400.459375 79.010938 
L 410.459375 79.010938 
L 420.459375 79.010938 
" style="fill: none; stroke: #9467bd; stroke-width: 1.5; stroke-linecap: square"/>
    </g>
    <g id="text_18">
     <!-- epoch 200 -->
     <g transform="translate(428.459375 82.510938) scale(0.1 -0.1)">
      <use xlink:href="#DejaVuSans-65"/>
      <use xlink:href="#DejaVuSans-70" x="61.523438"/>
      <use xlink:href="#DejaVuSans-6f" x="125"/>
      <use xlink:href="#DejaVuSans-63" x="186.181641"/>
      <use xlink:href="#DejaVuSans-68" x="241.162109"/>
      <use xlink:href="#DejaVuSans-20" x="304.541016"/>
      <use xlink:href="#DejaVuSans-32" x="336.328125"/>
      <use xlink:href="#DejaVuSans-30" x="399.951172"/>
      <use xlink:href="#DejaVuSans-30" x="463.574219"/>
     </g>
    </g>
   </g>
  </g>
  <g id="axes_2">
   <g id="patch_9">
    <path d="M 328.94125 223.416 
L 485.18125 223.416 
L 485.18125 123.624 
L 328.94125 123.624 
z
" style="fill: #ffffff"/>
   </g>
   <g id="patch_10">
    <path d="M 328.94125 123.624 
L 54.417683 273.309304 
" style="fill: none; stroke-dasharray: 3.7,1.6; stroke-dashoffset: 0; stroke: #000000; stroke-linejoin: miter"/>
   </g>
   <g id="patch_11">
    <path d="M 485.18125 223.416 
L 114.706215 339.84 
" style="fill: none; stroke-dasharray: 3.7,1.6; stroke-dashoffset: 0; stroke: #000000; stroke-linejoin: miter"/>
   </g>
   <g id="matplotlib.axis_3"/>
   <g id="matplotlib.axis_4"/>
   <g id="line2d_33">
    <path d="M 336.762575 -1 
L 337.636148 31.016895 
L 338.464156 53.477271 
L 339.459036 73.794714 
L 340.769792 95.709249 
L 342.618291 121.141431 
L 343.796038 134.686393 
L 345.295987 148.797412 
L 346.442913 157.75326 
L 347.893037 167.275166 
L 350.082833 178.980439 
L 351.099492 183.387606 
L 352.772424 189.816408 
L 354.061527 193.859681 
L 355.681534 198.185982 
L 357.194325 201.663196 
L 358.717407 204.614784 
L 360.32079 207.242911 
L 363.166558 211.225534 
L 366.124881 214.682532 
L 368.071443 216.542437 
L 370.312883 218.402343 
L 373.792975 220.767657 
L 376.282531 222.203018 
L 378.621321 223.254269 
L 379.023198 223.416 
L 379.023198 223.416 
" clip-path="url(#p237e205e15)" style="fill: none; stroke: #1f77b4; stroke-width: 1.5; stroke-linecap: square"/>
   </g>
   <g id="line2d_34">
    <path d="M 329.552664 -1 
L 331.086189 17.492149 
L 332.355154 30.551918 
L 333.755783 42.924331 
L 335.343776 54.953066 
L 337.556207 69.367331 
L 339.607686 81.234335 
L 341.414395 90.614726 
L 343.315284 99.570574 
L 345.387957 108.344475 
L 348.269684 119.140011 
L 350.695228 127.266988 
L 353.477448 135.697211 
L 356.007009 142.570773 
L 358.123632 147.766378 
L 360.810469 153.669555 
L 363.642353 159.168405 
L 366.45738 164.020332 
L 368.65916 167.457113 
L 372.167311 172.410122 
L 374.547614 175.42236 
L 377.688968 179.020872 
L 380.596115 182.03311 
L 384.291143 185.469891 
L 387.20483 187.91607 
L 390.519846 190.443116 
L 394.989138 193.495786 
L 399.81311 196.406942 
L 404.525215 198.933987 
L 408.31786 200.773676 
L 413.144593 202.896394 
L 418.382413 204.958463 
L 424.349439 207.020531 
L 430.392271 208.840004 
L 436.598386 210.497745 
L 444.153703 212.276785 
L 452.725476 214.035609 
L 461.454061 215.572052 
L 470.832344 217.007414 
L 482.085216 218.503424 
L 485.237002 218.887535 
L 485.237002 218.887535 
" clip-path="url(#p237e205e15)" style="fill: none; stroke: #ff7f0e; stroke-width: 1.5; stroke-linecap: square"/>
   </g>
   <g id="line2d_35">
    <path d="M 328.938872 44.54164 
L 330.923112 56.732106 
L 333.034583 67.911753 
L 335.28287 78.323179 
L 337.348264 86.793834 
L 339.379557 94.31432 
L 341.340145 100.945286 
L 343.950131 108.890316 
L 346.168668 114.995657 
L 348.716622 121.404244 
L 351.034551 126.741363 
L 354.193432 133.372329 
L 356.189759 137.233654 
L 359.804652 143.64224 
L 363.319336 149.221956 
L 366.700314 154.053666 
L 369.367597 157.53088 
L 373.719137 162.625403 
L 378.751758 167.800792 
L 382.19774 170.97476 
L 386.260333 174.391325 
L 389.713912 177.039668 
L 395.743175 181.204239 
L 399.211077 183.367389 
L 404.603841 186.440276 
L 409.49665 188.947105 
L 415.578125 191.736963 
L 420.498939 193.778815 
L 427.89132 196.52824 
L 435.715028 199.095718 
L 441.12441 200.692811 
L 449.849972 203.017692 
L 459.050848 205.160626 
L 466.065626 206.616204 
L 477.166569 208.658057 
L 485.200558 209.97212 
L 485.200558 209.97212 
" clip-path="url(#p237e205e15)" style="fill: none; stroke: #2ca02c; stroke-width: 1.5; stroke-linecap: square"/>
   </g>
   <g id="line2d_36">
    <path d="M 328.9355 91.92879 
L 331.355111 99.550358 
L 333.898501 106.565435 
L 336.132963 112.023852 
L 338.24878 116.714048 
L 340.947068 122.132033 
L 343.884381 127.448935 
L 347.219164 132.86692 
L 349.686104 136.505865 
L 352.48556 140.326757 
L 355.701625 144.349813 
L 359.64538 148.817629 
L 363.231837 152.497006 
L 367.260607 156.25725 
L 372.037161 160.280305 
L 375.772571 163.130812 
L 380.432624 166.385646 
L 384.980984 169.276586 
L 390.942741 172.713367 
L 394.898669 174.795652 
L 400.333883 177.423779 
L 405.71645 179.80931 
L 414.565307 183.30674 
L 420.379254 185.368809 
L 427.608913 187.713907 
L 433.330847 189.412081 
L 441.531263 191.635881 
L 448.227163 193.293622 
L 457.099037 195.295042 
L 466.859591 197.276246 
L 479.406939 199.540478 
L 485.295634 200.510863 
L 485.295634 200.510863 
" clip-path="url(#p237e205e15)" style="fill: none; stroke: #d62728; stroke-width: 1.5; stroke-linecap: square"/>
   </g>
   <g id="line2d_37">
    <path d="M 328.931817 128.25759 
L 330.707365 131.552857 
L 333.165147 135.676994 
L 336.214665 140.205459 
L 339.19332 144.127433 
L 341.841018 147.260969 
L 345.032314 150.677534 
L 348.347036 153.871719 
L 351.322418 156.47963 
L 355.075174 159.471651 
L 359.625265 162.726485 
L 363.317798 165.112016 
L 367.973812 167.841224 
L 373.173856 170.590649 
L 379.573401 173.602887 
L 385.955324 176.271447 
L 392.905947 178.859141 
L 399.427569 181.042508 
L 406.173214 183.08436 
L 413.223454 185.025131 
L 425.727677 188.057585 
L 439.41273 190.887876 
L 450.885713 192.949944 
L 461.834874 194.708768 
L 475.536497 196.669755 
L 485.270651 197.923169 
L 485.270651 197.923169 
" clip-path="url(#p237e205e15)" style="fill: none; stroke: #9467bd; stroke-width: 1.5; stroke-linecap: square"/>
   </g>
   <g id="patch_12">
    <path d="M 328.94125 223.416 
L 328.94125 123.624 
" style="fill: none; stroke: #000000; stroke-width: 0.8; stroke-linejoin: miter; stroke-linecap: square"/>
   </g>
   <g id="patch_13">
    <path d="M 485.18125 223.416 
L 485.18125 123.624 
" style="fill: none; stroke: #000000; stroke-width: 0.8; stroke-linejoin: miter; stroke-linecap: square"/>
   </g>
   <g id="patch_14">
    <path d="M 328.94125 223.416 
L 485.18125 223.416 
" style="fill: none; stroke: #000000; stroke-width: 0.8; stroke-linejoin: miter; stroke-linecap: square"/>
   </g>
   <g id="patch_15">
    <path d="M 328.94125 123.624 
L 485.18125 123.624 
" style="fill: none; stroke: #000000; stroke-width: 0.8; stroke-linejoin: miter; stroke-linecap: square"/>
   </g>
  </g>
 </g>
 <defs>
  <clipPath id="p96ab63aebe">
   <rect x="43.78125" y="7.2" width="446.4" height="332.64"/>
  </clipPath>
  <clipPath id="p237e205e15">
   <rect x="328.94125" y="123.624" width="156.24" height="99.792"/>
  </clipPath>
 </defs>
</svg>
