<?xml version="1.0" encoding="utf-8" standalone="no"?>
<!DOCTYPE svg PUBLIC "-//W3C//DTD SVG 1.1//EN"
  "http://www.w3.org/Graphics/SVG/1.1/DTD/svg11.dtd">
<svg xmlns:xlink="http://www.w3.org/1999/xlink" width="460.8pt" height="345.6pt" viewBox="0 0 460.8 345.6" xmlns="http://www.w3.org/2000/svg" version="1.1">
 <metadata>
  <rdf:RDF xmlns:dc="http://purl.org/dc/elements/1.1/" xmlns:cc="http://creativecommons.org/ns#" xmlns:rdf="http://www.w3.org/1999/02/22-rdf-syntax-ns#">
   <cc:Work>
    <dc:type rdf:resource="http://purl.org/dc/dcmitype/StillImage"/>
    <dc:date>2025-04-29T23:01:51.611452</dc:date>
    <dc:format>image/svg+xml</dc:format>
    <dc:creator>
     <cc:Agent>
      <dc:title>Matplotlib v3.8.4, https://matplotlib.org/</dc:title>
     </cc:Agent>
    </dc:creator>
   </cc:Work>
  </rdf:RDF>
 </metadata>
 <defs>
  <style type="text/css">*{stroke-linejoin: round; stroke-linecap: butt}</style>
 </defs>
 <g id="figure_1">
  <g id="patch_1">
   <path d="M 0 345.6 
L 460.8 345.6 
L 460.8 0 
L 0 0 
z
" style="fill: #ffffff"/>
  </g>
  <g id="axes_1">
   <g id="patch_2">
    <path d="M 60.59 303.64 
L 449.481332 303.64 
L 449.481332 10.8 
L 60.59 10.8 
z
" style="fill: #ffffff"/>
   </g>
   <g id="matplotlib.axis_1">
    <g id="xtick_1">
     <g id="line2d_1">
      <path d="M 78.266879 303.64 
L 78.266879 10.8 
" clip-path="url(#p3a4bad0629)" style="fill: none; stroke: #b0b0b0; stroke-width: 0.8; stroke-linecap: square"/>
     </g>
     <g id="line2d_2">
      <defs>
       <path id="mfdba78bc03" d="M 0 0 
L 0 3.5 
" style="stroke: #000000; stroke-width: 0.8"/>
      </defs>
      <g>
       <use xlink:href="#mfdba78bc03" x="78.266879" y="303.64" style="stroke: #000000; stroke-width: 0.8"/>
      </g>
     </g>
     <g id="text_1">
      <!-- 0 -->
      <g transform="translate(75.085629 318.238437) scale(0.1 -0.1)">
       <defs>
        <path id="DejaVuSans-30" d="M 2034 4250 
Q 1547 4250 1301 3770 
Q 1056 3291 1056 2328 
Q 1056 1369 1301 889 
Q 1547 409 2034 409 
Q 2525 409 2770 889 
Q 3016 1369 3016 2328 
Q 3016 3291 2770 3770 
Q 2525 4250 2034 4250 
z
M 2034 4750 
Q 2819 4750 3233 4129 
Q 3647 3509 3647 2328 
Q 3647 1150 3233 529 
Q 2819 -91 2034 -91 
Q 1250 -91 836 529 
Q 422 1150 422 2328 
Q 422 3509 836 4129 
Q 1250 4750 2034 4750 
z
" transform="scale(0.015625)"/>
       </defs>
       <use xlink:href="#DejaVuSans-30"/>
      </g>
     </g>
    </g>
    <g id="xtick_2">
     <g id="line2d_3">
      <path d="M 150.713103 303.64 
L 150.713103 10.8 
" clip-path="url(#p3a4bad0629)" style="fill: none; stroke: #b0b0b0; stroke-width: 0.8; stroke-linecap: square"/>
     </g>
     <g id="line2d_4">
      <g>
       <use xlink:href="#mfdba78bc03" x="150.713103" y="303.64" style="stroke: #000000; stroke-width: 0.8"/>
      </g>
     </g>
     <g id="text_2">
      <!-- 50 -->
      <g transform="translate(144.350603 318.238437) scale(0.1 -0.1)">
       <defs>
        <path id="DejaVuSans-35" d="M 691 4666 
L 3169 4666 
L 3169 4134 
L 1269 4134 
L 1269 2991 
Q 1406 3038 1543 3061 
Q 1681 3084 1819 3084 
Q 2600 3084 3056 2656 
Q 3513 2228 3513 1497 
Q 3513 744 3044 326 
Q 2575 -91 1722 -91 
Q 1428 -91 1123 -41 
Q 819 9 494 109 
L 494 744 
Q 775 591 1075 516 
Q 1375 441 1709 441 
Q 2250 441 2565 725 
Q 2881 1009 2881 1497 
Q 2881 1984 2565 2268 
Q 2250 2553 1709 2553 
Q 1456 2553 1204 2497 
Q 953 2441 691 2322 
L 691 4666 
z
" transform="scale(0.015625)"/>
       </defs>
       <use xlink:href="#DejaVuSans-35"/>
       <use xlink:href="#DejaVuSans-30" x="63.623047"/>
      </g>
     </g>
    </g>
    <g id="xtick_3">
     <g id="line2d_5">
      <path d="M 223.159327 303.64 
L 223.159327 10.8 
" clip-path="url(#p3a4bad0629)" style="fill: none; stroke: #b0b0b0; stroke-width: 0.8; stroke-linecap: square"/>
     </g>
     <g id="line2d_6">
      <g>
       <use xlink:href="#mfdba78bc03" x="223.159327" y="303.64" style="stroke: #000000; stroke-width: 0.8"/>
      </g>
     </g>
     <g id="text_3">
      <!-- 100 -->
      <g transform="translate(213.615577 318.238437) scale(0.1 -0.1)">
       <defs>
        <path id="DejaVuSans-31" d="M 794 531 
L 1825 531 
L 1825 4091 
L 703 3866 
L 703 4441 
L 1819 4666 
L 2450 4666 
L 2450 531 
L 3481 531 
L 3481 0 
L 794 0 
L 794 531 
z
" transform="scale(0.015625)"/>
       </defs>
       <use xlink:href="#DejaVuSans-31"/>
       <use xlink:href="#DejaVuSans-30" x="63.623047"/>
       <use xlink:href="#DejaVuSans-30" x="127.246094"/>
      </g>
     </g>
    </g>
    <g id="xtick_4">
     <g id="line2d_7">
      <path d="M 295.605551 303.64 
L 295.605551 10.8 
" clip-path="url(#p3a4bad0629)" style="fill: none; stroke: #b0b0b0; stroke-width: 0.8; stroke-linecap: square"/>
     </g>
     <g id="line2d_8">
      <g>
       <use xlink:href="#mfdba78bc03" x="295.605551" y="303.64" style="stroke: #000000; stroke-width: 0.8"/>
      </g>
     </g>
     <g id="text_4">
      <!-- 150 -->
      <g transform="translate(286.061801 318.238437) scale(0.1 -0.1)">
       <use xlink:href="#DejaVuSans-31"/>
       <use xlink:href="#DejaVuSans-35" x="63.623047"/>
       <use xlink:href="#DejaVuSans-30" x="127.246094"/>
      </g>
     </g>
    </g>
    <g id="xtick_5">
     <g id="line2d_9">
      <path d="M 368.051776 303.64 
L 368.051776 10.8 
" clip-path="url(#p3a4bad0629)" style="fill: none; stroke: #b0b0b0; stroke-width: 0.8; stroke-linecap: square"/>
     </g>
     <g id="line2d_10">
      <g>
       <use xlink:href="#mfdba78bc03" x="368.051776" y="303.64" style="stroke: #000000; stroke-width: 0.8"/>
      </g>
     </g>
     <g id="text_5">
      <!-- 200 -->
      <g transform="translate(358.508026 318.238437) scale(0.1 -0.1)">
       <defs>
        <path id="DejaVuSans-32" d="M 1228 531 
L 3431 531 
L 3431 0 
L 469 0 
L 469 531 
Q 828 903 1448 1529 
Q 2069 2156 2228 2338 
Q 2531 2678 2651 2914 
Q 2772 3150 2772 3378 
Q 2772 3750 2511 3984 
Q 2250 4219 1831 4219 
Q 1534 4219 1204 4116 
Q 875 4013 500 3803 
L 500 4441 
Q 881 4594 1212 4672 
Q 1544 4750 1819 4750 
Q 2544 4750 2975 4387 
Q 3406 4025 3406 3419 
Q 3406 3131 3298 2873 
Q 3191 2616 2906 2266 
Q 2828 2175 2409 1742 
Q 1991 1309 1228 531 
z
" transform="scale(0.015625)"/>
       </defs>
       <use xlink:href="#DejaVuSans-32"/>
       <use xlink:href="#DejaVuSans-30" x="63.623047"/>
       <use xlink:href="#DejaVuSans-30" x="127.246094"/>
      </g>
     </g>
    </g>
    <g id="xtick_6">
     <g id="line2d_11">
      <path d="M 440.498 303.64 
L 440.498 10.8 
" clip-path="url(#p3a4bad0629)" style="fill: none; stroke: #b0b0b0; stroke-width: 0.8; stroke-linecap: square"/>
     </g>
     <g id="line2d_12">
      <g>
       <use xlink:href="#mfdba78bc03" x="440.498" y="303.64" style="stroke: #000000; stroke-width: 0.8"/>
      </g>
     </g>
     <g id="text_6">
      <!-- 250 -->
      <g transform="translate(430.95425 318.238437) scale(0.1 -0.1)">
       <use xlink:href="#DejaVuSans-32"/>
       <use xlink:href="#DejaVuSans-35" x="63.623047"/>
       <use xlink:href="#DejaVuSans-30" x="127.246094"/>
      </g>
     </g>
    </g>
    <g id="text_7">
     <!-- Epoch -->
     <g transform="translate(239.724728 331.916562) scale(0.1 -0.1)">
      <defs>
       <path id="DejaVuSans-45" d="M 628 4666 
L 3578 4666 
L 3578 4134 
L 1259 4134 
L 1259 2753 
L 3481 2753 
L 3481 2222 
L 1259 2222 
L 1259 531 
L 3634 531 
L 3634 0 
L 628 0 
L 628 4666 
z
" transform="scale(0.015625)"/>
       <path id="DejaVuSans-70" d="M 1159 525 
L 1159 -1331 
L 581 -1331 
L 581 3500 
L 1159 3500 
L 1159 2969 
Q 1341 3281 1617 3432 
Q 1894 3584 2278 3584 
Q 2916 3584 3314 3078 
Q 3713 2572 3713 1747 
Q 3713 922 3314 415 
Q 2916 -91 2278 -91 
Q 1894 -91 1617 61 
Q 1341 213 1159 525 
z
M 3116 1747 
Q 3116 2381 2855 2742 
Q 2594 3103 2138 3103 
Q 1681 3103 1420 2742 
Q 1159 2381 1159 1747 
Q 1159 1113 1420 752 
Q 1681 391 2138 391 
Q 2594 391 2855 752 
Q 3116 1113 3116 1747 
z
" transform="scale(0.015625)"/>
       <path id="DejaVuSans-6f" d="M 1959 3097 
Q 1497 3097 1228 2736 
Q 959 2375 959 1747 
Q 959 1119 1226 758 
Q 1494 397 1959 397 
Q 2419 397 2687 759 
Q 2956 1122 2956 1747 
Q 2956 2369 2687 2733 
Q 2419 3097 1959 3097 
z
M 1959 3584 
Q 2709 3584 3137 3096 
Q 3566 2609 3566 1747 
Q 3566 888 3137 398 
Q 2709 -91 1959 -91 
Q 1206 -91 779 398 
Q 353 888 353 1747 
Q 353 2609 779 3096 
Q 1206 3584 1959 3584 
z
" transform="scale(0.015625)"/>
       <path id="DejaVuSans-63" d="M 3122 3366 
L 3122 2828 
Q 2878 2963 2633 3030 
Q 2388 3097 2138 3097 
Q 1578 3097 1268 2742 
Q 959 2388 959 1747 
Q 959 1106 1268 751 
Q 1578 397 2138 397 
Q 2388 397 2633 464 
Q 2878 531 3122 666 
L 3122 134 
Q 2881 22 2623 -34 
Q 2366 -91 2075 -91 
Q 1284 -91 818 406 
Q 353 903 353 1747 
Q 353 2603 823 3093 
Q 1294 3584 2113 3584 
Q 2378 3584 2631 3529 
Q 2884 3475 3122 3366 
z
" transform="scale(0.015625)"/>
       <path id="DejaVuSans-68" d="M 3513 2113 
L 3513 0 
L 2938 0 
L 2938 2094 
Q 2938 2591 2744 2837 
Q 2550 3084 2163 3084 
Q 1697 3084 1428 2787 
Q 1159 2491 1159 1978 
L 1159 0 
L 581 0 
L 581 4863 
L 1159 4863 
L 1159 2956 
Q 1366 3272 1645 3428 
Q 1925 3584 2291 3584 
Q 2894 3584 3203 3211 
Q 3513 2838 3513 2113 
z
" transform="scale(0.015625)"/>
      </defs>
      <use xlink:href="#DejaVuSans-45"/>
      <use xlink:href="#DejaVuSans-70" x="63.183594"/>
      <use xlink:href="#DejaVuSans-6f" x="126.660156"/>
      <use xlink:href="#DejaVuSans-63" x="187.841797"/>
      <use xlink:href="#DejaVuSans-68" x="242.822266"/>
     </g>
    </g>
   </g>
   <g id="matplotlib.axis_2">
    <g id="ytick_1">
     <g id="line2d_13">
      <path d="M 60.59 290.329091 
L 449.481332 290.329091 
" clip-path="url(#p3a4bad0629)" style="fill: none; stroke: #b0b0b0; stroke-width: 0.8; stroke-linecap: square"/>
     </g>
     <g id="line2d_14">
      <defs>
       <path id="m06216bba4e" d="M 0 0 
L -3.5 0 
" style="stroke: #000000; stroke-width: 0.8"/>
      </defs>
      <g>
       <use xlink:href="#m06216bba4e" x="60.59" y="290.329091" style="stroke: #000000; stroke-width: 0.8"/>
      </g>
     </g>
     <g id="text_8">
      <!-- 0.000 -->
      <g transform="translate(24.961875 294.12831) scale(0.1 -0.1)">
       <defs>
        <path id="DejaVuSans-2e" d="M 684 794 
L 1344 794 
L 1344 0 
L 684 0 
L 684 794 
z
" transform="scale(0.015625)"/>
       </defs>
       <use xlink:href="#DejaVuSans-30"/>
       <use xlink:href="#DejaVuSans-2e" x="63.623047"/>
       <use xlink:href="#DejaVuSans-30" x="95.410156"/>
       <use xlink:href="#DejaVuSans-30" x="159.033203"/>
       <use xlink:href="#DejaVuSans-30" x="222.65625"/>
      </g>
     </g>
    </g>
    <g id="ytick_2">
     <g id="line2d_15">
      <path d="M 60.59 257.199373 
L 449.481332 257.199373 
" clip-path="url(#p3a4bad0629)" style="fill: none; stroke: #b0b0b0; stroke-width: 0.8; stroke-linecap: square"/>
     </g>
     <g id="line2d_16">
      <g>
       <use xlink:href="#m06216bba4e" x="60.59" y="257.199373" style="stroke: #000000; stroke-width: 0.8"/>
      </g>
     </g>
     <g id="text_9">
      <!-- 0.002 -->
      <g transform="translate(24.961875 260.998592) scale(0.1 -0.1)">
       <use xlink:href="#DejaVuSans-30"/>
       <use xlink:href="#DejaVuSans-2e" x="63.623047"/>
       <use xlink:href="#DejaVuSans-30" x="95.410156"/>
       <use xlink:href="#DejaVuSans-30" x="159.033203"/>
       <use xlink:href="#DejaVuSans-32" x="222.65625"/>
      </g>
     </g>
    </g>
    <g id="ytick_3">
     <g id="line2d_17">
      <path d="M 60.59 224.069656 
L 449.481332 224.069656 
" clip-path="url(#p3a4bad0629)" style="fill: none; stroke: #b0b0b0; stroke-width: 0.8; stroke-linecap: square"/>
     </g>
     <g id="line2d_18">
      <g>
       <use xlink:href="#m06216bba4e" x="60.59" y="224.069656" style="stroke: #000000; stroke-width: 0.8"/>
      </g>
     </g>
     <g id="text_10">
      <!-- 0.004 -->
      <g transform="translate(24.961875 227.868875) scale(0.1 -0.1)">
       <defs>
        <path id="DejaVuSans-34" d="M 2419 4116 
L 825 1625 
L 2419 1625 
L 2419 4116 
z
M 2253 4666 
L 3047 4666 
L 3047 1625 
L 3713 1625 
L 3713 1100 
L 3047 1100 
L 3047 0 
L 2419 0 
L 2419 1100 
L 313 1100 
L 313 1709 
L 2253 4666 
z
" transform="scale(0.015625)"/>
       </defs>
       <use xlink:href="#DejaVuSans-30"/>
       <use xlink:href="#DejaVuSans-2e" x="63.623047"/>
       <use xlink:href="#DejaVuSans-30" x="95.410156"/>
       <use xlink:href="#DejaVuSans-30" x="159.033203"/>
       <use xlink:href="#DejaVuSans-34" x="222.65625"/>
      </g>
     </g>
    </g>
    <g id="ytick_4">
     <g id="line2d_19">
      <path d="M 60.59 190.939939 
L 449.481332 190.939939 
" clip-path="url(#p3a4bad0629)" style="fill: none; stroke: #b0b0b0; stroke-width: 0.8; stroke-linecap: square"/>
     </g>
     <g id="line2d_20">
      <g>
       <use xlink:href="#m06216bba4e" x="60.59" y="190.939939" style="stroke: #000000; stroke-width: 0.8"/>
      </g>
     </g>
     <g id="text_11">
      <!-- 0.006 -->
      <g transform="translate(24.961875 194.739157) scale(0.1 -0.1)">
       <defs>
        <path id="DejaVuSans-36" d="M 2113 2584 
Q 1688 2584 1439 2293 
Q 1191 2003 1191 1497 
Q 1191 994 1439 701 
Q 1688 409 2113 409 
Q 2538 409 2786 701 
Q 3034 994 3034 1497 
Q 3034 2003 2786 2293 
Q 2538 2584 2113 2584 
z
M 3366 4563 
L 3366 3988 
Q 3128 4100 2886 4159 
Q 2644 4219 2406 4219 
Q 1781 4219 1451 3797 
Q 1122 3375 1075 2522 
Q 1259 2794 1537 2939 
Q 1816 3084 2150 3084 
Q 2853 3084 3261 2657 
Q 3669 2231 3669 1497 
Q 3669 778 3244 343 
Q 2819 -91 2113 -91 
Q 1303 -91 875 529 
Q 447 1150 447 2328 
Q 447 3434 972 4092 
Q 1497 4750 2381 4750 
Q 2619 4750 2861 4703 
Q 3103 4656 3366 4563 
z
" transform="scale(0.015625)"/>
       </defs>
       <use xlink:href="#DejaVuSans-30"/>
       <use xlink:href="#DejaVuSans-2e" x="63.623047"/>
       <use xlink:href="#DejaVuSans-30" x="95.410156"/>
       <use xlink:href="#DejaVuSans-30" x="159.033203"/>
       <use xlink:href="#DejaVuSans-36" x="222.65625"/>
      </g>
     </g>
    </g>
    <g id="ytick_5">
     <g id="line2d_21">
      <path d="M 60.59 157.810221 
L 449.481332 157.810221 
" clip-path="url(#p3a4bad0629)" style="fill: none; stroke: #b0b0b0; stroke-width: 0.8; stroke-linecap: square"/>
     </g>
     <g id="line2d_22">
      <g>
       <use xlink:href="#m06216bba4e" x="60.59" y="157.810221" style="stroke: #000000; stroke-width: 0.8"/>
      </g>
     </g>
     <g id="text_12">
      <!-- 0.008 -->
      <g transform="translate(24.961875 161.60944) scale(0.1 -0.1)">
       <defs>
        <path id="DejaVuSans-38" d="M 2034 2216 
Q 1584 2216 1326 1975 
Q 1069 1734 1069 1313 
Q 1069 891 1326 650 
Q 1584 409 2034 409 
Q 2484 409 2743 651 
Q 3003 894 3003 1313 
Q 3003 1734 2745 1975 
Q 2488 2216 2034 2216 
z
M 1403 2484 
Q 997 2584 770 2862 
Q 544 3141 544 3541 
Q 544 4100 942 4425 
Q 1341 4750 2034 4750 
Q 2731 4750 3128 4425 
Q 3525 4100 3525 3541 
Q 3525 3141 3298 2862 
Q 3072 2584 2669 2484 
Q 3125 2378 3379 2068 
Q 3634 1759 3634 1313 
Q 3634 634 3220 271 
Q 2806 -91 2034 -91 
Q 1263 -91 848 271 
Q 434 634 434 1313 
Q 434 1759 690 2068 
Q 947 2378 1403 2484 
z
M 1172 3481 
Q 1172 3119 1398 2916 
Q 1625 2713 2034 2713 
Q 2441 2713 2670 2916 
Q 2900 3119 2900 3481 
Q 2900 3844 2670 4047 
Q 2441 4250 2034 4250 
Q 1625 4250 1398 4047 
Q 1172 3844 1172 3481 
z
" transform="scale(0.015625)"/>
       </defs>
       <use xlink:href="#DejaVuSans-30"/>
       <use xlink:href="#DejaVuSans-2e" x="63.623047"/>
       <use xlink:href="#DejaVuSans-30" x="95.410156"/>
       <use xlink:href="#DejaVuSans-30" x="159.033203"/>
       <use xlink:href="#DejaVuSans-38" x="222.65625"/>
      </g>
     </g>
    </g>
    <g id="ytick_6">
     <g id="line2d_23">
      <path d="M 60.59 124.680504 
L 449.481332 124.680504 
" clip-path="url(#p3a4bad0629)" style="fill: none; stroke: #b0b0b0; stroke-width: 0.8; stroke-linecap: square"/>
     </g>
     <g id="line2d_24">
      <g>
       <use xlink:href="#m06216bba4e" x="60.59" y="124.680504" style="stroke: #000000; stroke-width: 0.8"/>
      </g>
     </g>
     <g id="text_13">
      <!-- 0.010 -->
      <g transform="translate(24.961875 128.479722) scale(0.1 -0.1)">
       <use xlink:href="#DejaVuSans-30"/>
       <use xlink:href="#DejaVuSans-2e" x="63.623047"/>
       <use xlink:href="#DejaVuSans-30" x="95.410156"/>
       <use xlink:href="#DejaVuSans-31" x="159.033203"/>
       <use xlink:href="#DejaVuSans-30" x="222.65625"/>
      </g>
     </g>
    </g>
    <g id="ytick_7">
     <g id="line2d_25">
      <path d="M 60.59 91.550786 
L 449.481332 91.550786 
" clip-path="url(#p3a4bad0629)" style="fill: none; stroke: #b0b0b0; stroke-width: 0.8; stroke-linecap: square"/>
     </g>
     <g id="line2d_26">
      <g>
       <use xlink:href="#m06216bba4e" x="60.59" y="91.550786" style="stroke: #000000; stroke-width: 0.8"/>
      </g>
     </g>
     <g id="text_14">
      <!-- 0.012 -->
      <g transform="translate(24.961875 95.350005) scale(0.1 -0.1)">
       <use xlink:href="#DejaVuSans-30"/>
       <use xlink:href="#DejaVuSans-2e" x="63.623047"/>
       <use xlink:href="#DejaVuSans-30" x="95.410156"/>
       <use xlink:href="#DejaVuSans-31" x="159.033203"/>
       <use xlink:href="#DejaVuSans-32" x="222.65625"/>
      </g>
     </g>
    </g>
    <g id="ytick_8">
     <g id="line2d_27">
      <path d="M 60.59 58.421069 
L 449.481332 58.421069 
" clip-path="url(#p3a4bad0629)" style="fill: none; stroke: #b0b0b0; stroke-width: 0.8; stroke-linecap: square"/>
     </g>
     <g id="line2d_28">
      <g>
       <use xlink:href="#m06216bba4e" x="60.59" y="58.421069" style="stroke: #000000; stroke-width: 0.8"/>
      </g>
     </g>
     <g id="text_15">
      <!-- 0.014 -->
      <g transform="translate(24.961875 62.220288) scale(0.1 -0.1)">
       <use xlink:href="#DejaVuSans-30"/>
       <use xlink:href="#DejaVuSans-2e" x="63.623047"/>
       <use xlink:href="#DejaVuSans-30" x="95.410156"/>
       <use xlink:href="#DejaVuSans-31" x="159.033203"/>
       <use xlink:href="#DejaVuSans-34" x="222.65625"/>
      </g>
     </g>
    </g>
    <g id="ytick_9">
     <g id="line2d_29">
      <path d="M 60.59 25.291351 
L 449.481332 25.291351 
" clip-path="url(#p3a4bad0629)" style="fill: none; stroke: #b0b0b0; stroke-width: 0.8; stroke-linecap: square"/>
     </g>
     <g id="line2d_30">
      <g>
       <use xlink:href="#m06216bba4e" x="60.59" y="25.291351" style="stroke: #000000; stroke-width: 0.8"/>
      </g>
     </g>
     <g id="text_16">
      <!-- 0.016 -->
      <g transform="translate(24.961875 29.09057) scale(0.1 -0.1)">
       <use xlink:href="#DejaVuSans-30"/>
       <use xlink:href="#DejaVuSans-2e" x="63.623047"/>
       <use xlink:href="#DejaVuSans-30" x="95.410156"/>
       <use xlink:href="#DejaVuSans-31" x="159.033203"/>
       <use xlink:href="#DejaVuSans-36" x="222.65625"/>
      </g>
     </g>
    </g>
    <g id="text_17">
     <!-- variance -->
     <g transform="translate(18.882188 178.746563) rotate(-90) scale(0.1 -0.1)">
      <defs>
       <path id="DejaVuSans-76" d="M 191 3500 
L 800 3500 
L 1894 563 
L 2988 3500 
L 3597 3500 
L 2284 0 
L 1503 0 
L 191 3500 
z
" transform="scale(0.015625)"/>
       <path id="DejaVuSans-61" d="M 2194 1759 
Q 1497 1759 1228 1600 
Q 959 1441 959 1056 
Q 959 750 1161 570 
Q 1363 391 1709 391 
Q 2188 391 2477 730 
Q 2766 1069 2766 1631 
L 2766 1759 
L 2194 1759 
z
M 3341 1997 
L 3341 0 
L 2766 0 
L 2766 531 
Q 2569 213 2275 61 
Q 1981 -91 1556 -91 
Q 1019 -91 701 211 
Q 384 513 384 1019 
Q 384 1609 779 1909 
Q 1175 2209 1959 2209 
L 2766 2209 
L 2766 2266 
Q 2766 2663 2505 2880 
Q 2244 3097 1772 3097 
Q 1472 3097 1187 3025 
Q 903 2953 641 2809 
L 641 3341 
Q 956 3463 1253 3523 
Q 1550 3584 1831 3584 
Q 2591 3584 2966 3190 
Q 3341 2797 3341 1997 
z
" transform="scale(0.015625)"/>
       <path id="DejaVuSans-72" d="M 2631 2963 
Q 2534 3019 2420 3045 
Q 2306 3072 2169 3072 
Q 1681 3072 1420 2755 
Q 1159 2438 1159 1844 
L 1159 0 
L 581 0 
L 581 3500 
L 1159 3500 
L 1159 2956 
Q 1341 3275 1631 3429 
Q 1922 3584 2338 3584 
Q 2397 3584 2469 3576 
Q 2541 3569 2628 3553 
L 2631 2963 
z
" transform="scale(0.015625)"/>
       <path id="DejaVuSans-69" d="M 603 3500 
L 1178 3500 
L 1178 0 
L 603 0 
L 603 3500 
z
M 603 4863 
L 1178 4863 
L 1178 4134 
L 603 4134 
L 603 4863 
z
" transform="scale(0.015625)"/>
       <path id="DejaVuSans-6e" d="M 3513 2113 
L 3513 0 
L 2938 0 
L 2938 2094 
Q 2938 2591 2744 2837 
Q 2550 3084 2163 3084 
Q 1697 3084 1428 2787 
Q 1159 2491 1159 1978 
L 1159 0 
L 581 0 
L 581 3500 
L 1159 3500 
L 1159 2956 
Q 1366 3272 1645 3428 
Q 1925 3584 2291 3584 
Q 2894 3584 3203 3211 
Q 3513 2838 3513 2113 
z
" transform="scale(0.015625)"/>
       <path id="DejaVuSans-65" d="M 3597 1894 
L 3597 1613 
L 953 1613 
Q 991 1019 1311 708 
Q 1631 397 2203 397 
Q 2534 397 2845 478 
Q 3156 559 3463 722 
L 3463 178 
Q 3153 47 2828 -22 
Q 2503 -91 2169 -91 
Q 1331 -91 842 396 
Q 353 884 353 1716 
Q 353 2575 817 3079 
Q 1281 3584 2069 3584 
Q 2775 3584 3186 3129 
Q 3597 2675 3597 1894 
z
M 3022 2063 
Q 3016 2534 2758 2815 
Q 2500 3097 2075 3097 
Q 1594 3097 1305 2825 
Q 1016 2553 972 2059 
L 3022 2063 
z
" transform="scale(0.015625)"/>
      </defs>
      <use xlink:href="#DejaVuSans-76"/>
      <use xlink:href="#DejaVuSans-61" x="59.179688"/>
      <use xlink:href="#DejaVuSans-72" x="120.458984"/>
      <use xlink:href="#DejaVuSans-69" x="161.572266"/>
      <use xlink:href="#DejaVuSans-61" x="189.355469"/>
      <use xlink:href="#DejaVuSans-6e" x="250.634766"/>
      <use xlink:href="#DejaVuSans-63" x="314.013672"/>
      <use xlink:href="#DejaVuSans-65" x="368.994141"/>
     </g>
    </g>
   </g>
   <g id="line2d_31">
    <path d="M 78.266879 290.329091 
L 81.164728 290.329091 
L 84.062577 290.226546 
L 86.960426 289.6764 
L 89.858275 288.583306 
L 92.756124 287.189083 
L 95.653973 285.538733 
L 98.551821 283.765126 
L 101.44967 281.936362 
L 104.347519 280.153691 
L 107.245368 278.362575 
L 110.143217 276.63665 
L 113.041066 274.937593 
L 115.938915 273.313775 
L 118.836764 271.66113 
L 121.734613 270.037208 
L 124.632462 268.42131 
L 127.530311 266.805447 
L 130.42816 265.231308 
L 133.326009 263.60622 
L 136.223858 262.062869 
L 139.121707 260.549661 
L 142.019556 259.050305 
L 144.917405 257.535868 
L 147.815254 256.068185 
L 150.713103 254.587827 
L 153.610952 253.127348 
L 156.508801 251.664391 
L 159.40665 250.184529 
L 162.304499 248.680269 
L 165.202348 247.164209 
L 168.100197 245.670269 
L 170.998046 244.120666 
L 173.895895 242.582633 
L 176.793744 241.032923 
L 179.691593 239.405041 
L 182.589442 237.823008 
L 185.487291 236.196774 
L 188.38514 234.604352 
L 191.282988 232.941952 
L 194.180837 231.186847 
L 197.078686 229.461395 
L 199.976535 227.821133 
L 202.874384 226.193829 
L 205.772233 224.584382 
L 208.670082 222.966166 
L 211.567931 221.320357 
L 214.46578 219.640057 
L 217.363629 217.92943 
L 220.261478 216.174637 
L 223.159327 214.408346 
L 226.057176 212.632107 
L 228.955025 210.878193 
L 231.852874 209.114547 
L 234.750723 207.363485 
L 237.648572 205.53395 
L 240.546421 203.686534 
L 243.44427 201.810918 
L 246.342119 199.918971 
L 249.239968 197.981515 
L 252.137817 196.029447 
L 255.035666 194.097453 
L 257.933515 192.133736 
L 260.831364 190.193673 
L 263.729213 188.243065 
L 266.627062 186.281555 
L 269.524911 184.254086 
L 272.42276 182.195149 
L 275.320609 180.130557 
L 278.218458 178.033583 
L 281.116307 175.937764 
L 284.014155 173.786077 
L 286.912004 171.49695 
L 289.809853 169.200185 
L 292.707702 166.863337 
L 295.605551 164.51336 
L 298.5034 162.14064 
L 301.401249 159.745398 
L 304.299098 157.274204 
L 307.196947 154.735074 
L 310.094796 152.154279 
L 312.992645 149.556883 
L 315.890494 146.960587 
L 318.788343 144.380086 
L 321.686192 141.744352 
L 324.584041 139.016501 
L 327.48189 136.220943 
L 330.379739 133.399169 
L 333.277588 130.538233 
L 336.175437 127.621051 
L 339.073286 124.720239 
L 341.971135 121.765461 
L 344.868984 118.785342 
L 347.766833 115.813773 
L 350.664682 112.841345 
L 353.562531 109.780449 
L 356.46038 106.731071 
L 359.358229 103.724757 
L 362.256078 100.666091 
L 365.153927 97.649087 
L 368.051776 94.615064 
L 370.949625 91.563239 
L 373.847474 88.556149 
L 376.745322 85.535148 
L 379.643171 82.453591 
L 382.54102 79.31312 
L 385.438869 76.127596 
L 388.336718 72.970739 
L 391.234567 69.754998 
L 394.132416 66.531622 
L 397.030265 63.303948 
L 399.928114 60.112398 
L 402.825963 56.983081 
L 405.723812 53.834657 
L 408.621661 50.648055 
L 411.51951 47.417303 
L 414.417359 44.109275 
L 417.315208 40.783309 
L 420.213057 37.461641 
L 423.110906 34.137007 
L 426.008755 30.80413 
L 428.906604 27.435752 
L 431.804453 24.110909 
" clip-path="url(#p3a4bad0629)" style="fill: none; stroke: #1f77b4; stroke-width: 1.5; stroke-linecap: square"/>
   </g>
   <g id="line2d_32">
    <path d="M 78.266879 290.329091 
L 81.164728 290.329091 
L 84.062577 290.215963 
L 86.960426 289.651801 
L 89.858275 288.589249 
L 92.756124 287.072803 
L 95.653973 285.228763 
L 98.551821 283.313516 
L 101.44967 281.330232 
L 104.347519 279.369189 
L 107.245368 277.568496 
L 110.143217 275.778467 
L 113.041066 274.018954 
L 115.938915 272.278773 
L 118.836764 270.554912 
L 121.734613 268.971847 
L 124.632462 267.413274 
L 127.530311 265.916917 
L 130.42816 264.448554 
L 133.326009 263.002303 
L 136.223858 261.486478 
L 139.121707 260.005651 
L 142.019556 258.512834 
L 144.917405 257.059968 
L 147.815254 255.678782 
L 150.713103 254.270873 
L 153.610952 252.89694 
L 156.508801 251.512111 
L 159.40665 250.119385 
L 162.304499 248.729587 
L 165.202348 247.384003 
L 168.100197 246.087918 
L 170.998046 244.785193 
L 173.895895 243.491487 
L 176.793744 242.175178 
L 179.691593 240.885435 
L 182.589442 239.590857 
L 185.487291 238.287851 
L 188.38514 237.034527 
L 191.282988 235.791625 
L 194.180837 234.483275 
L 197.078686 233.146919 
L 199.976535 231.792096 
L 202.874384 230.368657 
L 205.772233 228.935773 
L 208.670082 227.565193 
L 211.567931 226.134694 
L 214.46578 224.709498 
L 217.363629 223.21977 
L 220.261478 221.697612 
L 223.159327 220.159174 
L 226.057176 218.633727 
L 228.955025 217.116941 
L 231.852874 215.601045 
L 234.750723 214.033425 
L 237.648572 212.491536 
L 240.546421 210.92934 
L 243.44427 209.343504 
L 246.342119 207.806862 
L 249.239968 206.211066 
L 252.137817 204.647362 
L 255.035666 203.108331 
L 257.933515 201.557432 
L 260.831364 199.996686 
L 263.729213 198.39373 
L 266.627062 196.779606 
L 269.524911 195.139613 
L 272.42276 193.46462 
L 275.320609 191.759426 
L 278.218458 190.074506 
L 281.116307 188.361499 
L 284.014155 186.591908 
L 286.912004 184.77078 
L 289.809853 182.914658 
L 292.707702 181.049892 
L 295.605551 179.136916 
L 298.5034 177.111813 
L 301.401249 175.103551 
L 304.299098 173.106112 
L 307.196947 171.090137 
L 310.094796 169.10058 
L 312.992645 167.092771 
L 315.890494 165.093581 
L 318.788343 163.117099 
L 321.686192 161.163279 
L 324.584041 159.216625 
L 327.48189 157.277865 
L 330.379739 155.286041 
L 333.277588 153.27082 
L 336.175437 151.263528 
L 339.073286 149.257852 
L 341.971135 147.223153 
L 344.868984 145.2153 
L 347.766833 143.163419 
L 350.664682 141.057924 
L 353.562531 138.939952 
L 356.46038 136.787568 
L 359.358229 134.676976 
L 362.256078 132.548304 
L 365.153927 130.426853 
L 368.051776 128.333985 
L 370.949625 126.24929 
L 373.847474 124.11208 
L 376.745322 121.942158 
L 379.643171 119.777286 
L 382.54102 117.526965 
L 385.438869 115.301493 
L 388.336718 113.128432 
L 391.234567 110.937534 
L 394.132416 108.73021 
L 397.030265 106.514347 
L 399.928114 104.270873 
L 402.825963 102.003753 
L 405.723812 99.773446 
L 408.621661 97.547485 
L 411.51951 95.279151 
L 414.417359 93.016449 
L 417.315208 90.784967 
L 420.213057 88.541589 
L 423.110906 86.29877 
L 426.008755 84.077261 
L 428.906604 81.900584 
L 431.804453 79.711497 
" clip-path="url(#p3a4bad0629)" style="fill: none; stroke: #ff7f0e; stroke-width: 1.5; stroke-linecap: square"/>
   </g>
   <g id="line2d_33">
    <path d="M 78.266879 290.329091 
L 81.164728 290.329091 
L 84.062577 290.196636 
L 86.960426 289.596938 
L 89.858275 288.441542 
L 92.756124 287.000993 
L 95.653973 285.322196 
L 98.551821 283.66553 
L 101.44967 281.974115 
L 104.347519 280.283452 
L 107.245368 278.729468 
L 110.143217 277.258757 
L 113.041066 275.86383 
L 115.938915 274.498676 
L 118.836764 273.210964 
L 121.734613 271.942196 
L 124.632462 270.691794 
L 127.530311 269.564014 
L 130.42816 268.476683 
L 133.326009 267.432076 
L 136.223858 266.44614 
L 139.121707 265.422294 
L 142.019556 264.356522 
L 144.917405 263.246881 
L 147.815254 262.145135 
L 150.713103 261.056476 
L 153.610952 259.943845 
L 156.508801 258.820835 
L 159.40665 257.695951 
L 162.304499 256.549482 
L 165.202348 255.428848 
L 168.100197 254.287804 
L 170.998046 253.15071 
L 173.895895 252.051165 
L 176.793744 250.943786 
L 179.691593 249.831956 
L 182.589442 248.698626 
L 185.487291 247.534216 
L 188.38514 246.351069 
L 191.282988 245.103898 
L 194.180837 243.89254 
L 197.078686 242.644459 
L 199.976535 241.379596 
L 202.874384 240.072177 
L 205.772233 238.7328 
L 208.670082 237.414322 
L 211.567931 236.065292 
L 214.46578 234.730444 
L 217.363629 233.354414 
L 220.261478 231.980085 
L 223.159327 230.555686 
L 226.057176 229.179455 
L 228.955025 227.770096 
L 231.852874 226.369825 
L 234.750723 224.947943 
L 237.648572 223.521434 
L 240.546421 222.076308 
L 243.44427 220.584758 
L 246.342119 219.096475 
L 249.239968 217.662107 
L 252.137817 216.209865 
L 255.035666 214.704603 
L 257.933515 213.199419 
L 260.831364 211.675327 
L 263.729213 210.129381 
L 266.627062 208.592435 
L 269.524911 207.021309 
L 272.42276 205.422234 
L 275.320609 203.814055 
L 278.218458 202.211339 
L 281.116307 200.614119 
L 284.014155 198.940371 
L 286.912004 197.219675 
L 289.809853 195.460783 
L 292.707702 193.656034 
L 295.605551 191.770367 
L 298.5034 189.839943 
L 301.401249 187.903729 
L 304.299098 185.97143 
L 307.196947 183.984678 
L 310.094796 181.973467 
L 312.992645 179.915757 
L 315.890494 177.868984 
L 318.788343 175.816856 
L 321.686192 173.795473 
L 324.584041 171.722826 
L 327.48189 169.632243 
L 330.379739 167.537914 
L 333.277588 165.442485 
L 336.175437 163.290555 
L 339.073286 161.094628 
L 341.971135 158.91141 
L 344.868984 156.690424 
L 347.766833 154.472825 
L 350.664682 152.226398 
L 353.562531 149.935056 
L 356.46038 147.614859 
L 359.358229 145.285303 
L 362.256078 142.937048 
L 365.153927 140.551629 
L 368.051776 138.193119 
L 370.949625 135.794057 
L 373.847474 133.329662 
L 376.745322 130.884311 
L 379.643171 128.447233 
L 382.54102 125.953729 
L 385.438869 123.421328 
L 388.336718 120.86626 
L 391.234567 118.335325 
L 394.132416 115.767298 
L 397.030265 113.208296 
L 399.928114 110.649028 
L 402.825963 108.066335 
L 405.723812 105.519167 
L 408.621661 102.96559 
L 411.51951 100.409108 
L 414.417359 97.799513 
L 417.315208 95.132136 
L 420.213057 92.460036 
L 423.110906 89.749332 
L 426.008755 87.032078 
L 428.906604 84.312715 
L 431.804453 81.576345 
" clip-path="url(#p3a4bad0629)" style="fill: none; stroke: #2ca02c; stroke-width: 1.5; stroke-linecap: square"/>
   </g>
   <g id="line2d_34">
    <path d="M 78.266879 290.329091 
L 81.164728 290.329091 
L 84.062577 290.264918 
L 86.960426 289.949108 
L 89.858275 289.302325 
L 92.756124 288.443258 
L 95.653973 287.363023 
L 98.551821 286.279382 
L 101.44967 285.196052 
L 104.347519 284.128288 
L 107.245368 283.095268 
L 110.143217 282.082022 
L 113.041066 281.15619 
L 115.938915 280.166705 
L 118.836764 279.214454 
L 121.734613 278.261468 
L 124.632462 277.346925 
L 127.530311 276.438591 
L 130.42816 275.55172 
L 133.326009 274.702193 
L 136.223858 273.848595 
L 139.121707 273.01142 
L 142.019556 272.190154 
L 144.917405 271.363239 
L 147.815254 270.53473 
L 150.713103 269.694521 
L 153.610952 268.895781 
L 156.508801 268.106272 
L 159.40665 267.328659 
L 162.304499 266.634284 
L 165.202348 265.928064 
L 168.100197 265.197083 
L 170.998046 264.438825 
L 173.895895 263.654041 
L 176.793744 262.901731 
L 179.691593 262.10859 
L 182.589442 261.298213 
L 185.487291 260.438698 
L 188.38514 259.563686 
L 191.282988 258.66789 
L 194.180837 257.772238 
L 197.078686 256.843068 
L 199.976535 255.909679 
L 202.874384 254.97537 
L 205.772233 254.050546 
L 208.670082 253.110682 
L 211.567931 252.168679 
L 214.46578 251.255858 
L 217.363629 250.37946 
L 220.261478 249.506808 
L 223.159327 248.614952 
L 226.057176 247.649144 
L 228.955025 246.682008 
L 231.852874 245.690134 
L 234.750723 244.651803 
L 237.648572 243.549135 
L 240.546421 242.436918 
L 243.44427 241.338211 
L 246.342119 240.188853 
L 249.239968 239.034924 
L 252.137817 237.878173 
L 255.035666 236.693846 
L 257.933515 235.494202 
L 260.831364 234.264317 
L 263.729213 232.987084 
L 266.627062 231.704889 
L 269.524911 230.439469 
L 272.42276 229.152877 
L 275.320609 227.839266 
L 278.218458 226.556999 
L 281.116307 225.227825 
L 284.014155 223.830442 
L 286.912004 222.432977 
L 289.809853 220.989379 
L 292.707702 219.517897 
L 295.605551 218.028012 
L 298.5034 216.562459 
L 301.401249 215.114561 
L 304.299098 213.673993 
L 307.196947 212.233807 
L 310.094796 210.766185 
L 312.992645 209.242399 
L 315.890494 207.706214 
L 318.788343 206.132936 
L 321.686192 204.528682 
L 324.584041 202.878451 
L 327.48189 201.242105 
L 330.379739 199.571447 
L 333.277588 197.926739 
L 336.175437 196.232118 
L 339.073286 194.572503 
L 341.971135 192.956532 
L 344.868984 191.373315 
L 347.766833 189.724042 
L 350.664682 188.070711 
L 353.562531 186.399347 
L 356.46038 184.69312 
L 359.358229 182.975322 
L 362.256078 181.233904 
L 365.153927 179.458508 
L 368.051776 177.63658 
L 370.949625 175.774622 
L 373.847474 173.887392 
L 376.745322 171.918472 
L 379.643171 169.903431 
L 382.54102 167.870405 
L 385.438869 165.812198 
L 388.336718 163.802485 
L 391.234567 161.776749 
L 394.132416 159.730714 
L 397.030265 157.723142 
L 399.928114 155.721659 
L 402.825963 153.786297 
L 405.723812 151.844373 
L 408.621661 149.919359 
L 411.51951 147.998701 
L 414.417359 146.102313 
L 417.315208 144.193182 
L 420.213057 142.316547 
L 423.110906 140.434281 
L 426.008755 138.543941 
L 428.906604 136.615938 
L 431.804453 134.701952 
" clip-path="url(#p3a4bad0629)" style="fill: none; stroke: #d62728; stroke-width: 1.5; stroke-linecap: square"/>
   </g>
   <g id="line2d_35">
    <path d="M 78.266879 290.329091 
L 81.164728 290.329091 
L 84.062577 290.301448 
L 86.960426 290.155702 
L 89.858275 289.880161 
L 92.756124 289.595365 
L 95.653973 289.278337 
L 98.551821 288.935329 
L 101.44967 288.596991 
L 104.347519 288.327523 
L 107.245368 288.026164 
L 110.143217 287.670124 
L 113.041066 287.330318 
L 115.938915 287.014457 
L 118.836764 286.7049 
L 121.734613 286.391711 
L 124.632462 286.116772 
L 127.530311 285.796189 
L 130.42816 285.492291 
L 133.326009 285.187667 
L 136.223858 284.837007 
L 139.121707 284.459516 
L 142.019556 284.027676 
L 144.917405 283.585544 
L 147.815254 283.15382 
L 150.713103 282.687116 
L 153.610952 282.225122 
L 156.508801 281.745541 
L 159.40665 281.257773 
L 162.304499 280.724534 
L 165.202348 280.175249 
L 168.100197 279.633441 
L 170.998046 279.098461 
L 173.895895 278.557505 
L 176.793744 277.999048 
L 179.691593 277.465344 
L 182.589442 276.916061 
L 185.487291 276.349852 
L 188.38514 275.767597 
L 191.282988 275.194602 
L 194.180837 274.626703 
L 197.078686 274.044756 
L 199.976535 273.48834 
L 202.874384 272.918334 
L 205.772233 272.360221 
L 208.670082 271.794613 
L 211.567931 271.199859 
L 214.46578 270.635002 
L 217.363629 270.024138 
L 220.261478 269.361748 
L 223.159327 268.703816 
L 226.057176 268.038433 
L 228.955025 267.367601 
L 231.852874 266.67145 
L 234.750723 265.920076 
L 237.648572 265.144801 
L 240.546421 264.3532 
L 243.44427 263.517457 
L 246.342119 262.6427 
L 249.239968 261.749647 
L 252.137817 260.883271 
L 255.035666 260.025029 
L 257.933515 259.146996 
L 260.831364 258.274334 
L 263.729213 257.367368 
L 266.627062 256.414612 
L 269.524911 255.426622 
L 272.42276 254.467261 
L 275.320609 253.525369 
L 278.218458 252.53359 
L 281.116307 251.543767 
L 284.014155 250.502141 
L 286.912004 249.420255 
L 289.809853 248.254729 
L 292.707702 247.054958 
L 295.605551 245.812257 
L 298.5034 244.518673 
L 301.401249 243.211234 
L 304.299098 241.875662 
L 307.196947 240.546474 
L 310.094796 239.236777 
L 312.992645 237.882168 
L 315.890494 236.519977 
L 318.788343 235.171513 
L 321.686192 233.803601 
L 324.584041 232.378839 
L 327.48189 230.967861 
L 330.379739 229.496214 
L 333.277588 227.983897 
L 336.175437 226.435031 
L 339.073286 224.905924 
L 341.971135 223.407942 
L 344.868984 221.887917 
L 347.766833 220.381709 
L 350.664682 218.914764 
L 353.562531 217.405994 
L 356.46038 215.84428 
L 359.358229 214.230419 
L 362.256078 212.599919 
L 365.153927 210.917961 
L 368.051776 209.269647 
L 370.949625 207.613978 
L 373.847474 205.952087 
L 376.745322 204.310974 
L 379.643171 202.613366 
L 382.54102 200.935668 
L 385.438869 199.249901 
L 388.336718 197.539462 
L 391.234567 195.823722 
L 394.132416 194.101764 
L 397.030265 192.371514 
L 399.928114 190.600327 
L 402.825963 188.792556 
L 405.723812 186.969069 
L 408.621661 185.153313 
L 411.51951 183.364752 
L 414.417359 181.53192 
L 417.315208 179.711909 
L 420.213057 177.897035 
L 423.110906 176.090982 
L 426.008755 174.276522 
L 428.906604 172.498029 
L 431.804453 170.705214 
" clip-path="url(#p3a4bad0629)" style="fill: none; stroke: #9467bd; stroke-width: 1.5; stroke-linecap: square"/>
   </g>
   <g id="patch_3">
    <path d="M 60.59 303.64 
L 60.59 10.8 
" style="fill: none; stroke: #000000; stroke-width: 0.8; stroke-linejoin: miter; stroke-linecap: square"/>
   </g>
   <g id="patch_4">
    <path d="M 449.481332 303.64 
L 449.481332 10.8 
" style="fill: none; stroke: #000000; stroke-width: 0.8; stroke-linejoin: miter; stroke-linecap: square"/>
   </g>
   <g id="patch_5">
    <path d="M 60.59 303.64 
L 449.481332 303.64 
" style="fill: none; stroke: #000000; stroke-width: 0.8; stroke-linejoin: miter; stroke-linecap: square"/>
   </g>
   <g id="patch_6">
    <path d="M 60.59 10.8 
L 449.481332 10.8 
" style="fill: none; stroke: #000000; stroke-width: 0.8; stroke-linejoin: miter; stroke-linecap: square"/>
   </g>
   <g id="legend_1">
    <g id="patch_7">
     <path d="M 67.59 93.58125 
L 174.9775 93.58125 
Q 176.9775 93.58125 176.9775 91.58125 
L 176.9775 17.8 
Q 176.9775 15.8 174.9775 15.8 
L 67.59 15.8 
Q 65.59 15.8 65.59 17.8 
L 65.59 91.58125 
Q 65.59 93.58125 67.59 93.58125 
z
" style="fill: #ffffff; opacity: 0.8; stroke: #cccccc; stroke-linejoin: miter"/>
    </g>
    <g id="line2d_36">
     <path d="M 69.59 23.898438 
L 79.59 23.898438 
L 89.59 23.898438 
" style="fill: none; stroke: #1f77b4; stroke-width: 1.5; stroke-linecap: square"/>
    </g>
    <g id="text_18">
     <!-- hard_neg, D=1 -->
     <g transform="translate(97.59 27.398438) scale(0.1 -0.1)">
      <defs>
       <path id="DejaVuSans-64" d="M 2906 2969 
L 2906 4863 
L 3481 4863 
L 3481 0 
L 2906 0 
L 2906 525 
Q 2725 213 2448 61 
Q 2172 -91 1784 -91 
Q 1150 -91 751 415 
Q 353 922 353 1747 
Q 353 2572 751 3078 
Q 1150 3584 1784 3584 
Q 2172 3584 2448 3432 
Q 2725 3281 2906 2969 
z
M 947 1747 
Q 947 1113 1208 752 
Q 1469 391 1925 391 
Q 2381 391 2643 752 
Q 2906 1113 2906 1747 
Q 2906 2381 2643 2742 
Q 2381 3103 1925 3103 
Q 1469 3103 1208 2742 
Q 947 2381 947 1747 
z
" transform="scale(0.015625)"/>
       <path id="DejaVuSans-5f" d="M 3263 -1063 
L 3263 -1509 
L -63 -1509 
L -63 -1063 
L 3263 -1063 
z
" transform="scale(0.015625)"/>
       <path id="DejaVuSans-67" d="M 2906 1791 
Q 2906 2416 2648 2759 
Q 2391 3103 1925 3103 
Q 1463 3103 1205 2759 
Q 947 2416 947 1791 
Q 947 1169 1205 825 
Q 1463 481 1925 481 
Q 2391 481 2648 825 
Q 2906 1169 2906 1791 
z
M 3481 434 
Q 3481 -459 3084 -895 
Q 2688 -1331 1869 -1331 
Q 1566 -1331 1297 -1286 
Q 1028 -1241 775 -1147 
L 775 -588 
Q 1028 -725 1275 -790 
Q 1522 -856 1778 -856 
Q 2344 -856 2625 -561 
Q 2906 -266 2906 331 
L 2906 616 
Q 2728 306 2450 153 
Q 2172 0 1784 0 
Q 1141 0 747 490 
Q 353 981 353 1791 
Q 353 2603 747 3093 
Q 1141 3584 1784 3584 
Q 2172 3584 2450 3431 
Q 2728 3278 2906 2969 
L 2906 3500 
L 3481 3500 
L 3481 434 
z
" transform="scale(0.015625)"/>
       <path id="DejaVuSans-2c" d="M 750 794 
L 1409 794 
L 1409 256 
L 897 -744 
L 494 -744 
L 750 256 
L 750 794 
z
" transform="scale(0.015625)"/>
       <path id="DejaVuSans-20" transform="scale(0.015625)"/>
       <path id="DejaVuSans-44" d="M 1259 4147 
L 1259 519 
L 2022 519 
Q 2988 519 3436 956 
Q 3884 1394 3884 2338 
Q 3884 3275 3436 3711 
Q 2988 4147 2022 4147 
L 1259 4147 
z
M 628 4666 
L 1925 4666 
Q 3281 4666 3915 4102 
Q 4550 3538 4550 2338 
Q 4550 1131 3912 565 
Q 3275 0 1925 0 
L 628 0 
L 628 4666 
z
" transform="scale(0.015625)"/>
       <path id="DejaVuSans-3d" d="M 678 2906 
L 4684 2906 
L 4684 2381 
L 678 2381 
L 678 2906 
z
M 678 1631 
L 4684 1631 
L 4684 1100 
L 678 1100 
L 678 1631 
z
" transform="scale(0.015625)"/>
      </defs>
      <use xlink:href="#DejaVuSans-68"/>
      <use xlink:href="#DejaVuSans-61" x="63.378906"/>
      <use xlink:href="#DejaVuSans-72" x="124.658203"/>
      <use xlink:href="#DejaVuSans-64" x="164.021484"/>
      <use xlink:href="#DejaVuSans-5f" x="227.498047"/>
      <use xlink:href="#DejaVuSans-6e" x="277.498047"/>
      <use xlink:href="#DejaVuSans-65" x="340.876953"/>
      <use xlink:href="#DejaVuSans-67" x="402.400391"/>
      <use xlink:href="#DejaVuSans-2c" x="465.876953"/>
      <use xlink:href="#DejaVuSans-20" x="497.664062"/>
      <use xlink:href="#DejaVuSans-44" x="529.451172"/>
      <use xlink:href="#DejaVuSans-3d" x="606.453125"/>
      <use xlink:href="#DejaVuSans-31" x="690.242188"/>
     </g>
    </g>
    <g id="line2d_37">
     <path d="M 69.59 38.854688 
L 79.59 38.854688 
L 89.59 38.854688 
" style="fill: none; stroke: #ff7f0e; stroke-width: 1.5; stroke-linecap: square"/>
    </g>
    <g id="text_19">
     <!-- hard_neg, D=2 -->
     <g transform="translate(97.59 42.354688) scale(0.1 -0.1)">
      <use xlink:href="#DejaVuSans-68"/>
      <use xlink:href="#DejaVuSans-61" x="63.378906"/>
      <use xlink:href="#DejaVuSans-72" x="124.658203"/>
      <use xlink:href="#DejaVuSans-64" x="164.021484"/>
      <use xlink:href="#DejaVuSans-5f" x="227.498047"/>
      <use xlink:href="#DejaVuSans-6e" x="277.498047"/>
      <use xlink:href="#DejaVuSans-65" x="340.876953"/>
      <use xlink:href="#DejaVuSans-67" x="402.400391"/>
      <use xlink:href="#DejaVuSans-2c" x="465.876953"/>
      <use xlink:href="#DejaVuSans-20" x="497.664062"/>
      <use xlink:href="#DejaVuSans-44" x="529.451172"/>
      <use xlink:href="#DejaVuSans-3d" x="606.453125"/>
      <use xlink:href="#DejaVuSans-32" x="690.242188"/>
     </g>
    </g>
    <g id="line2d_38">
     <path d="M 69.59 53.810938 
L 79.59 53.810938 
L 89.59 53.810938 
" style="fill: none; stroke: #2ca02c; stroke-width: 1.5; stroke-linecap: square"/>
    </g>
    <g id="text_20">
     <!-- hard_neg, D=4 -->
     <g transform="translate(97.59 57.310938) scale(0.1 -0.1)">
      <use xlink:href="#DejaVuSans-68"/>
      <use xlink:href="#DejaVuSans-61" x="63.378906"/>
      <use xlink:href="#DejaVuSans-72" x="124.658203"/>
      <use xlink:href="#DejaVuSans-64" x="164.021484"/>
      <use xlink:href="#DejaVuSans-5f" x="227.498047"/>
      <use xlink:href="#DejaVuSans-6e" x="277.498047"/>
      <use xlink:href="#DejaVuSans-65" x="340.876953"/>
      <use xlink:href="#DejaVuSans-67" x="402.400391"/>
      <use xlink:href="#DejaVuSans-2c" x="465.876953"/>
      <use xlink:href="#DejaVuSans-20" x="497.664062"/>
      <use xlink:href="#DejaVuSans-44" x="529.451172"/>
      <use xlink:href="#DejaVuSans-3d" x="606.453125"/>
      <use xlink:href="#DejaVuSans-34" x="690.242188"/>
     </g>
    </g>
    <g id="line2d_39">
     <path d="M 69.59 68.767188 
L 79.59 68.767188 
L 89.59 68.767188 
" style="fill: none; stroke: #d62728; stroke-width: 1.5; stroke-linecap: square"/>
    </g>
    <g id="text_21">
     <!-- hard_neg, D=8 -->
     <g transform="translate(97.59 72.267188) scale(0.1 -0.1)">
      <use xlink:href="#DejaVuSans-68"/>
      <use xlink:href="#DejaVuSans-61" x="63.378906"/>
      <use xlink:href="#DejaVuSans-72" x="124.658203"/>
      <use xlink:href="#DejaVuSans-64" x="164.021484"/>
      <use xlink:href="#DejaVuSans-5f" x="227.498047"/>
      <use xlink:href="#DejaVuSans-6e" x="277.498047"/>
      <use xlink:href="#DejaVuSans-65" x="340.876953"/>
      <use xlink:href="#DejaVuSans-67" x="402.400391"/>
      <use xlink:href="#DejaVuSans-2c" x="465.876953"/>
      <use xlink:href="#DejaVuSans-20" x="497.664062"/>
      <use xlink:href="#DejaVuSans-44" x="529.451172"/>
      <use xlink:href="#DejaVuSans-3d" x="606.453125"/>
      <use xlink:href="#DejaVuSans-38" x="690.242188"/>
     </g>
    </g>
    <g id="line2d_40">
     <path d="M 69.59 83.723438 
L 79.59 83.723438 
L 89.59 83.723438 
" style="fill: none; stroke: #9467bd; stroke-width: 1.5; stroke-linecap: square"/>
    </g>
    <g id="text_22">
     <!-- false_neg -->
     <g transform="translate(97.59 87.223438) scale(0.1 -0.1)">
      <defs>
       <path id="DejaVuSans-66" d="M 2375 4863 
L 2375 4384 
L 1825 4384 
Q 1516 4384 1395 4259 
Q 1275 4134 1275 3809 
L 1275 3500 
L 2222 3500 
L 2222 3053 
L 1275 3053 
L 1275 0 
L 697 0 
L 697 3053 
L 147 3053 
L 147 3500 
L 697 3500 
L 697 3744 
Q 697 4328 969 4595 
Q 1241 4863 1831 4863 
L 2375 4863 
z
" transform="scale(0.015625)"/>
       <path id="DejaVuSans-6c" d="M 603 4863 
L 1178 4863 
L 1178 0 
L 603 0 
L 603 4863 
z
" transform="scale(0.015625)"/>
       <path id="DejaVuSans-73" d="M 2834 3397 
L 2834 2853 
Q 2591 2978 2328 3040 
Q 2066 3103 1784 3103 
Q 1356 3103 1142 2972 
Q 928 2841 928 2578 
Q 928 2378 1081 2264 
Q 1234 2150 1697 2047 
L 1894 2003 
Q 2506 1872 2764 1633 
Q 3022 1394 3022 966 
Q 3022 478 2636 193 
Q 2250 -91 1575 -91 
Q 1294 -91 989 -36 
Q 684 19 347 128 
L 347 722 
Q 666 556 975 473 
Q 1284 391 1588 391 
Q 1994 391 2212 530 
Q 2431 669 2431 922 
Q 2431 1156 2273 1281 
Q 2116 1406 1581 1522 
L 1381 1569 
Q 847 1681 609 1914 
Q 372 2147 372 2553 
Q 372 3047 722 3315 
Q 1072 3584 1716 3584 
Q 2034 3584 2315 3537 
Q 2597 3491 2834 3397 
z
" transform="scale(0.015625)"/>
      </defs>
      <use xlink:href="#DejaVuSans-66"/>
      <use xlink:href="#DejaVuSans-61" x="35.205078"/>
      <use xlink:href="#DejaVuSans-6c" x="96.484375"/>
      <use xlink:href="#DejaVuSans-73" x="124.267578"/>
      <use xlink:href="#DejaVuSans-65" x="176.367188"/>
      <use xlink:href="#DejaVuSans-5f" x="237.890625"/>
      <use xlink:href="#DejaVuSans-6e" x="287.890625"/>
      <use xlink:href="#DejaVuSans-65" x="351.269531"/>
      <use xlink:href="#DejaVuSans-67" x="412.792969"/>
     </g>
    </g>
   </g>
  </g>
 </g>
 <defs>
  <clipPath id="p3a4bad0629">
   <rect x="60.59" y="10.8" width="388.891332" height="292.84"/>
  </clipPath>
 </defs>
</svg>
