<?xml version="1.0" encoding="utf-8" standalone="no"?>
<!DOCTYPE svg PUBLIC "-//W3C//DTD SVG 1.1//EN"
  "http://www.w3.org/Graphics/SVG/1.1/DTD/svg11.dtd">
<svg xmlns:xlink="http://www.w3.org/1999/xlink" width="460.8pt" height="345.6pt" viewBox="0 0 460.8 345.6" xmlns="http://www.w3.org/2000/svg" version="1.1">
 <metadata>
  <rdf:RDF xmlns:dc="http://purl.org/dc/elements/1.1/" xmlns:cc="http://creativecommons.org/ns#" xmlns:rdf="http://www.w3.org/1999/02/22-rdf-syntax-ns#">
   <cc:Work>
    <dc:type rdf:resource="http://purl.org/dc/dcmitype/StillImage"/>
    <dc:date>2025-04-29T23:01:51.444031</dc:date>
    <dc:format>image/svg+xml</dc:format>
    <dc:creator>
     <cc:Agent>
      <dc:title>Matplotlib v3.8.4, https://matplotlib.org/</dc:title>
     </cc:Agent>
    </dc:creator>
   </cc:Work>
  </rdf:RDF>
 </metadata>
 <defs>
  <style type="text/css">*{stroke-linejoin: round; stroke-linecap: butt}</style>
 </defs>
 <g id="figure_1">
  <g id="patch_1">
   <path d="M 0 345.6 
L 460.8 345.6 
L 460.8 0 
L 0 0 
z
" style="fill: #ffffff"/>
  </g>
  <g id="axes_1">
   <g id="patch_2">
    <path d="M 56.18 303.64 
L 448.664419 303.64 
L 448.664419 10.8 
L 56.18 10.8 
z
" style="fill: #ffffff"/>
   </g>
   <g id="matplotlib.axis_1">
    <g id="xtick_1">
     <g id="line2d_1">
      <path d="M 74.020201 303.64 
L 74.020201 10.8 
" clip-path="url(#p4c1e87eb27)" style="fill: none; stroke: #b0b0b0; stroke-width: 0.8; stroke-linecap: square"/>
     </g>
     <g id="line2d_2">
      <defs>
       <path id="m21bb3ae5c7" d="M 0 0 
L 0 3.5 
" style="stroke: #000000; stroke-width: 0.8"/>
      </defs>
      <g>
       <use xlink:href="#m21bb3ae5c7" x="74.020201" y="303.64" style="stroke: #000000; stroke-width: 0.8"/>
      </g>
     </g>
     <g id="text_1">
      <!-- 0 -->
      <g transform="translate(70.838951 318.238437) scale(0.1 -0.1)">
       <defs>
        <path id="DejaVuSans-30" d="M 2034 4250 
Q 1547 4250 1301 3770 
Q 1056 3291 1056 2328 
Q 1056 1369 1301 889 
Q 1547 409 2034 409 
Q 2525 409 2770 889 
Q 3016 1369 3016 2328 
Q 3016 3291 2770 3770 
Q 2525 4250 2034 4250 
z
M 2034 4750 
Q 2819 4750 3233 4129 
Q 3647 3509 3647 2328 
Q 3647 1150 3233 529 
Q 2819 -91 2034 -91 
Q 1250 -91 836 529 
Q 422 1150 422 2328 
Q 422 3509 836 4129 
Q 1250 4750 2034 4750 
z
" transform="scale(0.015625)"/>
       </defs>
       <use xlink:href="#DejaVuSans-30"/>
      </g>
     </g>
    </g>
    <g id="xtick_2">
     <g id="line2d_3">
      <path d="M 147.135778 303.64 
L 147.135778 10.8 
" clip-path="url(#p4c1e87eb27)" style="fill: none; stroke: #b0b0b0; stroke-width: 0.8; stroke-linecap: square"/>
     </g>
     <g id="line2d_4">
      <g>
       <use xlink:href="#m21bb3ae5c7" x="147.135778" y="303.64" style="stroke: #000000; stroke-width: 0.8"/>
      </g>
     </g>
     <g id="text_2">
      <!-- 50 -->
      <g transform="translate(140.773278 318.238437) scale(0.1 -0.1)">
       <defs>
        <path id="DejaVuSans-35" d="M 691 4666 
L 3169 4666 
L 3169 4134 
L 1269 4134 
L 1269 2991 
Q 1406 3038 1543 3061 
Q 1681 3084 1819 3084 
Q 2600 3084 3056 2656 
Q 3513 2228 3513 1497 
Q 3513 744 3044 326 
Q 2575 -91 1722 -91 
Q 1428 -91 1123 -41 
Q 819 9 494 109 
L 494 744 
Q 775 591 1075 516 
Q 1375 441 1709 441 
Q 2250 441 2565 725 
Q 2881 1009 2881 1497 
Q 2881 1984 2565 2268 
Q 2250 2553 1709 2553 
Q 1456 2553 1204 2497 
Q 953 2441 691 2322 
L 691 4666 
z
" transform="scale(0.015625)"/>
       </defs>
       <use xlink:href="#DejaVuSans-35"/>
       <use xlink:href="#DejaVuSans-30" x="63.623047"/>
      </g>
     </g>
    </g>
    <g id="xtick_3">
     <g id="line2d_5">
      <path d="M 220.251355 303.64 
L 220.251355 10.8 
" clip-path="url(#p4c1e87eb27)" style="fill: none; stroke: #b0b0b0; stroke-width: 0.8; stroke-linecap: square"/>
     </g>
     <g id="line2d_6">
      <g>
       <use xlink:href="#m21bb3ae5c7" x="220.251355" y="303.64" style="stroke: #000000; stroke-width: 0.8"/>
      </g>
     </g>
     <g id="text_3">
      <!-- 100 -->
      <g transform="translate(210.707605 318.238437) scale(0.1 -0.1)">
       <defs>
        <path id="DejaVuSans-31" d="M 794 531 
L 1825 531 
L 1825 4091 
L 703 3866 
L 703 4441 
L 1819 4666 
L 2450 4666 
L 2450 531 
L 3481 531 
L 3481 0 
L 794 0 
L 794 531 
z
" transform="scale(0.015625)"/>
       </defs>
       <use xlink:href="#DejaVuSans-31"/>
       <use xlink:href="#DejaVuSans-30" x="63.623047"/>
       <use xlink:href="#DejaVuSans-30" x="127.246094"/>
      </g>
     </g>
    </g>
    <g id="xtick_4">
     <g id="line2d_7">
      <path d="M 293.366933 303.64 
L 293.366933 10.8 
" clip-path="url(#p4c1e87eb27)" style="fill: none; stroke: #b0b0b0; stroke-width: 0.8; stroke-linecap: square"/>
     </g>
     <g id="line2d_8">
      <g>
       <use xlink:href="#m21bb3ae5c7" x="293.366933" y="303.64" style="stroke: #000000; stroke-width: 0.8"/>
      </g>
     </g>
     <g id="text_4">
      <!-- 150 -->
      <g transform="translate(283.823183 318.238437) scale(0.1 -0.1)">
       <use xlink:href="#DejaVuSans-31"/>
       <use xlink:href="#DejaVuSans-35" x="63.623047"/>
       <use xlink:href="#DejaVuSans-30" x="127.246094"/>
      </g>
     </g>
    </g>
    <g id="xtick_5">
     <g id="line2d_9">
      <path d="M 366.48251 303.64 
L 366.48251 10.8 
" clip-path="url(#p4c1e87eb27)" style="fill: none; stroke: #b0b0b0; stroke-width: 0.8; stroke-linecap: square"/>
     </g>
     <g id="line2d_10">
      <g>
       <use xlink:href="#m21bb3ae5c7" x="366.48251" y="303.64" style="stroke: #000000; stroke-width: 0.8"/>
      </g>
     </g>
     <g id="text_5">
      <!-- 200 -->
      <g transform="translate(356.93876 318.238437) scale(0.1 -0.1)">
       <defs>
        <path id="DejaVuSans-32" d="M 1228 531 
L 3431 531 
L 3431 0 
L 469 0 
L 469 531 
Q 828 903 1448 1529 
Q 2069 2156 2228 2338 
Q 2531 2678 2651 2914 
Q 2772 3150 2772 3378 
Q 2772 3750 2511 3984 
Q 2250 4219 1831 4219 
Q 1534 4219 1204 4116 
Q 875 4013 500 3803 
L 500 4441 
Q 881 4594 1212 4672 
Q 1544 4750 1819 4750 
Q 2544 4750 2975 4387 
Q 3406 4025 3406 3419 
Q 3406 3131 3298 2873 
Q 3191 2616 2906 2266 
Q 2828 2175 2409 1742 
Q 1991 1309 1228 531 
z
" transform="scale(0.015625)"/>
       </defs>
       <use xlink:href="#DejaVuSans-32"/>
       <use xlink:href="#DejaVuSans-30" x="63.623047"/>
       <use xlink:href="#DejaVuSans-30" x="127.246094"/>
      </g>
     </g>
    </g>
    <g id="xtick_6">
     <g id="line2d_11">
      <path d="M 439.598087 303.64 
L 439.598087 10.8 
" clip-path="url(#p4c1e87eb27)" style="fill: none; stroke: #b0b0b0; stroke-width: 0.8; stroke-linecap: square"/>
     </g>
     <g id="line2d_12">
      <g>
       <use xlink:href="#m21bb3ae5c7" x="439.598087" y="303.64" style="stroke: #000000; stroke-width: 0.8"/>
      </g>
     </g>
     <g id="text_6">
      <!-- 250 -->
      <g transform="translate(430.054337 318.238437) scale(0.1 -0.1)">
       <use xlink:href="#DejaVuSans-32"/>
       <use xlink:href="#DejaVuSans-35" x="63.623047"/>
       <use xlink:href="#DejaVuSans-30" x="127.246094"/>
      </g>
     </g>
    </g>
    <g id="text_7">
     <!-- Epoch -->
     <g transform="translate(237.111272 331.916562) scale(0.1 -0.1)">
      <defs>
       <path id="DejaVuSans-45" d="M 628 4666 
L 3578 4666 
L 3578 4134 
L 1259 4134 
L 1259 2753 
L 3481 2753 
L 3481 2222 
L 1259 2222 
L 1259 531 
L 3634 531 
L 3634 0 
L 628 0 
L 628 4666 
z
" transform="scale(0.015625)"/>
       <path id="DejaVuSans-70" d="M 1159 525 
L 1159 -1331 
L 581 -1331 
L 581 3500 
L 1159 3500 
L 1159 2969 
Q 1341 3281 1617 3432 
Q 1894 3584 2278 3584 
Q 2916 3584 3314 3078 
Q 3713 2572 3713 1747 
Q 3713 922 3314 415 
Q 2916 -91 2278 -91 
Q 1894 -91 1617 61 
Q 1341 213 1159 525 
z
M 3116 1747 
Q 3116 2381 2855 2742 
Q 2594 3103 2138 3103 
Q 1681 3103 1420 2742 
Q 1159 2381 1159 1747 
Q 1159 1113 1420 752 
Q 1681 391 2138 391 
Q 2594 391 2855 752 
Q 3116 1113 3116 1747 
z
" transform="scale(0.015625)"/>
       <path id="DejaVuSans-6f" d="M 1959 3097 
Q 1497 3097 1228 2736 
Q 959 2375 959 1747 
Q 959 1119 1226 758 
Q 1494 397 1959 397 
Q 2419 397 2687 759 
Q 2956 1122 2956 1747 
Q 2956 2369 2687 2733 
Q 2419 3097 1959 3097 
z
M 1959 3584 
Q 2709 3584 3137 3096 
Q 3566 2609 3566 1747 
Q 3566 888 3137 398 
Q 2709 -91 1959 -91 
Q 1206 -91 779 398 
Q 353 888 353 1747 
Q 353 2609 779 3096 
Q 1206 3584 1959 3584 
z
" transform="scale(0.015625)"/>
       <path id="DejaVuSans-63" d="M 3122 3366 
L 3122 2828 
Q 2878 2963 2633 3030 
Q 2388 3097 2138 3097 
Q 1578 3097 1268 2742 
Q 959 2388 959 1747 
Q 959 1106 1268 751 
Q 1578 397 2138 397 
Q 2388 397 2633 464 
Q 2878 531 3122 666 
L 3122 134 
Q 2881 22 2623 -34 
Q 2366 -91 2075 -91 
Q 1284 -91 818 406 
Q 353 903 353 1747 
Q 353 2603 823 3093 
Q 1294 3584 2113 3584 
Q 2378 3584 2631 3529 
Q 2884 3475 3122 3366 
z
" transform="scale(0.015625)"/>
       <path id="DejaVuSans-68" d="M 3513 2113 
L 3513 0 
L 2938 0 
L 2938 2094 
Q 2938 2591 2744 2837 
Q 2550 3084 2163 3084 
Q 1697 3084 1428 2787 
Q 1159 2491 1159 1978 
L 1159 0 
L 581 0 
L 581 4863 
L 1159 4863 
L 1159 2956 
Q 1366 3272 1645 3428 
Q 1925 3584 2291 3584 
Q 2894 3584 3203 3211 
Q 3513 2838 3513 2113 
z
" transform="scale(0.015625)"/>
      </defs>
      <use xlink:href="#DejaVuSans-45"/>
      <use xlink:href="#DejaVuSans-70" x="63.183594"/>
      <use xlink:href="#DejaVuSans-6f" x="126.660156"/>
      <use xlink:href="#DejaVuSans-63" x="187.841797"/>
      <use xlink:href="#DejaVuSans-68" x="242.822266"/>
     </g>
    </g>
   </g>
   <g id="matplotlib.axis_2">
    <g id="ytick_1">
     <g id="line2d_13">
      <path d="M 56.18 248.15421 
L 448.664419 248.15421 
" clip-path="url(#p4c1e87eb27)" style="fill: none; stroke: #b0b0b0; stroke-width: 0.8; stroke-linecap: square"/>
     </g>
     <g id="line2d_14">
      <defs>
       <path id="mebae747a66" d="M 0 0 
L -3.5 0 
" style="stroke: #000000; stroke-width: 0.8"/>
      </defs>
      <g>
       <use xlink:href="#mebae747a66" x="56.18" y="248.15421" style="stroke: #000000; stroke-width: 0.8"/>
      </g>
     </g>
     <g id="text_8">
      <!-- −0.4 -->
      <g transform="translate(24.897188 251.953429) scale(0.1 -0.1)">
       <defs>
        <path id="DejaVuSans-2212" d="M 678 2272 
L 4684 2272 
L 4684 1741 
L 678 1741 
L 678 2272 
z
" transform="scale(0.015625)"/>
        <path id="DejaVuSans-2e" d="M 684 794 
L 1344 794 
L 1344 0 
L 684 0 
L 684 794 
z
" transform="scale(0.015625)"/>
        <path id="DejaVuSans-34" d="M 2419 4116 
L 825 1625 
L 2419 1625 
L 2419 4116 
z
M 2253 4666 
L 3047 4666 
L 3047 1625 
L 3713 1625 
L 3713 1100 
L 3047 1100 
L 3047 0 
L 2419 0 
L 2419 1100 
L 313 1100 
L 313 1709 
L 2253 4666 
z
" transform="scale(0.015625)"/>
       </defs>
       <use xlink:href="#DejaVuSans-2212"/>
       <use xlink:href="#DejaVuSans-30" x="83.789062"/>
       <use xlink:href="#DejaVuSans-2e" x="147.412109"/>
       <use xlink:href="#DejaVuSans-34" x="179.199219"/>
      </g>
     </g>
    </g>
    <g id="ytick_2">
     <g id="line2d_15">
      <path d="M 56.18 192.143907 
L 448.664419 192.143907 
" clip-path="url(#p4c1e87eb27)" style="fill: none; stroke: #b0b0b0; stroke-width: 0.8; stroke-linecap: square"/>
     </g>
     <g id="line2d_16">
      <g>
       <use xlink:href="#mebae747a66" x="56.18" y="192.143907" style="stroke: #000000; stroke-width: 0.8"/>
      </g>
     </g>
     <g id="text_9">
      <!-- −0.3 -->
      <g transform="translate(24.897188 195.943126) scale(0.1 -0.1)">
       <defs>
        <path id="DejaVuSans-33" d="M 2597 2516 
Q 3050 2419 3304 2112 
Q 3559 1806 3559 1356 
Q 3559 666 3084 287 
Q 2609 -91 1734 -91 
Q 1441 -91 1130 -33 
Q 819 25 488 141 
L 488 750 
Q 750 597 1062 519 
Q 1375 441 1716 441 
Q 2309 441 2620 675 
Q 2931 909 2931 1356 
Q 2931 1769 2642 2001 
Q 2353 2234 1838 2234 
L 1294 2234 
L 1294 2753 
L 1863 2753 
Q 2328 2753 2575 2939 
Q 2822 3125 2822 3475 
Q 2822 3834 2567 4026 
Q 2313 4219 1838 4219 
Q 1578 4219 1281 4162 
Q 984 4106 628 3988 
L 628 4550 
Q 988 4650 1302 4700 
Q 1616 4750 1894 4750 
Q 2613 4750 3031 4423 
Q 3450 4097 3450 3541 
Q 3450 3153 3228 2886 
Q 3006 2619 2597 2516 
z
" transform="scale(0.015625)"/>
       </defs>
       <use xlink:href="#DejaVuSans-2212"/>
       <use xlink:href="#DejaVuSans-30" x="83.789062"/>
       <use xlink:href="#DejaVuSans-2e" x="147.412109"/>
       <use xlink:href="#DejaVuSans-33" x="179.199219"/>
      </g>
     </g>
    </g>
    <g id="ytick_3">
     <g id="line2d_17">
      <path d="M 56.18 136.133604 
L 448.664419 136.133604 
" clip-path="url(#p4c1e87eb27)" style="fill: none; stroke: #b0b0b0; stroke-width: 0.8; stroke-linecap: square"/>
     </g>
     <g id="line2d_18">
      <g>
       <use xlink:href="#mebae747a66" x="56.18" y="136.133604" style="stroke: #000000; stroke-width: 0.8"/>
      </g>
     </g>
     <g id="text_10">
      <!-- −0.2 -->
      <g transform="translate(24.897188 139.932823) scale(0.1 -0.1)">
       <use xlink:href="#DejaVuSans-2212"/>
       <use xlink:href="#DejaVuSans-30" x="83.789062"/>
       <use xlink:href="#DejaVuSans-2e" x="147.412109"/>
       <use xlink:href="#DejaVuSans-32" x="179.199219"/>
      </g>
     </g>
    </g>
    <g id="ytick_4">
     <g id="line2d_19">
      <path d="M 56.18 80.123302 
L 448.664419 80.123302 
" clip-path="url(#p4c1e87eb27)" style="fill: none; stroke: #b0b0b0; stroke-width: 0.8; stroke-linecap: square"/>
     </g>
     <g id="line2d_20">
      <g>
       <use xlink:href="#mebae747a66" x="56.18" y="80.123302" style="stroke: #000000; stroke-width: 0.8"/>
      </g>
     </g>
     <g id="text_11">
      <!-- −0.1 -->
      <g transform="translate(24.897188 83.92252) scale(0.1 -0.1)">
       <use xlink:href="#DejaVuSans-2212"/>
       <use xlink:href="#DejaVuSans-30" x="83.789062"/>
       <use xlink:href="#DejaVuSans-2e" x="147.412109"/>
       <use xlink:href="#DejaVuSans-31" x="179.199219"/>
      </g>
     </g>
    </g>
    <g id="ytick_5">
     <g id="line2d_21">
      <path d="M 56.18 24.112999 
L 448.664419 24.112999 
" clip-path="url(#p4c1e87eb27)" style="fill: none; stroke: #b0b0b0; stroke-width: 0.8; stroke-linecap: square"/>
     </g>
     <g id="line2d_22">
      <g>
       <use xlink:href="#mebae747a66" x="56.18" y="24.112999" style="stroke: #000000; stroke-width: 0.8"/>
      </g>
     </g>
     <g id="text_12">
      <!-- 0.0 -->
      <g transform="translate(33.276875 27.912218) scale(0.1 -0.1)">
       <use xlink:href="#DejaVuSans-30"/>
       <use xlink:href="#DejaVuSans-2e" x="63.623047"/>
       <use xlink:href="#DejaVuSans-30" x="95.410156"/>
      </g>
     </g>
    </g>
    <g id="text_13">
     <!-- mean scores -->
     <g transform="translate(18.8175 189.02625) rotate(-90) scale(0.1 -0.1)">
      <defs>
       <path id="DejaVuSans-6d" d="M 3328 2828 
Q 3544 3216 3844 3400 
Q 4144 3584 4550 3584 
Q 5097 3584 5394 3201 
Q 5691 2819 5691 2113 
L 5691 0 
L 5113 0 
L 5113 2094 
Q 5113 2597 4934 2840 
Q 4756 3084 4391 3084 
Q 3944 3084 3684 2787 
Q 3425 2491 3425 1978 
L 3425 0 
L 2847 0 
L 2847 2094 
Q 2847 2600 2669 2842 
Q 2491 3084 2119 3084 
Q 1678 3084 1418 2786 
Q 1159 2488 1159 1978 
L 1159 0 
L 581 0 
L 581 3500 
L 1159 3500 
L 1159 2956 
Q 1356 3278 1631 3431 
Q 1906 3584 2284 3584 
Q 2666 3584 2933 3390 
Q 3200 3197 3328 2828 
z
" transform="scale(0.015625)"/>
       <path id="DejaVuSans-65" d="M 3597 1894 
L 3597 1613 
L 953 1613 
Q 991 1019 1311 708 
Q 1631 397 2203 397 
Q 2534 397 2845 478 
Q 3156 559 3463 722 
L 3463 178 
Q 3153 47 2828 -22 
Q 2503 -91 2169 -91 
Q 1331 -91 842 396 
Q 353 884 353 1716 
Q 353 2575 817 3079 
Q 1281 3584 2069 3584 
Q 2775 3584 3186 3129 
Q 3597 2675 3597 1894 
z
M 3022 2063 
Q 3016 2534 2758 2815 
Q 2500 3097 2075 3097 
Q 1594 3097 1305 2825 
Q 1016 2553 972 2059 
L 3022 2063 
z
" transform="scale(0.015625)"/>
       <path id="DejaVuSans-61" d="M 2194 1759 
Q 1497 1759 1228 1600 
Q 959 1441 959 1056 
Q 959 750 1161 570 
Q 1363 391 1709 391 
Q 2188 391 2477 730 
Q 2766 1069 2766 1631 
L 2766 1759 
L 2194 1759 
z
M 3341 1997 
L 3341 0 
L 2766 0 
L 2766 531 
Q 2569 213 2275 61 
Q 1981 -91 1556 -91 
Q 1019 -91 701 211 
Q 384 513 384 1019 
Q 384 1609 779 1909 
Q 1175 2209 1959 2209 
L 2766 2209 
L 2766 2266 
Q 2766 2663 2505 2880 
Q 2244 3097 1772 3097 
Q 1472 3097 1187 3025 
Q 903 2953 641 2809 
L 641 3341 
Q 956 3463 1253 3523 
Q 1550 3584 1831 3584 
Q 2591 3584 2966 3190 
Q 3341 2797 3341 1997 
z
" transform="scale(0.015625)"/>
       <path id="DejaVuSans-6e" d="M 3513 2113 
L 3513 0 
L 2938 0 
L 2938 2094 
Q 2938 2591 2744 2837 
Q 2550 3084 2163 3084 
Q 1697 3084 1428 2787 
Q 1159 2491 1159 1978 
L 1159 0 
L 581 0 
L 581 3500 
L 1159 3500 
L 1159 2956 
Q 1366 3272 1645 3428 
Q 1925 3584 2291 3584 
Q 2894 3584 3203 3211 
Q 3513 2838 3513 2113 
z
" transform="scale(0.015625)"/>
       <path id="DejaVuSans-20" transform="scale(0.015625)"/>
       <path id="DejaVuSans-73" d="M 2834 3397 
L 2834 2853 
Q 2591 2978 2328 3040 
Q 2066 3103 1784 3103 
Q 1356 3103 1142 2972 
Q 928 2841 928 2578 
Q 928 2378 1081 2264 
Q 1234 2150 1697 2047 
L 1894 2003 
Q 2506 1872 2764 1633 
Q 3022 1394 3022 966 
Q 3022 478 2636 193 
Q 2250 -91 1575 -91 
Q 1294 -91 989 -36 
Q 684 19 347 128 
L 347 722 
Q 666 556 975 473 
Q 1284 391 1588 391 
Q 1994 391 2212 530 
Q 2431 669 2431 922 
Q 2431 1156 2273 1281 
Q 2116 1406 1581 1522 
L 1381 1569 
Q 847 1681 609 1914 
Q 372 2147 372 2553 
Q 372 3047 722 3315 
Q 1072 3584 1716 3584 
Q 2034 3584 2315 3537 
Q 2597 3491 2834 3397 
z
" transform="scale(0.015625)"/>
       <path id="DejaVuSans-72" d="M 2631 2963 
Q 2534 3019 2420 3045 
Q 2306 3072 2169 3072 
Q 1681 3072 1420 2755 
Q 1159 2438 1159 1844 
L 1159 0 
L 581 0 
L 581 3500 
L 1159 3500 
L 1159 2956 
Q 1341 3275 1631 3429 
Q 1922 3584 2338 3584 
Q 2397 3584 2469 3576 
Q 2541 3569 2628 3553 
L 2631 2963 
z
" transform="scale(0.015625)"/>
      </defs>
      <use xlink:href="#DejaVuSans-6d"/>
      <use xlink:href="#DejaVuSans-65" x="97.412109"/>
      <use xlink:href="#DejaVuSans-61" x="158.935547"/>
      <use xlink:href="#DejaVuSans-6e" x="220.214844"/>
      <use xlink:href="#DejaVuSans-20" x="283.59375"/>
      <use xlink:href="#DejaVuSans-73" x="315.380859"/>
      <use xlink:href="#DejaVuSans-63" x="367.480469"/>
      <use xlink:href="#DejaVuSans-6f" x="422.460938"/>
      <use xlink:href="#DejaVuSans-72" x="483.642578"/>
      <use xlink:href="#DejaVuSans-65" x="522.505859"/>
      <use xlink:href="#DejaVuSans-73" x="584.029297"/>
     </g>
    </g>
   </g>
   <g id="line2d_23">
    <path d="M 74.020201 24.111341 
L 76.944824 24.480683 
L 79.869447 27.267842 
L 82.79407 32.931071 
L 85.718693 39.491095 
L 88.643316 45.407819 
L 91.567939 51.131955 
L 94.492562 56.282734 
L 97.417186 60.988378 
L 100.341809 65.065415 
L 103.266432 69.093956 
L 106.191055 72.607011 
L 109.115678 76.057921 
L 112.040301 79.09963 
L 114.964924 82.45574 
L 117.889547 85.430742 
L 120.81417 88.384899 
L 123.738793 91.282265 
L 126.663416 93.862613 
L 129.58804 96.857801 
L 132.512663 99.050619 
L 135.437286 101.415803 
L 138.361909 103.795634 
L 141.286532 106.290518 
L 144.211155 108.346876 
L 147.135778 110.708179 
L 150.060401 112.81499 
L 152.985024 115.016313 
L 155.909647 117.27888 
L 158.83427 119.567346 
L 161.758894 121.746084 
L 164.683517 123.652653 
L 167.60814 126.080859 
L 170.532763 128.015388 
L 173.457386 130.086244 
L 176.382009 132.636471 
L 179.306632 134.260722 
L 182.231255 136.524658 
L 185.155878 138.180258 
L 188.080501 140.608822 
L 191.005124 143.225635 
L 193.929748 144.90013 
L 196.854371 146.085347 
L 199.778994 147.789354 
L 202.703617 149.42428 
L 205.62824 151.25328 
L 208.552863 153.227078 
L 211.477486 155.254475 
L 214.402109 157.244548 
L 217.326732 159.349781 
L 220.251355 161.176386 
L 223.175978 162.978093 
L 226.100602 164.484989 
L 229.025225 166.248805 
L 231.949848 167.802297 
L 234.874471 170.151682 
L 237.799094 171.974271 
L 240.723717 173.883027 
L 243.64834 175.682064 
L 246.572963 177.738748 
L 249.497586 179.518689 
L 252.422209 180.973379 
L 255.346832 182.884772 
L 258.271456 184.282191 
L 261.196079 185.977201 
L 264.120702 187.667671 
L 267.045325 189.869194 
L 269.969948 191.756667 
L 272.894571 193.400265 
L 275.819194 195.288372 
L 278.743817 196.857706 
L 281.66844 198.960527 
L 284.593063 201.841263 
L 287.517686 203.522936 
L 290.44231 205.504104 
L 293.366933 207.231964 
L 296.291556 209.04554 
L 299.216179 210.854309 
L 302.140802 213.169591 
L 305.065425 215.418487 
L 307.990048 217.42678 
L 310.914671 219.199493 
L 313.839294 220.798989 
L 316.763917 222.247687 
L 319.68854 224.366032 
L 322.613164 226.842112 
L 325.537787 229.097084 
L 328.46241 230.96476 
L 331.387033 232.954207 
L 334.311656 235.107656 
L 337.236279 236.573814 
L 340.160902 238.700722 
L 343.085525 240.558483 
L 346.010148 242.089274 
L 348.934771 243.700204 
L 351.859394 246.148391 
L 354.784018 247.645363 
L 357.708641 248.824579 
L 360.633264 250.914113 
L 363.557887 252.090858 
L 366.48251 253.824829 
L 369.407133 255.563389 
L 372.331756 256.680609 
L 375.256379 258.361481 
L 378.181002 260.502612 
L 381.105625 262.632859 
L 384.030248 264.631086 
L 386.954872 265.900641 
L 389.879495 268.028701 
L 392.804118 269.652301 
L 395.728741 271.237676 
L 398.653364 272.411466 
L 401.577987 273.303507 
L 404.50261 275.00057 
L 407.427233 276.889929 
L 410.351856 278.841818 
L 413.276479 281.132429 
L 416.201102 282.829709 
L 419.125726 284.298705 
L 422.050349 285.83477 
L 424.974972 287.419544 
L 427.899595 289.279625 
L 430.824218 290.329091 
" clip-path="url(#p4c1e87eb27)" style="fill: none; stroke: #1f77b4; stroke-width: 1.5; stroke-linecap: square"/>
   </g>
   <g id="line2d_24">
    <path d="M 74.020201 24.110909 
L 76.944824 24.4981 
L 79.869447 27.425542 
L 82.79407 33.123784 
L 85.718693 39.503809 
L 88.643316 45.993242 
L 91.567939 52.149213 
L 94.492562 57.337244 
L 97.417186 62.258801 
L 100.341809 66.614054 
L 103.266432 70.122744 
L 106.191055 73.903283 
L 109.115678 77.411239 
L 112.040301 80.79096 
L 114.964924 84.034496 
L 117.889547 86.514331 
L 120.81417 89.359792 
L 123.738793 91.882831 
L 126.663416 94.455001 
L 129.58804 96.959065 
L 132.512663 99.916744 
L 135.437286 102.237184 
L 138.361909 104.757724 
L 141.286532 106.904179 
L 144.211155 108.757483 
L 147.135778 111.158597 
L 150.060401 113.123306 
L 152.985024 115.329553 
L 155.909647 117.482636 
L 158.83427 119.526024 
L 161.758894 121.229555 
L 164.683517 122.82467 
L 167.60814 124.779163 
L 170.532763 126.586438 
L 173.457386 128.607033 
L 176.382009 130.223121 
L 179.306632 132.048757 
L 182.231255 133.881713 
L 185.155878 135.210701 
L 188.080501 136.815431 
L 191.005124 139.042435 
L 193.929748 140.962592 
L 196.854371 142.795581 
L 199.778994 145.054985 
L 202.703617 146.814345 
L 205.62824 147.923686 
L 208.552863 150.074874 
L 211.477486 151.651719 
L 214.402109 153.841566 
L 217.326732 155.753986 
L 220.251355 157.518887 
L 223.175978 159.00697 
L 226.100602 160.512672 
L 229.025225 162.071656 
L 231.949848 164.112006 
L 234.874471 165.427857 
L 237.799094 167.157621 
L 240.723717 168.915278 
L 243.64834 169.963776 
L 246.572963 172.03635 
L 249.497586 173.225431 
L 252.422209 174.459215 
L 255.346832 176.03631 
L 258.271456 177.586714 
L 261.196079 179.458079 
L 264.120702 181.020184 
L 267.045325 182.726095 
L 269.969948 184.524948 
L 272.894571 186.277614 
L 275.819194 187.512766 
L 278.743817 189.230194 
L 281.66844 191.24286 
L 284.593063 193.212326 
L 287.517686 195.018807 
L 290.44231 196.555724 
L 293.366933 198.496563 
L 296.291556 201.099988 
L 299.216179 202.40176 
L 302.140802 203.750002 
L 305.065425 205.391079 
L 307.990048 206.559278 
L 310.914671 208.179624 
L 313.839294 209.513544 
L 316.763917 210.685466 
L 319.68854 211.840544 
L 322.613164 213.146656 
L 325.537787 214.434238 
L 328.46241 216.377147 
L 331.387033 218.004486 
L 334.311656 219.289097 
L 337.236279 220.63295 
L 340.160902 222.307395 
L 343.085525 223.36469 
L 346.010148 225.195125 
L 348.934771 227.136799 
L 351.859394 228.629814 
L 354.784018 230.363634 
L 357.708641 231.250383 
L 360.633264 232.789203 
L 363.557887 234.041698 
L 366.48251 235.042473 
L 369.407133 236.260231 
L 372.331756 238.16428 
L 375.256379 239.849074 
L 378.181002 241.104641 
L 381.105625 243.388608 
L 384.030248 244.42669 
L 386.954872 245.131475 
L 389.879495 246.629198 
L 392.804118 248.109695 
L 395.728741 249.497181 
L 398.653364 251.104156 
L 401.577987 252.666378 
L 404.50261 253.520426 
L 407.427233 254.740622 
L 410.351856 256.507076 
L 413.276479 257.710679 
L 416.201102 258.602269 
L 419.125726 259.995497 
L 422.050349 261.23736 
L 424.974972 262.223512 
L 427.899595 262.911337 
L 430.824218 264.280462 
" clip-path="url(#p4c1e87eb27)" style="fill: none; stroke: #ff7f0e; stroke-width: 1.5; stroke-linecap: square"/>
   </g>
   <g id="line2d_25">
    <path d="M 74.020201 24.118673 
L 76.944824 24.543217 
L 79.869447 27.710879 
L 82.79407 33.534561 
L 85.718693 40.223333 
L 88.643316 46.172589 
L 91.567939 51.888357 
L 94.492562 56.498984 
L 97.417186 60.988654 
L 100.341809 65.104913 
L 103.266432 68.388344 
L 106.191055 71.561001 
L 109.115678 74.509036 
L 112.040301 77.468168 
L 114.964924 80.016283 
L 117.889547 82.698564 
L 120.81417 85.269886 
L 123.738793 87.106289 
L 126.663416 89.245424 
L 129.58804 91.257281 
L 132.512663 93.05174 
L 135.437286 95.403177 
L 138.361909 97.765958 
L 141.286532 100.130841 
L 144.211155 102.111583 
L 147.135778 104.003112 
L 150.060401 106.123677 
L 152.985024 108.121395 
L 155.909647 110.025035 
L 158.83427 112.052248 
L 161.758894 113.681966 
L 164.683517 115.63928 
L 167.60814 117.380445 
L 170.532763 118.805765 
L 173.457386 120.566267 
L 176.382009 122.277686 
L 179.306632 124.118613 
L 182.231255 126.035957 
L 185.155878 127.840719 
L 188.080501 130.042593 
L 191.005124 131.359012 
L 193.929748 133.297038 
L 196.854371 135.053568 
L 199.778994 137.039843 
L 202.703617 138.932741 
L 205.62824 140.330919 
L 208.552863 142.186351 
L 211.477486 143.615694 
L 214.402109 145.552694 
L 217.326732 147.081765 
L 220.251355 149.096751 
L 223.175978 150.163193 
L 226.100602 151.991208 
L 229.025225 153.402481 
L 231.949848 155.102599 
L 234.874471 156.629083 
L 237.799094 158.286485 
L 240.723717 160.221832 
L 243.64834 161.660122 
L 246.572963 162.561585 
L 249.497586 164.170855 
L 252.422209 166.143142 
L 255.346832 167.571742 
L 258.271456 169.188765 
L 261.196079 170.834199 
L 264.120702 172.151461 
L 267.045325 173.914426 
L 269.969948 175.614327 
L 272.894571 177.114053 
L 275.819194 178.450978 
L 278.743817 179.775234 
L 281.66844 181.977375 
L 284.593063 183.875264 
L 287.517686 185.685752 
L 290.44231 187.582523 
L 293.366933 189.859596 
L 296.291556 191.765614 
L 299.216179 193.262069 
L 302.140802 194.647686 
L 305.065425 196.650453 
L 307.990048 198.339721 
L 310.914671 200.264719 
L 313.839294 201.579393 
L 316.763917 203.057837 
L 319.68854 204.137366 
L 322.613164 206.093461 
L 325.537787 207.693542 
L 328.46241 209.136564 
L 331.387033 210.544115 
L 334.311656 212.553425 
L 337.236279 214.433187 
L 340.160902 215.696365 
L 343.085525 217.504132 
L 346.010148 218.862123 
L 348.934771 220.568234 
L 351.859394 222.452903 
L 354.784018 224.165273 
L 357.708641 225.66353 
L 360.633264 227.26119 
L 363.557887 229.061813 
L 366.48251 230.154663 
L 369.407133 231.985098 
L 372.331756 234.093795 
L 375.256379 235.274847 
L 378.181002 236.563915 
L 381.105625 238.568636 
L 384.030248 240.384232 
L 386.954872 242.02207 
L 389.879495 243.135986 
L 392.804118 244.924924 
L 395.728741 246.198752 
L 398.653364 247.569012 
L 401.577987 249.195667 
L 404.50261 250.153208 
L 407.427233 251.573579 
L 410.351856 252.949915 
L 413.276479 254.896662 
L 416.201102 256.901733 
L 419.125726 258.3088 
L 422.050349 260.098573 
L 424.974972 261.525637 
L 427.899595 262.898167 
L 430.824218 264.43702 
" clip-path="url(#p4c1e87eb27)" style="fill: none; stroke: #2ca02c; stroke-width: 1.5; stroke-linecap: square"/>
   </g>
   <g id="line2d_26">
    <path d="M 74.020201 24.111955 
L 76.944824 24.409123 
L 79.869447 26.613971 
L 82.79407 30.872285 
L 85.718693 35.95433 
L 88.643316 40.687019 
L 91.567939 45.49708 
L 94.492562 49.274463 
L 97.417186 52.777078 
L 100.341809 55.983866 
L 103.266432 58.880923 
L 106.191055 61.662617 
L 109.115678 63.871952 
L 112.040301 66.803337 
L 114.964924 69.065913 
L 117.889547 71.44622 
L 120.81417 73.477861 
L 123.738793 75.620398 
L 126.663416 77.579105 
L 129.58804 79.332226 
L 132.512663 81.311094 
L 135.437286 83.081508 
L 138.361909 84.791854 
L 141.286532 86.62367 
L 144.211155 88.387449 
L 147.135778 90.204013 
L 150.060401 91.524571 
L 152.985024 93.062661 
L 155.909647 94.5359 
L 158.83427 95.278894 
L 161.758894 96.846517 
L 164.683517 98.5297 
L 167.60814 100.236186 
L 170.532763 101.935219 
L 173.457386 103.026884 
L 176.382009 104.835953 
L 179.306632 106.408867 
L 182.231255 108.311513 
L 185.155878 109.875396 
L 188.080501 111.488772 
L 191.005124 112.875583 
L 193.929748 114.608551 
L 196.854371 116.030349 
L 199.778994 117.402921 
L 202.703617 118.645142 
L 205.62824 120.140019 
L 208.552863 121.485182 
L 211.477486 122.459716 
L 214.402109 123.312296 
L 217.326732 124.510182 
L 220.251355 125.966558 
L 223.175978 128.071132 
L 226.100602 129.343408 
L 229.025225 130.88343 
L 231.949848 132.683335 
L 234.874471 134.70418 
L 237.799094 136.099837 
L 240.723717 137.216148 
L 243.64834 139.0788 
L 246.572963 140.406995 
L 249.497586 141.706337 
L 252.422209 143.29465 
L 255.346832 144.73894 
L 258.271456 146.360688 
L 261.196079 148.19139 
L 264.120702 149.524293 
L 267.045325 150.587113 
L 269.969948 152.094526 
L 272.894571 153.673565 
L 275.819194 154.541636 
L 278.743817 156.349812 
L 281.66844 158.425692 
L 284.593063 159.688144 
L 287.517686 161.504524 
L 290.44231 163.107401 
L 293.366933 164.597662 
L 296.291556 165.564651 
L 299.216179 166.59417 
L 302.140802 167.736212 
L 305.065425 168.954488 
L 307.990048 170.514707 
L 310.914671 172.436316 
L 313.839294 173.823235 
L 316.763917 175.515875 
L 319.68854 177.137539 
L 322.613164 178.948444 
L 325.537787 180.024151 
L 328.46241 181.689081 
L 331.387033 182.605993 
L 334.311656 184.458496 
L 337.236279 185.254572 
L 340.160902 185.917526 
L 343.085525 186.693404 
L 346.010148 188.725016 
L 348.934771 189.973321 
L 351.859394 191.397014 
L 354.784018 193.037089 
L 357.708641 194.382477 
L 360.633264 195.880985 
L 363.557887 197.514 
L 366.48251 199.311384 
L 369.407133 201.03195 
L 372.331756 202.569651 
L 375.256379 204.823405 
L 378.181002 206.639953 
L 381.105625 208.109115 
L 384.030248 209.668266 
L 386.954872 210.29887 
L 389.879495 211.727604 
L 392.804118 213.209953 
L 395.728741 213.942381 
L 398.653364 215.072471 
L 401.577987 215.415149 
L 404.50261 216.679512 
L 407.427233 217.63243 
L 410.351856 218.74062 
L 413.276479 219.577809 
L 416.201102 220.896306 
L 419.125726 221.607601 
L 422.050349 222.817314 
L 424.974972 224.057223 
L 427.899595 225.694595 
L 430.824218 226.638965 
" clip-path="url(#p4c1e87eb27)" style="fill: none; stroke: #d62728; stroke-width: 1.5; stroke-linecap: square"/>
   </g>
   <g id="line2d_27">
    <path d="M 74.020201 24.112514 
L 76.944824 24.248244 
L 79.869447 25.69533 
L 82.79407 28.605831 
L 85.718693 31.858486 
L 88.643316 34.260641 
L 91.567939 36.673493 
L 94.492562 38.956817 
L 97.417186 40.892038 
L 100.341809 42.060317 
L 103.266432 43.967518 
L 106.191055 46.104524 
L 109.115678 47.554164 
L 112.040301 48.813364 
L 114.964924 50.15823 
L 117.889547 51.555461 
L 120.81417 52.404074 
L 123.738793 54.181709 
L 126.663416 55.221148 
L 129.58804 56.418854 
L 132.512663 58.178328 
L 135.437286 59.726043 
L 138.361909 61.631089 
L 141.286532 63.020483 
L 144.211155 64.13277 
L 147.135778 65.793503 
L 150.060401 66.959473 
L 152.985024 68.389271 
L 155.909647 69.694986 
L 158.83427 71.478899 
L 161.758894 72.903322 
L 164.683517 74.01662 
L 167.60814 75.110988 
L 170.532763 76.353301 
L 173.457386 77.741743 
L 176.382009 78.551227 
L 179.306632 79.880691 
L 182.231255 81.228809 
L 185.155878 82.565588 
L 188.080501 83.546895 
L 191.005124 84.564462 
L 193.929748 85.840001 
L 196.854371 86.539729 
L 199.778994 87.779434 
L 202.703617 88.640593 
L 205.62824 89.770888 
L 208.552863 91.222035 
L 211.477486 91.792885 
L 214.402109 93.485633 
L 217.326732 95.275214 
L 220.251355 96.252068 
L 223.175978 97.394753 
L 226.100602 98.503193 
L 229.025225 99.906729 
L 231.949848 101.761961 
L 234.874471 103.171523 
L 237.799094 104.474388 
L 240.723717 106.18624 
L 243.64834 107.834687 
L 246.572963 109.194181 
L 249.497586 109.900835 
L 252.422209 110.852993 
L 255.346832 112.205902 
L 258.271456 113.188448 
L 261.196079 114.750353 
L 264.120702 116.488121 
L 267.045325 118.082284 
L 269.969948 118.751489 
L 272.894571 119.558941 
L 275.819194 121.35141 
L 278.743817 122.391219 
L 281.66844 124.217273 
L 284.593063 125.885116 
L 287.517686 128.182462 
L 290.44231 129.792224 
L 293.366933 131.529708 
L 296.291556 133.385124 
L 299.216179 134.734885 
L 302.140802 136.282118 
L 305.065425 137.3528 
L 307.990048 138.229133 
L 310.914671 139.996504 
L 313.839294 141.249934 
L 316.763917 142.200089 
L 319.68854 143.606705 
L 322.613164 145.538764 
L 325.537787 146.493776 
L 328.46241 148.480669 
L 331.387033 150.19919 
L 334.311656 151.866441 
L 337.236279 152.762003 
L 340.160902 153.483231 
L 343.085525 154.931586 
L 346.010148 155.878244 
L 348.934771 156.451126 
L 351.859394 158.158054 
L 354.784018 160.027224 
L 357.708641 161.891921 
L 360.633264 163.269283 
L 363.557887 165.130733 
L 366.48251 165.817658 
L 369.407133 167.060705 
L 372.331756 168.285074 
L 375.256379 169.125451 
L 378.181002 171.044707 
L 381.105625 171.898572 
L 384.030248 173.136311 
L 386.954872 174.606725 
L 389.879495 175.805471 
L 392.804118 177.014116 
L 395.728741 178.249468 
L 398.653364 179.94563 
L 401.577987 181.585238 
L 404.50261 182.935551 
L 407.427233 183.95487 
L 410.351856 184.689885 
L 413.276479 186.429548 
L 416.201102 187.364504 
L 419.125726 188.400416 
L 422.050349 189.377253 
L 424.974972 190.595045 
L 427.899595 191.169046 
L 430.824218 192.457881 
" clip-path="url(#p4c1e87eb27)" style="fill: none; stroke: #9467bd; stroke-width: 1.5; stroke-linecap: square"/>
   </g>
   <g id="patch_3">
    <path d="M 56.18 303.64 
L 56.18 10.8 
" style="fill: none; stroke: #000000; stroke-width: 0.8; stroke-linejoin: miter; stroke-linecap: square"/>
   </g>
   <g id="patch_4">
    <path d="M 448.664419 303.64 
L 448.664419 10.8 
" style="fill: none; stroke: #000000; stroke-width: 0.8; stroke-linejoin: miter; stroke-linecap: square"/>
   </g>
   <g id="patch_5">
    <path d="M 56.18 303.64 
L 448.664419 303.64 
" style="fill: none; stroke: #000000; stroke-width: 0.8; stroke-linejoin: miter; stroke-linecap: square"/>
   </g>
   <g id="patch_6">
    <path d="M 56.18 10.8 
L 448.664419 10.8 
" style="fill: none; stroke: #000000; stroke-width: 0.8; stroke-linejoin: miter; stroke-linecap: square"/>
   </g>
   <g id="legend_1">
    <g id="patch_7">
     <path d="M 334.276919 93.58125 
L 441.664419 93.58125 
Q 443.664419 93.58125 443.664419 91.58125 
L 443.664419 17.8 
Q 443.664419 15.8 441.664419 15.8 
L 334.276919 15.8 
Q 332.276919 15.8 332.276919 17.8 
L 332.276919 91.58125 
Q 332.276919 93.58125 334.276919 93.58125 
z
" style="fill: #ffffff; opacity: 0.8; stroke: #cccccc; stroke-linejoin: miter"/>
    </g>
    <g id="line2d_28">
     <path d="M 336.276919 23.898438 
L 346.276919 23.898438 
L 356.276919 23.898438 
" style="fill: none; stroke: #1f77b4; stroke-width: 1.5; stroke-linecap: square"/>
    </g>
    <g id="text_14">
     <!-- hard_neg, D=1 -->
     <g transform="translate(364.276919 27.398438) scale(0.1 -0.1)">
      <defs>
       <path id="DejaVuSans-64" d="M 2906 2969 
L 2906 4863 
L 3481 4863 
L 3481 0 
L 2906 0 
L 2906 525 
Q 2725 213 2448 61 
Q 2172 -91 1784 -91 
Q 1150 -91 751 415 
Q 353 922 353 1747 
Q 353 2572 751 3078 
Q 1150 3584 1784 3584 
Q 2172 3584 2448 3432 
Q 2725 3281 2906 2969 
z
M 947 1747 
Q 947 1113 1208 752 
Q 1469 391 1925 391 
Q 2381 391 2643 752 
Q 2906 1113 2906 1747 
Q 2906 2381 2643 2742 
Q 2381 3103 1925 3103 
Q 1469 3103 1208 2742 
Q 947 2381 947 1747 
z
" transform="scale(0.015625)"/>
       <path id="DejaVuSans-5f" d="M 3263 -1063 
L 3263 -1509 
L -63 -1509 
L -63 -1063 
L 3263 -1063 
z
" transform="scale(0.015625)"/>
       <path id="DejaVuSans-67" d="M 2906 1791 
Q 2906 2416 2648 2759 
Q 2391 3103 1925 3103 
Q 1463 3103 1205 2759 
Q 947 2416 947 1791 
Q 947 1169 1205 825 
Q 1463 481 1925 481 
Q 2391 481 2648 825 
Q 2906 1169 2906 1791 
z
M 3481 434 
Q 3481 -459 3084 -895 
Q 2688 -1331 1869 -1331 
Q 1566 -1331 1297 -1286 
Q 1028 -1241 775 -1147 
L 775 -588 
Q 1028 -725 1275 -790 
Q 1522 -856 1778 -856 
Q 2344 -856 2625 -561 
Q 2906 -266 2906 331 
L 2906 616 
Q 2728 306 2450 153 
Q 2172 0 1784 0 
Q 1141 0 747 490 
Q 353 981 353 1791 
Q 353 2603 747 3093 
Q 1141 3584 1784 3584 
Q 2172 3584 2450 3431 
Q 2728 3278 2906 2969 
L 2906 3500 
L 3481 3500 
L 3481 434 
z
" transform="scale(0.015625)"/>
       <path id="DejaVuSans-2c" d="M 750 794 
L 1409 794 
L 1409 256 
L 897 -744 
L 494 -744 
L 750 256 
L 750 794 
z
" transform="scale(0.015625)"/>
       <path id="DejaVuSans-44" d="M 1259 4147 
L 1259 519 
L 2022 519 
Q 2988 519 3436 956 
Q 3884 1394 3884 2338 
Q 3884 3275 3436 3711 
Q 2988 4147 2022 4147 
L 1259 4147 
z
M 628 4666 
L 1925 4666 
Q 3281 4666 3915 4102 
Q 4550 3538 4550 2338 
Q 4550 1131 3912 565 
Q 3275 0 1925 0 
L 628 0 
L 628 4666 
z
" transform="scale(0.015625)"/>
       <path id="DejaVuSans-3d" d="M 678 2906 
L 4684 2906 
L 4684 2381 
L 678 2381 
L 678 2906 
z
M 678 1631 
L 4684 1631 
L 4684 1100 
L 678 1100 
L 678 1631 
z
" transform="scale(0.015625)"/>
      </defs>
      <use xlink:href="#DejaVuSans-68"/>
      <use xlink:href="#DejaVuSans-61" x="63.378906"/>
      <use xlink:href="#DejaVuSans-72" x="124.658203"/>
      <use xlink:href="#DejaVuSans-64" x="164.021484"/>
      <use xlink:href="#DejaVuSans-5f" x="227.498047"/>
      <use xlink:href="#DejaVuSans-6e" x="277.498047"/>
      <use xlink:href="#DejaVuSans-65" x="340.876953"/>
      <use xlink:href="#DejaVuSans-67" x="402.400391"/>
      <use xlink:href="#DejaVuSans-2c" x="465.876953"/>
      <use xlink:href="#DejaVuSans-20" x="497.664062"/>
      <use xlink:href="#DejaVuSans-44" x="529.451172"/>
      <use xlink:href="#DejaVuSans-3d" x="606.453125"/>
      <use xlink:href="#DejaVuSans-31" x="690.242188"/>
     </g>
    </g>
    <g id="line2d_29">
     <path d="M 336.276919 38.854688 
L 346.276919 38.854688 
L 356.276919 38.854688 
" style="fill: none; stroke: #ff7f0e; stroke-width: 1.5; stroke-linecap: square"/>
    </g>
    <g id="text_15">
     <!-- hard_neg, D=2 -->
     <g transform="translate(364.276919 42.354688) scale(0.1 -0.1)">
      <use xlink:href="#DejaVuSans-68"/>
      <use xlink:href="#DejaVuSans-61" x="63.378906"/>
      <use xlink:href="#DejaVuSans-72" x="124.658203"/>
      <use xlink:href="#DejaVuSans-64" x="164.021484"/>
      <use xlink:href="#DejaVuSans-5f" x="227.498047"/>
      <use xlink:href="#DejaVuSans-6e" x="277.498047"/>
      <use xlink:href="#DejaVuSans-65" x="340.876953"/>
      <use xlink:href="#DejaVuSans-67" x="402.400391"/>
      <use xlink:href="#DejaVuSans-2c" x="465.876953"/>
      <use xlink:href="#DejaVuSans-20" x="497.664062"/>
      <use xlink:href="#DejaVuSans-44" x="529.451172"/>
      <use xlink:href="#DejaVuSans-3d" x="606.453125"/>
      <use xlink:href="#DejaVuSans-32" x="690.242188"/>
     </g>
    </g>
    <g id="line2d_30">
     <path d="M 336.276919 53.810938 
L 346.276919 53.810938 
L 356.276919 53.810938 
" style="fill: none; stroke: #2ca02c; stroke-width: 1.5; stroke-linecap: square"/>
    </g>
    <g id="text_16">
     <!-- hard_neg, D=4 -->
     <g transform="translate(364.276919 57.310938) scale(0.1 -0.1)">
      <use xlink:href="#DejaVuSans-68"/>
      <use xlink:href="#DejaVuSans-61" x="63.378906"/>
      <use xlink:href="#DejaVuSans-72" x="124.658203"/>
      <use xlink:href="#DejaVuSans-64" x="164.021484"/>
      <use xlink:href="#DejaVuSans-5f" x="227.498047"/>
      <use xlink:href="#DejaVuSans-6e" x="277.498047"/>
      <use xlink:href="#DejaVuSans-65" x="340.876953"/>
      <use xlink:href="#DejaVuSans-67" x="402.400391"/>
      <use xlink:href="#DejaVuSans-2c" x="465.876953"/>
      <use xlink:href="#DejaVuSans-20" x="497.664062"/>
      <use xlink:href="#DejaVuSans-44" x="529.451172"/>
      <use xlink:href="#DejaVuSans-3d" x="606.453125"/>
      <use xlink:href="#DejaVuSans-34" x="690.242188"/>
     </g>
    </g>
    <g id="line2d_31">
     <path d="M 336.276919 68.767188 
L 346.276919 68.767188 
L 356.276919 68.767188 
" style="fill: none; stroke: #d62728; stroke-width: 1.5; stroke-linecap: square"/>
    </g>
    <g id="text_17">
     <!-- hard_neg, D=8 -->
     <g transform="translate(364.276919 72.267188) scale(0.1 -0.1)">
      <defs>
       <path id="DejaVuSans-38" d="M 2034 2216 
Q 1584 2216 1326 1975 
Q 1069 1734 1069 1313 
Q 1069 891 1326 650 
Q 1584 409 2034 409 
Q 2484 409 2743 651 
Q 3003 894 3003 1313 
Q 3003 1734 2745 1975 
Q 2488 2216 2034 2216 
z
M 1403 2484 
Q 997 2584 770 2862 
Q 544 3141 544 3541 
Q 544 4100 942 4425 
Q 1341 4750 2034 4750 
Q 2731 4750 3128 4425 
Q 3525 4100 3525 3541 
Q 3525 3141 3298 2862 
Q 3072 2584 2669 2484 
Q 3125 2378 3379 2068 
Q 3634 1759 3634 1313 
Q 3634 634 3220 271 
Q 2806 -91 2034 -91 
Q 1263 -91 848 271 
Q 434 634 434 1313 
Q 434 1759 690 2068 
Q 947 2378 1403 2484 
z
M 1172 3481 
Q 1172 3119 1398 2916 
Q 1625 2713 2034 2713 
Q 2441 2713 2670 2916 
Q 2900 3119 2900 3481 
Q 2900 3844 2670 4047 
Q 2441 4250 2034 4250 
Q 1625 4250 1398 4047 
Q 1172 3844 1172 3481 
z
" transform="scale(0.015625)"/>
      </defs>
      <use xlink:href="#DejaVuSans-68"/>
      <use xlink:href="#DejaVuSans-61" x="63.378906"/>
      <use xlink:href="#DejaVuSans-72" x="124.658203"/>
      <use xlink:href="#DejaVuSans-64" x="164.021484"/>
      <use xlink:href="#DejaVuSans-5f" x="227.498047"/>
      <use xlink:href="#DejaVuSans-6e" x="277.498047"/>
      <use xlink:href="#DejaVuSans-65" x="340.876953"/>
      <use xlink:href="#DejaVuSans-67" x="402.400391"/>
      <use xlink:href="#DejaVuSans-2c" x="465.876953"/>
      <use xlink:href="#DejaVuSans-20" x="497.664062"/>
      <use xlink:href="#DejaVuSans-44" x="529.451172"/>
      <use xlink:href="#DejaVuSans-3d" x="606.453125"/>
      <use xlink:href="#DejaVuSans-38" x="690.242188"/>
     </g>
    </g>
    <g id="line2d_32">
     <path d="M 336.276919 83.723438 
L 346.276919 83.723438 
L 356.276919 83.723438 
" style="fill: none; stroke: #9467bd; stroke-width: 1.5; stroke-linecap: square"/>
    </g>
    <g id="text_18">
     <!-- false_neg -->
     <g transform="translate(364.276919 87.223438) scale(0.1 -0.1)">
      <defs>
       <path id="DejaVuSans-66" d="M 2375 4863 
L 2375 4384 
L 1825 4384 
Q 1516 4384 1395 4259 
Q 1275 4134 1275 3809 
L 1275 3500 
L 2222 3500 
L 2222 3053 
L 1275 3053 
L 1275 0 
L 697 0 
L 697 3053 
L 147 3053 
L 147 3500 
L 697 3500 
L 697 3744 
Q 697 4328 969 4595 
Q 1241 4863 1831 4863 
L 2375 4863 
z
" transform="scale(0.015625)"/>
       <path id="DejaVuSans-6c" d="M 603 4863 
L 1178 4863 
L 1178 0 
L 603 0 
L 603 4863 
z
" transform="scale(0.015625)"/>
      </defs>
      <use xlink:href="#DejaVuSans-66"/>
      <use xlink:href="#DejaVuSans-61" x="35.205078"/>
      <use xlink:href="#DejaVuSans-6c" x="96.484375"/>
      <use xlink:href="#DejaVuSans-73" x="124.267578"/>
      <use xlink:href="#DejaVuSans-65" x="176.367188"/>
      <use xlink:href="#DejaVuSans-5f" x="237.890625"/>
      <use xlink:href="#DejaVuSans-6e" x="287.890625"/>
      <use xlink:href="#DejaVuSans-65" x="351.269531"/>
      <use xlink:href="#DejaVuSans-67" x="412.792969"/>
     </g>
    </g>
   </g>
  </g>
 </g>
 <defs>
  <clipPath id="p4c1e87eb27">
   <rect x="56.18" y="10.8" width="392.484419" height="292.84"/>
  </clipPath>
 </defs>
</svg>
